{"glyphs":{"0":{"ha":1039,"x_min":79,"x_max":926,"o":"m 188 828 q 243 890 188 828 q 503 951 297 951 q 817 828 708 951 q 926 468 926 704 q 817 110 926 233 q 503 -14 708 -14 q 188 110 297 -14 q 79 468 79 233 q 188 828 79 704 m 503 788 q 303 710 367 788 q 240 469 240 632 q 303 228 240 307 q 503 150 367 150 q 701 228 639 150 q 764 469 764 306 q 701 710 764 632 q 503 788 638 788 z "},"1":{"ha":468,"x_min":40,"x_max":357,"o":"m 40 938 l 139 938 q 311 888 265 938 q 357 714 357 839 l 357 0 l 193 0 l 193 703 q 178 757 193 740 q 125 774 163 774 l 40 774 l 40 938 z "},"2":{"ha":1019,"x_min":93,"x_max":943,"o":"m 124 938 l 661 938 q 870 869 797 938 q 943 672 943 801 q 891 508 943 568 q 725 421 839 447 l 335 333 q 273 298 289 322 q 257 231 257 274 l 257 183 q 275 164 257 164 l 918 164 l 918 0 l 171 0 q 93 76 93 0 l 93 218 q 138 399 93 338 q 299 488 182 461 l 693 578 q 781 669 781 597 q 751 745 781 717 q 665 774 721 774 l 124 774 l 124 938 z "},"3":{"ha":946,"x_min":82,"x_max":868,"o":"m 83 938 l 551 938 q 788 869 710 938 q 865 686 865 801 q 732 471 865 526 q 868 251 868 414 q 790 69 868 139 q 556 0 713 0 l 82 0 l 82 164 l 556 164 q 697 283 697 164 q 554 396 697 396 l 265 396 l 265 544 l 550 544 q 693 657 693 544 q 551 774 693 774 l 83 774 l 83 938 z "},"4":{"ha":978,"x_min":46,"x_max":867,"o":"m 104 508 l 375 832 q 468 913 422 889 q 593 938 514 938 l 697 938 q 826 894 786 938 q 867 767 867 851 l 867 0 l 701 0 l 701 194 l 263 194 q 97 235 147 194 q 46 357 46 275 q 104 508 46 439 m 501 733 l 246 429 q 229 386 229 411 q 292 340 229 340 l 701 340 l 701 728 q 660 774 701 774 l 586 774 q 539 765 556 774 q 501 733 522 757 z "},"5":{"ha":951,"x_min":106,"x_max":882,"o":"m 183 938 l 831 938 l 831 774 l 288 774 q 269 757 269 774 l 269 586 q 288 569 269 569 l 565 569 q 812 495 742 569 q 882 294 882 421 q 809 79 882 158 q 582 0 736 0 l 110 0 l 110 164 l 588 164 q 718 297 718 164 q 685 389 718 357 q 574 421 651 421 l 183 421 q 106 497 106 421 l 106 861 q 183 938 106 938 z "},"6":{"ha":990,"x_min":79,"x_max":917,"o":"m 503 938 l 863 938 l 863 774 l 503 774 q 324 721 386 774 q 247 553 261 668 l 640 553 q 850 491 783 553 q 917 299 917 429 q 845 82 917 164 q 625 0 774 0 l 465 0 q 181 119 283 0 q 79 468 79 238 q 188 819 79 701 q 503 938 296 938 m 624 421 l 244 421 q 312 225 253 286 q 488 164 371 164 l 618 164 q 721 201 686 164 q 756 300 756 238 q 624 421 756 421 z "},"7":{"ha":904,"x_min":40,"x_max":854,"o":"m 40 938 l 628 938 q 801 882 749 938 q 854 746 854 826 q 776 547 854 656 l 374 0 l 168 0 l 651 654 q 675 715 675 686 q 608 774 675 774 l 40 774 l 40 938 z "},"8":{"ha":1008,"x_min":76,"x_max":932,"o":"m 393 938 l 614 938 q 851 869 774 938 q 928 681 928 800 q 794 471 928 525 q 932 258 932 414 q 854 70 932 140 q 618 0 776 0 l 389 0 q 153 69 231 0 q 76 258 76 139 q 213 471 76 415 q 79 681 79 525 q 156 869 79 800 q 393 938 233 938 m 385 163 l 622 163 q 767 283 767 163 q 622 400 767 400 l 385 400 q 240 283 240 400 q 385 163 240 163 m 390 542 l 618 542 q 763 656 763 542 q 619 776 763 776 l 389 776 q 281 744 317 776 q 244 656 244 713 q 390 542 244 542 z "},"9":{"ha":990,"x_min":74,"x_max":911,"o":"m 385 938 l 542 938 q 813 827 715 938 q 911 483 911 717 q 803 120 911 240 q 488 0 694 0 l 179 0 l 179 164 l 488 164 q 663 217 601 164 q 742 385 725 269 l 349 385 q 140 447 207 385 q 74 639 74 508 q 148 856 74 775 q 385 938 222 938 m 233 638 q 365 517 233 517 l 746 517 q 680 712 739 650 q 503 774 621 774 l 372 774 q 269 737 304 774 q 233 638 233 700 z "},"Ɖ":{"ha":1008,"x_min":28,"x_max":982,"o":"m 28 1065 l 982 1065 l 982 -365 l 28 -365 l 28 1065 m 167 854 l 167 638 l 582 638 q 642 589 642 638 q 582 536 642 536 l 506 536 q 365 490 407 536 q 324 349 324 444 l 324 231 l 515 231 l 515 297 q 567 342 515 342 l 629 342 q 807 414 747 342 q 867 600 867 486 q 798 787 867 719 q 583 854 729 854 l 167 854 m 297 97 l 297 -136 l 543 -136 l 543 97 l 297 97 z "},"\u0017":{"ha":371,"x_min":0,"x_max":0,"o":""}," ":{"ha":371,"x_min":0,"x_max":0,"o":""},"!":{"ha":325,"x_min":78,"x_max":250,"o":"m 78 964 l 250 964 l 228 331 l 101 331 l 78 964 m 85 189 l 243 189 l 243 0 l 85 0 l 85 189 z "},"\"":{"ha":531,"x_min":64,"x_max":465,"o":"m 324 1051 l 465 1051 l 447 636 l 343 636 l 324 1051 m 64 1051 l 206 1051 l 188 636 l 83 636 l 64 1051 z "},"#":{"ha":865,"x_min":58,"x_max":806,"o":"m 215 938 l 317 938 l 317 697 l 547 697 l 547 938 l 649 938 l 649 697 l 806 697 l 806 596 l 649 596 l 649 339 l 806 339 l 806 238 l 649 238 l 649 0 l 547 0 l 547 238 l 317 238 l 317 0 l 215 0 l 215 238 l 58 238 l 58 339 l 215 339 l 215 596 l 58 596 l 58 697 l 215 697 l 215 938 m 317 596 l 317 339 l 547 339 l 547 596 l 317 596 z "},"$":{"ha":861,"x_min":93,"x_max":768,"o":"m 332 824 l 403 824 l 403 1019 l 503 1019 l 503 824 l 739 824 l 739 682 l 333 682 q 238 600 238 682 q 342 515 238 515 l 514 515 q 712 462 656 515 q 768 314 768 408 q 710 150 768 210 q 528 90 651 90 l 503 90 l 503 -82 l 403 -82 l 403 90 l 101 90 l 101 233 l 528 233 q 624 315 624 233 q 519 400 624 400 l 346 400 q 149 457 206 400 q 93 611 93 514 q 332 824 93 824 z "},"%":{"ha":1174,"x_min":40,"x_max":1133,"o":"m 897 938 l 1007 938 l 274 0 l 161 0 l 897 938 m 900 522 q 1074 455 1014 522 q 1133 257 1133 388 q 1073 60 1133 128 q 900 -8 1013 -8 q 727 60 786 -8 q 668 257 668 128 q 728 455 668 388 q 900 522 788 522 m 900 428 q 794 387 826 428 q 761 258 761 346 q 794 129 761 171 q 900 88 826 88 q 1006 129 972 88 q 1039 258 1039 171 q 1006 387 1039 346 q 900 428 972 428 m 272 944 q 446 877 386 944 q 506 679 506 810 q 445 482 506 550 q 272 414 385 414 q 99 482 158 414 q 40 679 40 550 q 100 877 40 810 q 272 944 160 944 m 272 850 q 166 809 199 850 q 133 681 133 768 q 166 551 133 593 q 272 510 199 510 q 378 551 344 510 q 411 681 411 593 q 378 809 411 768 q 272 850 344 850 z "},"&":{"ha":1063,"x_min":60,"x_max":1021,"o":"m 454 1051 l 585 1051 q 758 985 699 1051 q 818 814 818 918 q 777 678 818 735 q 642 575 736 622 l 556 532 l 721 342 l 843 506 l 1017 506 l 814 236 l 1021 0 l 833 0 l 725 124 q 602 24 658 47 q 465 0 546 0 l 307 0 q 129 66 199 0 q 60 261 60 132 q 111 414 60 354 q 306 540 163 474 l 344 558 l 296 615 q 217 814 217 704 q 280 984 217 917 q 454 1051 343 1051 m 467 143 q 553 161 517 143 q 633 229 590 179 l 424 468 l 379 446 q 248 365 281 397 q 215 282 215 332 q 249 181 215 219 q 339 143 282 143 l 467 143 m 375 799 q 431 676 375 739 l 478 622 l 564 664 q 645 720 619 690 q 671 799 671 750 q 645 881 671 849 q 565 913 619 913 l 482 913 q 401 881 428 913 q 375 799 375 850 z "},"'":{"ha":269,"x_min":64,"x_max":206,"o":"m 64 1051 l 206 1051 l 188 636 l 83 636 l 64 1051 z "},"(":{"ha":547,"x_min":113,"x_max":508,"o":"m 488 1243 l 508 1243 l 508 1142 l 488 1142 q 274 1060 333 1142 q 214 764 214 978 l 214 113 q 274 -183 214 -101 q 488 -265 333 -265 l 508 -265 l 508 -367 l 488 -367 q 197 -253 282 -367 q 113 125 113 -139 l 113 751 q 197 1129 113 1015 q 488 1243 282 1243 z "},")":{"ha":547,"x_min":39,"x_max":435,"o":"m 60 -367 l 39 -367 l 39 -265 l 60 -265 q 274 -183 214 -265 q 333 113 333 -101 l 333 764 q 274 1060 333 978 q 60 1142 214 1142 l 39 1142 l 39 1243 l 60 1243 q 350 1129 265 1243 q 435 751 435 1015 l 435 125 q 350 -253 435 -139 q 60 -367 265 -367 z "},"*":{"ha":775,"x_min":64,"x_max":711,"o":"m 113 919 l 351 768 l 339 1051 l 435 1051 l 422 768 l 663 921 l 710 838 l 458 707 l 711 576 l 663 494 l 424 646 l 436 363 l 342 363 l 354 646 l 114 492 l 65 575 l 317 707 l 64 836 l 113 919 z "},"+":{"ha":860,"x_min":56,"x_max":803,"o":"m 378 843 l 481 843 l 481 518 l 803 518 l 803 417 l 481 417 l 481 96 l 378 96 l 378 417 l 56 417 l 56 518 l 378 518 l 378 843 z "},",":{"ha":357,"x_min":39,"x_max":268,"o":"m 110 189 l 268 189 l 268 -36 q 88 -233 268 -233 l 39 -233 l 39 -112 l 56 -112 q 110 -53 110 -112 l 110 189 z "},"-":{"ha":576,"x_min":40,"x_max":536,"o":"m 40 511 l 536 511 l 536 369 l 40 369 l 40 511 z "},".":{"ha":336,"x_min":89,"x_max":247,"o":"m 89 189 l 247 189 l 247 0 l 89 0 l 89 189 z "},"/":{"ha":632,"x_min":15,"x_max":617,"o":"m 475 1051 l 617 1051 l 158 -294 l 15 -294 l 475 1051 z "},":":{"ha":378,"x_min":110,"x_max":268,"o":"m 110 714 l 268 714 l 268 525 l 110 525 l 110 714 m 110 189 l 268 189 l 268 0 l 110 0 l 110 189 z "},";":{"ha":378,"x_min":39,"x_max":268,"o":"m 110 189 l 268 189 l 268 -36 q 88 -233 268 -233 l 39 -233 l 39 -112 l 56 -112 q 110 -53 110 -112 l 110 189 m 110 714 l 268 714 l 268 525 l 110 525 l 110 714 z "},"<":{"ha":860,"x_min":56,"x_max":803,"o":"m 117 569 l 803 840 l 803 731 l 161 482 q 153 467 153 476 q 161 451 153 454 l 803 203 l 803 94 l 117 364 q 56 467 56 386 q 117 569 56 544 z "},"=":{"ha":860,"x_min":56,"x_max":803,"o":"m 56 339 l 803 339 l 803 238 l 56 238 l 56 339 m 56 697 l 803 697 l 803 596 l 56 596 l 56 697 z "},">":{"ha":860,"x_min":57,"x_max":804,"o":"m 743 364 l 57 93 l 57 203 l 699 451 q 707 467 707 457 q 699 482 707 479 l 57 731 l 57 839 l 743 569 q 804 467 804 547 q 743 364 804 389 z "},"?":{"ha":790,"x_min":40,"x_max":740,"o":"m 40 964 l 471 964 q 675 899 610 964 q 740 722 740 835 q 683 544 740 614 q 514 475 626 475 l 433 475 q 367 410 367 475 l 367 331 l 240 331 l 240 440 q 277 563 240 522 q 396 604 314 604 l 486 604 q 567 635 540 604 q 594 715 594 665 q 471 822 594 822 l 40 822 l 40 964 m 225 189 l 383 189 l 383 0 l 225 0 l 225 189 z "},"@":{"ha":1064,"x_min":107,"x_max":957,"o":"m 365 843 l 722 843 q 899 782 842 843 q 957 590 957 721 l 957 236 q 901 49 957 107 q 729 -8 844 -8 l 593 -8 q 422 49 478 -8 q 365 236 365 107 l 365 288 q 422 475 365 418 q 593 532 478 532 l 842 532 l 842 583 q 811 692 842 658 q 711 725 781 725 l 365 725 q 221 554 221 725 l 221 -6 q 365 -176 221 -176 l 951 -176 l 951 -294 l 365 -294 q 174 -221 242 -294 q 107 -4 107 -147 l 107 553 q 174 769 107 696 q 365 843 242 843 m 729 110 q 814 140 786 110 q 842 236 842 169 l 842 414 l 593 414 q 508 385 536 414 q 481 288 481 356 l 481 236 q 508 140 481 169 q 593 110 536 110 l 729 110 z "},"A":{"ha":1089,"x_min":26,"x_max":1064,"o":"m 504 754 l 207 0 l 26 0 l 356 833 q 553 954 404 954 q 747 833 701 954 l 1064 0 l 882 0 l 597 754 q 551 786 585 786 q 504 754 518 786 z "},"B":{"ha":999,"x_min":114,"x_max":922,"o":"m 192 938 l 604 938 q 841 869 764 938 q 918 681 918 800 q 783 472 918 525 q 922 258 922 415 q 844 70 922 140 q 608 0 767 0 l 192 0 q 114 76 114 0 l 114 861 q 192 938 114 938 m 275 406 l 275 178 q 293 163 275 163 l 613 163 q 757 285 757 163 q 613 406 757 406 l 275 406 m 275 760 l 275 542 l 608 542 q 753 654 753 542 q 610 776 753 776 l 293 776 q 275 760 275 776 z "},"C":{"ha":947,"x_min":79,"x_max":865,"o":"m 503 938 l 865 938 l 865 774 l 503 774 q 305 701 367 774 q 243 468 243 629 q 305 236 243 308 q 503 164 367 164 l 865 164 l 865 0 l 503 0 q 188 117 296 0 q 79 468 79 235 q 188 819 79 701 q 503 938 296 938 z "},"D":{"ha":1024,"x_min":114,"x_max":944,"o":"m 192 938 l 522 938 q 944 468 944 938 q 522 0 944 0 l 192 0 q 114 76 114 0 l 114 861 q 192 938 114 938 m 278 757 l 278 181 q 296 164 278 164 l 522 164 q 719 236 658 164 q 781 469 781 308 q 719 702 781 631 q 522 774 658 774 l 296 774 q 278 757 278 774 z "},"E":{"ha":963,"x_min":76,"x_max":864,"o":"m 393 938 l 863 938 l 863 774 l 393 774 q 251 656 251 774 q 394 544 251 544 l 856 544 l 856 396 l 390 396 q 247 282 247 396 q 389 164 247 164 l 864 164 l 864 0 l 389 0 q 153 69 231 0 q 76 256 76 139 q 211 471 76 414 q 79 682 79 525 q 156 869 79 800 q 393 938 233 938 z "},"F":{"ha":921,"x_min":106,"x_max":840,"o":"m 451 938 l 840 938 l 840 774 l 463 774 q 269 615 269 774 l 269 526 l 835 526 l 835 371 l 269 371 l 269 0 l 106 0 l 106 614 q 190 851 106 764 q 451 938 274 938 z "},"G":{"ha":1013,"x_min":79,"x_max":939,"o":"m 503 938 l 889 938 l 889 774 l 503 774 q 305 701 367 774 q 243 468 243 629 q 305 236 243 308 q 503 164 367 164 l 658 164 q 756 199 724 164 q 789 296 789 235 q 760 384 789 353 q 674 415 731 415 l 465 415 l 465 558 l 690 558 q 876 488 813 558 q 939 293 939 418 q 867 81 939 161 q 647 0 796 0 l 503 0 q 188 117 296 0 q 79 468 79 235 q 188 819 79 701 q 503 938 296 938 z "},"H":{"ha":1035,"x_min":114,"x_max":922,"o":"m 114 938 l 278 938 l 278 556 l 757 556 l 757 938 l 922 938 l 922 0 l 757 0 l 757 392 l 278 392 l 278 0 l 114 0 l 114 938 z "},"I":{"ha":390,"x_min":114,"x_max":278,"o":"m 114 938 l 278 938 l 278 0 l 114 0 l 114 938 z "},"J":{"ha":810,"x_min":40,"x_max":706,"o":"m 540 938 l 706 938 l 706 324 q 621 88 706 175 q 358 0 536 0 l 40 0 l 40 164 l 349 164 q 540 325 540 164 l 540 938 z "},"K":{"ha":983,"x_min":114,"x_max":956,"o":"m 114 938 l 278 938 l 278 540 l 368 540 q 528 560 489 540 q 608 657 568 579 l 751 938 l 928 938 l 781 646 q 710 540 747 581 q 618 475 674 499 q 722 419 682 458 q 804 294 761 379 l 956 0 l 772 0 l 629 278 q 545 372 590 353 q 368 392 500 392 l 278 392 l 278 0 l 114 0 l 114 938 z "},"L":{"ha":864,"x_min":104,"x_max":824,"o":"m 104 938 l 268 938 l 268 325 q 460 164 268 164 l 824 164 l 824 0 l 450 0 q 188 87 272 0 q 104 324 104 174 l 104 938 z "},"M":{"ha":1531,"x_min":113,"x_max":1418,"o":"m 275 736 l 275 0 l 113 0 l 113 744 q 169 898 113 842 q 338 954 226 954 q 574 769 532 954 l 706 196 q 768 143 719 143 q 831 196 817 143 l 963 769 q 1193 954 1004 954 q 1361 898 1304 954 q 1418 744 1418 842 l 1418 0 l 1256 0 l 1256 736 q 1238 780 1256 764 q 1189 796 1221 796 q 1124 746 1135 796 l 989 172 q 914 30 967 76 q 767 -17 861 -17 q 540 172 583 -17 l 407 746 q 342 796 396 796 q 292 780 310 796 q 275 736 275 764 z "},"N":{"ha":1221,"x_min":113,"x_max":1110,"o":"m 276 742 l 276 0 l 113 0 l 113 750 q 167 899 113 844 q 328 954 221 954 q 472 910 421 954 q 556 781 524 867 l 829 182 q 889 143 849 143 q 930 158 915 143 q 944 196 944 172 l 944 938 l 1110 938 l 1110 189 q 1055 38 1110 93 q 894 -17 1000 -17 q 749 27 801 -17 q 665 157 697 71 l 392 756 q 333 796 374 796 q 276 742 276 796 z "},"O":{"ha":1133,"x_min":79,"x_max":1054,"o":"m 503 938 l 631 938 q 946 819 838 938 q 1054 467 1054 701 q 946 117 1054 233 q 631 0 838 0 l 503 0 q 188 117 296 0 q 79 467 79 233 q 188 819 79 701 q 503 938 296 938 m 631 774 l 503 774 q 305 701 367 774 q 243 467 243 628 q 305 235 243 307 q 503 164 367 164 l 631 164 q 828 235 767 164 q 889 468 889 307 q 828 701 889 628 q 631 774 767 774 z "},"P":{"ha":943,"x_min":111,"x_max":893,"o":"m 111 938 l 592 938 q 817 858 742 938 q 893 657 893 778 q 865 517 893 581 q 766 408 836 453 q 592 363 696 363 l 300 363 q 276 339 276 363 l 276 0 l 113 0 l 113 371 q 147 485 113 450 q 260 519 182 519 l 597 519 q 695 557 663 519 q 728 649 728 594 q 695 738 728 703 q 599 774 663 774 l 111 774 l 111 938 z "},"Q":{"ha":1133,"x_min":79,"x_max":1054,"o":"m 503 938 l 631 938 q 946 819 838 938 q 1054 468 1054 701 q 839 39 1054 138 l 928 -147 l 763 -147 l 690 3 q 631 0 671 0 l 503 0 q 188 117 296 0 q 79 468 79 235 q 188 819 79 701 q 503 938 296 938 m 519 363 l 685 363 l 767 189 q 889 468 889 247 q 828 701 889 628 q 631 774 767 774 l 503 774 q 305 701 367 774 q 243 468 243 628 q 305 236 243 308 q 503 164 367 164 l 614 164 l 519 363 z "},"R":{"ha":992,"x_min":111,"x_max":940,"o":"m 111 938 l 619 938 q 845 858 769 938 q 921 657 921 778 q 872 482 921 561 q 722 375 822 403 l 940 0 l 758 0 l 544 363 l 300 363 q 276 339 276 363 l 276 0 l 113 0 l 113 371 q 147 485 113 450 q 260 519 182 519 l 625 519 q 723 557 690 519 q 756 650 756 594 q 722 739 756 704 q 625 774 689 774 l 111 774 l 111 938 z "},"S":{"ha":976,"x_min":71,"x_max":908,"o":"m 363 938 l 838 938 l 838 774 l 357 774 q 265 744 296 774 q 235 663 235 714 q 374 551 235 551 l 593 551 q 749 528 685 551 q 847 463 814 504 q 894 376 881 421 q 908 275 908 331 q 835 74 908 149 q 610 0 763 0 l 88 0 l 88 164 l 615 164 q 712 196 679 164 q 744 281 744 228 q 597 397 744 397 l 379 397 q 226 420 290 397 q 131 484 163 443 q 85 569 99 525 q 71 668 71 614 q 142 865 71 792 q 363 938 214 938 z "},"T":{"ha":793,"x_min":40,"x_max":753,"o":"m 40 938 l 753 938 l 753 774 l 479 774 l 479 0 l 314 0 l 314 774 l 40 774 l 40 938 z "},"U":{"ha":1017,"x_min":107,"x_max":911,"o":"m 107 938 l 274 938 l 274 311 q 429 164 274 164 l 596 164 q 750 311 750 164 l 750 938 l 911 938 l 911 299 q 607 0 911 0 l 410 0 q 107 299 107 0 l 107 938 z "},"V":{"ha":1089,"x_min":26,"x_max":1064,"o":"m 26 938 l 207 938 l 492 183 q 538 151 504 151 q 583 183 569 151 l 882 938 l 1064 938 l 733 104 q 538 -17 685 -17 q 340 104 386 -17 l 26 938 z "},"W":{"ha":1453,"x_min":44,"x_max":1408,"o":"m 44 938 l 217 938 l 286 206 q 343 143 293 143 q 401 194 392 143 l 513 769 q 728 954 549 954 q 938 769 904 954 l 1042 194 q 1101 143 1050 143 q 1158 206 1151 143 l 1238 938 l 1408 938 l 1321 196 q 1101 -17 1297 -17 q 886 174 921 -17 l 783 746 q 726 796 775 796 q 669 746 681 796 l 560 174 q 339 -17 522 -17 q 186 39 236 -17 q 125 196 136 94 l 44 938 z "},"X":{"ha":1085,"x_min":26,"x_max":1060,"o":"m 65 938 l 265 938 l 553 592 l 854 938 l 1057 938 l 656 476 l 1060 0 l 860 0 l 549 372 l 229 0 l 26 0 l 446 489 l 65 938 z "},"Y":{"ha":957,"x_min":18,"x_max":939,"o":"m 18 938 l 217 938 l 479 536 l 744 938 l 939 938 l 561 404 l 561 0 l 396 0 l 396 404 l 18 938 z "},"Z":{"ha":1032,"x_min":79,"x_max":956,"o":"m 113 938 l 728 938 q 897 884 839 938 q 956 732 956 831 q 806 513 956 578 l 294 294 q 247 225 247 274 q 265 181 247 197 q 317 164 283 164 l 935 164 l 935 0 l 306 0 q 137 53 194 0 q 79 206 79 107 q 231 425 79 361 l 739 643 q 788 713 788 663 q 717 774 788 774 l 113 774 l 113 938 z "},"[":{"ha":547,"x_min":114,"x_max":508,"o":"m 114 1243 l 508 1243 l 508 1142 l 215 1142 l 215 -265 l 508 -265 l 508 -367 l 114 -367 l 114 1243 z "},"\\":{"ha":632,"x_min":15,"x_max":617,"o":"m 15 1051 l 157 1051 l 617 -294 l 474 -294 l 15 1051 z "},"]":{"ha":547,"x_min":39,"x_max":433,"o":"m 433 -367 l 39 -367 l 39 -265 l 332 -265 l 332 1142 l 39 1142 l 39 1243 l 433 1243 l 433 -367 z "},"^":{"ha":743,"x_min":71,"x_max":669,"o":"m 356 944 l 181 507 l 71 507 l 268 990 q 371 1051 293 1051 q 474 990 449 1051 l 669 510 l 560 510 l 386 944 q 371 954 381 954 q 356 944 360 954 z "},"_":{"ha":714,"x_min":0,"x_max":719,"o":"m 0 -189 l 719 -189 l 719 -294 l 0 -294 l 0 -189 z "},"`":{"ha":478,"x_min":117,"x_max":436,"o":"m 117 1079 l 281 1079 l 436 781 l 289 781 l 117 1079 z "},"a":{"ha":933,"x_min":90,"x_max":831,"o":"m 135 733 l 575 733 q 768 668 706 733 q 831 492 831 603 l 831 147 q 800 33 831 65 q 679 0 769 0 l 336 0 q 90 224 90 0 q 149 381 90 328 q 338 435 207 435 l 686 435 l 686 490 q 658 564 686 536 q 574 592 631 592 l 135 592 l 135 733 m 646 143 q 686 181 686 143 l 686 318 l 340 318 q 235 232 235 318 q 338 143 235 143 l 646 143 z "},"b":{"ha":965,"x_min":106,"x_max":894,"o":"m 106 1051 l 253 1051 l 253 733 l 578 733 q 811 641 728 733 q 894 367 894 549 q 811 92 894 185 q 578 0 728 0 l 375 0 q 106 314 106 0 l 106 1051 m 563 592 l 253 592 l 253 321 q 291 185 253 226 q 418 143 329 143 l 563 143 q 702 196 658 143 q 746 367 746 249 q 702 538 746 485 q 563 592 658 592 z "},"c":{"ha":836,"x_min":71,"x_max":767,"o":"m 389 733 l 767 733 l 767 592 l 403 592 q 263 538 307 592 q 219 367 219 485 q 263 196 219 249 q 403 143 307 143 l 767 143 l 767 0 l 389 0 q 155 92 239 0 q 71 367 71 185 q 155 641 71 549 q 389 733 239 733 z "},"d":{"ha":965,"x_min":71,"x_max":861,"o":"m 713 1051 l 861 1051 l 861 314 q 592 0 861 0 l 389 0 q 155 92 239 0 q 71 367 71 185 q 155 641 71 549 q 389 733 239 733 l 713 733 l 713 1051 m 549 143 q 674 185 636 143 q 713 321 713 226 l 713 592 l 403 592 q 263 538 307 592 q 219 367 219 485 q 263 196 219 249 q 403 143 307 143 l 549 143 z "},"e":{"ha":906,"x_min":90,"x_max":831,"o":"m 346 733 l 583 733 q 831 508 831 733 q 772 351 831 404 q 582 297 714 297 l 233 297 l 233 244 q 346 143 233 143 l 794 143 l 794 0 l 346 0 q 153 65 215 0 q 90 242 90 131 l 90 492 q 153 668 90 603 q 346 733 215 733 m 233 490 l 233 413 l 578 413 q 686 500 686 413 q 582 592 686 592 l 346 592 q 261 564 289 592 q 233 490 233 536 z "},"f":{"ha":521,"x_min":32,"x_max":483,"o":"m 32 733 l 132 733 l 132 799 q 182 995 132 939 q 349 1051 232 1051 l 481 1051 l 481 917 l 379 917 q 303 892 326 917 q 281 807 281 868 l 281 733 l 483 733 l 483 592 l 281 592 l 281 0 l 132 0 l 132 592 l 32 592 l 32 733 z "},"g":{"ha":961,"x_min":71,"x_max":861,"o":"m 389 733 l 592 733 q 861 419 861 733 l 861 -3 q 799 -226 861 -160 q 583 -293 736 -293 l 147 -293 l 147 -151 l 567 -151 q 680 -117 647 -151 q 713 -3 713 -83 l 713 31 l 389 31 q 155 119 239 31 q 71 383 71 208 q 155 645 71 557 q 389 733 239 733 m 263 541 q 241 516 263 541 q 219 378 219 490 q 263 215 219 265 q 403 164 307 164 l 713 164 l 713 421 q 674 551 713 511 q 549 592 636 592 l 403 592 q 263 541 307 592 z "},"h":{"ha":982,"x_min":106,"x_max":881,"o":"m 106 1051 l 253 1051 l 253 733 l 511 733 q 787 650 693 733 q 881 413 881 567 l 881 0 l 732 0 l 732 413 q 511 592 732 592 l 253 592 l 253 0 l 106 0 l 106 1051 z "},"i":{"ha":358,"x_min":106,"x_max":254,"o":"m 106 733 l 253 733 l 253 0 l 106 0 l 106 733 m 106 1010 l 254 1010 l 254 839 l 106 839 l 106 1010 z "},"j":{"ha":375,"x_min":-75,"x_max":269,"o":"m 121 733 l 269 733 l 269 -42 q 219 -238 269 -182 q 54 -294 169 -294 l -75 -294 l -75 -153 l 21 -153 q 98 -128 75 -153 q 121 -43 121 -104 l 121 733 m 121 1010 l 269 1010 l 269 839 l 121 839 l 121 1010 z "},"k":{"ha":836,"x_min":106,"x_max":810,"o":"m 106 1051 l 253 1051 l 253 429 l 321 429 q 442 442 411 429 q 504 513 472 456 l 626 733 l 786 733 l 658 503 q 528 372 604 404 q 609 326 576 358 q 678 231 642 293 l 810 0 l 644 0 l 522 217 q 454 290 490 274 q 321 306 418 306 l 253 306 l 253 0 l 106 0 l 106 1051 z "},"l":{"ha":358,"x_min":106,"x_max":253,"o":"m 106 1051 l 253 1051 l 253 0 l 106 0 l 106 1051 z "},"m":{"ha":1433,"x_min":106,"x_max":1333,"o":"m 208 733 l 963 733 q 1240 650 1146 733 q 1333 413 1333 567 l 1333 0 l 1185 0 l 1185 413 q 964 592 1185 592 l 792 592 l 792 0 l 643 0 l 643 592 l 271 592 q 253 571 253 592 l 253 0 l 106 0 l 106 619 q 129 708 106 683 q 208 733 153 733 z "},"n":{"ha":982,"x_min":106,"x_max":881,"o":"m 208 733 l 511 733 q 788 650 694 733 q 881 413 881 567 l 881 0 l 732 0 l 732 413 q 511 592 732 592 l 271 592 q 253 571 253 592 l 253 0 l 106 0 l 106 619 q 129 708 106 683 q 208 733 153 733 z "},"o":{"ha":932,"x_min":71,"x_max":861,"o":"m 389 733 l 543 733 q 777 641 693 733 q 861 367 861 549 q 777 92 861 185 q 543 0 693 0 l 389 0 q 155 92 239 0 q 71 367 71 185 q 155 641 71 549 q 389 733 239 733 m 529 592 l 403 592 q 263 538 307 592 q 219 367 219 485 q 263 196 219 249 q 403 143 307 143 l 529 143 q 669 196 625 143 q 713 367 713 249 q 669 538 713 485 q 529 592 625 592 z "},"p":{"ha":963,"x_min":103,"x_max":892,"o":"m 372 733 l 575 733 q 808 641 725 733 q 892 367 892 549 q 808 92 892 185 q 575 0 725 0 l 250 0 l 250 -294 l 103 -294 l 103 419 q 372 733 103 733 m 250 413 l 250 143 l 560 143 q 699 196 656 143 q 743 367 743 249 q 699 538 743 485 q 560 592 656 592 l 415 592 q 288 550 326 592 q 250 413 250 508 z "},"q":{"ha":963,"x_min":71,"x_max":861,"o":"m 389 733 l 592 733 q 861 419 861 733 l 861 -294 l 713 -294 l 713 0 l 389 0 q 155 92 239 0 q 71 367 71 185 q 155 641 71 549 q 389 733 239 733 m 263 538 q 241 511 263 538 q 219 367 219 485 q 263 196 219 249 q 403 143 307 143 l 713 143 l 713 413 q 674 550 713 508 q 549 592 636 592 l 403 592 q 263 538 307 592 z "},"r":{"ha":643,"x_min":104,"x_max":604,"o":"m 303 733 l 604 733 l 604 592 l 346 592 q 251 497 251 592 l 251 0 l 104 0 l 104 519 q 150 683 104 632 q 303 733 196 733 z "},"s":{"ha":814,"x_min":71,"x_max":746,"o":"m 310 733 l 717 733 l 717 592 l 311 592 q 215 508 215 592 q 238 449 215 468 q 319 429 261 429 l 492 429 q 690 374 633 429 q 746 222 746 318 q 688 59 746 118 q 506 0 629 0 l 79 0 l 79 143 l 506 143 q 579 162 557 143 q 601 224 601 181 q 577 286 601 267 q 497 306 553 306 l 324 306 q 71 519 71 306 q 310 733 71 733 z "},"t":{"ha":521,"x_min":32,"x_max":483,"o":"m 32 733 l 132 733 l 132 907 l 281 907 l 281 733 l 483 733 l 483 592 l 281 592 l 281 244 q 303 159 281 183 q 379 135 326 135 l 481 135 l 481 0 l 349 0 q 182 56 232 0 q 132 253 132 113 l 132 592 l 32 592 l 32 733 z "},"u":{"ha":975,"x_min":101,"x_max":874,"o":"m 101 733 l 250 733 l 250 294 q 298 185 250 228 q 431 143 346 143 l 550 143 q 682 185 635 143 q 729 294 729 228 l 729 733 l 874 733 l 874 289 q 791 79 874 158 q 556 0 708 0 l 419 0 q 184 79 267 0 q 101 289 101 158 l 101 733 z "},"v":{"ha":940,"x_min":26,"x_max":914,"o":"m 26 733 l 182 733 l 426 144 q 463 122 435 122 q 501 144 492 122 l 756 733 l 914 733 l 631 79 q 463 -17 589 -17 q 296 79 335 -17 l 26 733 z "},"w":{"ha":1357,"x_min":42,"x_max":1315,"o":"m 42 733 l 201 733 l 267 161 q 319 114 272 114 q 374 154 363 114 l 478 599 q 679 747 511 747 q 875 599 842 747 l 974 154 q 1029 114 982 114 q 1079 161 1074 114 l 1156 733 l 1315 733 l 1233 153 q 1028 -17 1210 -17 q 831 135 864 -17 l 732 581 q 678 617 724 617 q 624 581 632 617 l 519 135 q 317 -17 485 -17 q 175 27 221 -17 q 118 153 129 71 l 42 733 z "},"x":{"ha":946,"x_min":26,"x_max":919,"o":"m 50 733 l 236 733 l 479 468 l 732 733 l 915 733 l 571 368 l 919 0 l 732 0 l 474 282 l 210 0 l 26 0 l 383 382 l 50 733 z "},"y":{"ha":899,"x_min":26,"x_max":872,"o":"m 715 733 l 872 733 l 431 -294 l 272 -294 l 410 26 q 321 47 350 26 q 272 117 292 67 l 26 733 l 182 733 l 403 188 q 418 163 410 168 q 447 157 426 157 l 467 157 l 715 733 z "},"z":{"ha":867,"x_min":71,"x_max":797,"o":"m 97 733 l 608 733 q 749 688 701 733 q 797 565 797 643 q 672 389 797 435 l 251 236 q 213 186 213 221 q 268 142 213 142 l 782 142 l 782 0 l 260 0 q 119 45 167 0 q 71 168 71 90 q 196 346 71 301 l 618 497 q 657 549 657 511 q 600 592 657 592 l 97 592 l 97 733 z "},"{":{"ha":547,"x_min":74,"x_max":508,"o":"m 461 1243 l 508 1243 l 508 1142 l 461 1142 q 365 1112 394 1142 q 336 1015 336 1082 l 336 617 q 263 438 336 489 q 336 260 336 389 l 336 -139 q 365 -235 336 -206 q 461 -265 394 -265 l 508 -265 l 508 -367 l 461 -367 q 289 -316 340 -367 q 238 -142 238 -265 l 238 260 q 144 388 238 388 l 74 388 l 74 489 l 144 489 q 238 617 238 489 l 238 1018 q 288 1192 238 1142 q 461 1243 339 1243 z "},"|":{"ha":401,"x_min":150,"x_max":251,"o":"m 150 1107 l 251 1107 l 251 -231 l 150 -231 l 150 1107 z "},"}":{"ha":547,"x_min":39,"x_max":474,"o":"m 86 -367 l 39 -367 l 39 -265 l 86 -265 q 182 -235 153 -265 q 211 -139 211 -206 l 211 260 q 285 439 211 388 q 211 617 211 488 l 211 1015 q 182 1112 211 1082 q 86 1142 153 1142 l 39 1142 l 39 1243 l 86 1243 q 258 1192 207 1243 q 310 1018 310 1142 l 310 617 q 403 489 310 489 l 474 489 l 474 388 l 403 388 q 310 260 310 388 l 310 -142 q 259 -316 310 -265 q 86 -367 208 -367 z "},"~":{"ha":860,"x_min":56,"x_max":803,"o":"m 56 381 l 56 496 q 231 576 117 576 q 326 561 282 576 q 444 511 371 546 q 632 458 564 458 q 721 479 683 458 q 803 553 758 500 l 803 438 q 628 357 742 357 q 555 367 592 357 q 492 387 518 376 q 414 422 467 397 q 228 476 297 476 q 138 456 176 476 q 56 381 100 435 z "}," ":{"ha":371,"x_min":0,"x_max":0,"o":""},"¡":{"ha":325,"x_min":79,"x_max":251,"o":"m 251 -231 l 79 -231 l 101 403 l 228 403 l 251 -231 m 244 544 l 86 544 l 86 733 l 244 733 l 244 544 z "},"¢":{"ha":861,"x_min":82,"x_max":778,"o":"m 400 824 l 443 824 l 443 1019 l 546 1019 l 546 824 l 778 824 l 778 682 l 414 682 q 274 628 318 682 q 231 456 231 575 q 274 286 231 339 q 414 233 318 233 l 778 233 l 778 90 l 546 90 l 546 -82 l 443 -82 l 443 90 l 400 90 q 166 183 250 90 q 82 456 82 275 q 166 731 82 638 q 400 824 250 824 z "},"£":{"ha":903,"x_min":53,"x_max":803,"o":"m 53 542 l 221 542 l 221 614 q 306 850 221 763 q 568 938 390 938 l 800 938 l 800 774 l 579 774 q 386 613 386 774 l 386 542 l 794 542 l 794 418 l 386 418 l 386 164 l 803 164 l 803 0 l 53 0 l 53 164 l 221 164 l 221 418 l 53 418 l 53 542 z "},"¤":{"ha":913,"x_min":60,"x_max":847,"o":"m 413 781 l 496 781 q 649 744 585 781 l 775 871 l 847 800 l 721 674 q 769 476 769 600 q 722 279 769 354 l 846 156 l 775 83 l 649 210 q 496 175 588 175 l 413 175 q 258 210 319 175 l 132 85 l 61 156 l 185 279 q 138 476 138 354 q 185 674 138 601 l 60 799 l 132 871 l 258 744 q 413 781 322 781 m 500 678 l 408 678 q 280 631 319 678 q 240 478 240 583 q 280 325 240 372 q 408 278 319 278 l 500 278 q 628 325 589 278 q 667 478 667 372 q 627 631 667 583 q 500 678 588 678 z "},"¥":{"ha":957,"x_min":18,"x_max":939,"o":"m 18 938 l 217 938 l 479 536 l 744 938 l 939 938 l 594 451 l 879 451 l 879 367 l 561 367 l 561 233 l 879 233 l 879 149 l 561 149 l 561 0 l 396 0 l 396 149 l 78 149 l 78 233 l 396 233 l 396 367 l 78 367 l 78 451 l 363 451 l 18 938 z "},"¦":{"ha":401,"x_min":150,"x_max":251,"o":"m 150 1107 l 251 1107 l 251 532 l 150 532 l 150 1107 m 150 344 l 251 344 l 251 -231 l 150 -231 l 150 344 z "},"§":{"ha":921,"x_min":58,"x_max":849,"o":"m 325 938 l 814 938 l 814 796 l 326 796 q 206 692 206 796 q 232 612 206 642 q 311 582 258 582 l 550 582 q 678 541 640 582 q 717 411 717 500 l 717 208 q 816 123 783 183 q 849 -18 849 63 q 783 -194 849 -131 q 581 -258 718 -258 l 93 -258 l 93 -117 l 581 -117 q 701 -12 701 -117 q 674 67 701 36 q 596 97 647 97 l 357 97 q 228 138 267 97 q 190 268 190 179 l 190 469 q 58 697 58 519 q 124 874 58 810 q 325 938 189 938 m 513 454 l 317 454 l 317 300 q 393 225 317 225 l 590 225 l 590 379 q 513 454 590 454 z "},"¨":{"ha":636,"x_min":75,"x_max":557,"o":"m 75 1010 l 224 1010 l 224 839 l 75 839 l 75 1010 m 408 1010 l 557 1010 l 557 839 l 408 839 l 408 1010 z "},"©":{"ha":1133,"x_min":79,"x_max":1054,"o":"m 503 936 l 631 936 q 946 818 838 936 q 1054 467 1054 700 q 946 116 1054 233 q 631 -1 838 -1 l 503 -1 q 188 116 296 -1 q 79 467 79 233 q 188 818 79 700 q 503 936 296 936 m 631 844 l 503 844 q 255 750 340 844 q 169 467 169 656 q 255 184 169 278 q 503 90 340 90 l 631 90 q 963 467 963 90 q 631 844 963 844 m 546 722 l 738 722 l 738 636 l 546 636 q 441 597 474 636 q 408 474 408 558 q 441 351 408 389 q 546 313 474 313 l 738 313 l 738 226 l 546 226 q 321 474 321 226 q 546 722 321 722 z "},"ª":{"ha":658,"x_min":81,"x_max":572,"o":"m 111 938 l 401 938 q 572 772 572 938 l 572 543 q 551 460 572 483 q 465 436 529 436 l 242 436 q 81 586 81 436 q 119 692 81 657 q 243 728 157 728 l 474 728 l 474 771 q 401 840 474 840 l 111 840 l 111 938 m 443 533 q 474 565 474 533 l 474 649 l 244 649 q 179 592 179 649 q 243 533 179 533 l 443 533 z "},"«":{"ha":583,"x_min":42,"x_max":542,"o":"m 443 758 l 542 758 l 371 404 q 364 379 364 393 q 371 354 364 368 l 542 0 l 443 0 l 286 317 q 274 379 274 343 q 286 442 274 414 l 443 758 m 211 758 l 310 758 l 139 404 q 132 379 132 393 q 139 354 132 368 l 310 0 l 211 0 l 54 317 q 42 379 42 343 q 54 442 42 414 l 211 758 z "},"¬":{"ha":860,"x_min":56,"x_max":803,"o":"m 56 543 l 803 543 l 803 0 l 701 0 l 701 442 l 56 442 l 56 543 z "},"­":{"ha":576,"x_min":40,"x_max":536,"o":"m 40 511 l 536 511 l 536 369 l 40 369 l 40 511 z "},"®":{"ha":1133,"x_min":79,"x_max":1054,"o":"m 503 936 l 631 936 q 946 818 838 936 q 1054 467 1054 700 q 946 116 1054 233 q 631 -1 838 -1 l 503 -1 q 188 116 296 -1 q 79 467 79 233 q 188 818 79 700 q 503 936 296 936 m 631 844 l 503 844 q 255 750 340 844 q 169 467 169 656 q 255 184 169 278 q 503 90 340 90 l 631 90 q 963 467 963 90 q 631 844 963 844 m 354 726 l 624 726 q 744 685 704 726 q 783 578 783 643 q 758 485 783 526 q 678 429 732 444 l 793 231 l 697 231 l 583 422 l 454 422 q 442 410 442 422 l 442 231 l 356 231 l 356 426 q 374 488 356 469 q 433 506 392 506 l 626 506 q 678 526 661 506 q 696 575 696 546 q 678 622 696 603 q 626 640 661 640 l 354 640 l 354 726 z "},"¯":{"ha":796,"x_min":75,"x_max":713,"o":"m 75 996 l 713 996 l 713 872 l 75 872 l 75 996 z "},"°":{"ha":540,"x_min":47,"x_max":506,"o":"m 231 954 l 321 954 q 457 899 408 954 q 506 733 506 843 q 457 568 506 624 q 321 513 408 513 l 231 513 q 95 568 143 513 q 47 733 47 624 q 95 899 47 843 q 231 954 143 954 m 313 867 l 239 867 q 161 835 185 867 q 138 733 138 804 q 161 632 138 663 q 239 601 185 601 l 313 601 q 390 632 365 601 q 414 733 414 663 q 390 835 414 804 q 313 867 365 867 z "},"±":{"ha":860,"x_min":56,"x_max":803,"o":"m 378 939 l 481 939 l 481 614 l 803 614 l 803 513 l 481 513 l 481 192 l 378 192 l 378 513 l 56 513 l 56 614 l 378 614 l 378 939 m 56 126 l 803 126 l 803 25 l 56 25 l 56 126 z "},"²":{"ha":547,"x_min":40,"x_max":508,"o":"m 57 938 l 353 938 q 468 901 428 938 q 508 794 508 864 q 388 651 508 679 l 174 603 q 144 588 153 599 q 136 549 136 576 l 136 531 q 147 518 136 518 l 494 518 l 494 422 l 90 422 q 40 471 40 422 l 40 542 q 66 646 40 613 q 154 693 92 679 l 369 743 q 414 792 414 753 q 401 830 414 818 q 354 842 388 842 l 57 842 l 57 938 z "},"³":{"ha":547,"x_min":57,"x_max":490,"o":"m 57 938 l 324 938 q 488 800 488 938 q 424 681 488 711 q 490 560 490 647 q 325 422 490 422 l 57 422 l 57 518 l 325 518 q 376 532 361 518 q 390 579 390 546 q 376 623 390 610 q 324 636 361 636 l 158 636 l 158 724 l 322 724 q 374 738 360 724 q 388 782 388 751 q 374 828 388 814 q 324 842 360 842 l 57 842 l 57 938 z "},"´":{"ha":478,"x_min":35,"x_max":354,"o":"m 190 1079 l 354 1079 l 181 781 l 35 781 l 190 1079 z "},"¶":{"ha":1018,"x_min":63,"x_max":908,"o":"m 346 1051 l 750 1051 q 872 1010 835 1051 q 908 885 908 969 l 908 -297 l 782 -297 l 782 840 q 713 910 782 910 l 346 910 q 210 789 210 910 q 240 699 210 733 q 329 665 269 665 l 411 665 q 527 628 492 665 q 563 513 563 590 l 563 -294 l 436 -294 l 436 482 q 375 538 436 538 l 301 538 q 122 610 182 538 q 63 796 63 682 q 132 983 63 915 q 346 1051 201 1051 z "},"·":{"ha":336,"x_min":89,"x_max":247,"o":"m 89 539 l 247 539 l 247 350 l 89 350 l 89 539 z "},"¸":{"ha":374,"x_min":75,"x_max":290,"o":"m 143 -33 l 290 -33 l 290 -182 q 121 -367 290 -367 l 75 -367 l 75 -256 l 92 -256 q 143 -197 143 -256 l 143 -33 z "},"¹":{"ha":547,"x_min":142,"x_max":388,"o":"m 142 938 l 256 938 q 361 909 335 938 q 388 803 388 881 l 388 422 l 293 422 l 293 796 q 284 832 293 822 q 247 842 275 842 l 142 842 l 142 938 z "},"º":{"ha":665,"x_min":69,"x_max":593,"o":"m 279 938 l 383 938 q 538 874 482 938 q 593 686 593 811 q 538 499 593 563 q 383 436 483 436 l 279 436 q 125 499 181 436 q 69 686 69 563 q 125 874 69 810 q 279 938 181 938 m 374 840 l 289 840 q 199 803 228 840 q 171 686 171 767 q 199 570 171 607 q 289 533 228 533 l 374 533 q 463 569 435 533 q 490 686 490 606 q 463 803 490 767 q 374 840 435 840 z "},"»":{"ha":583,"x_min":42,"x_max":542,"o":"m 274 758 l 371 758 l 529 442 q 542 379 542 414 q 529 317 542 349 l 371 0 l 274 0 l 444 354 q 450 379 450 371 q 444 404 450 390 l 274 758 m 42 758 l 139 758 l 297 442 q 310 379 310 414 q 297 317 310 349 l 139 0 l 42 0 l 213 354 q 218 379 218 371 q 213 404 218 390 l 42 758 z "},"¼":{"ha":1201,"x_min":107,"x_max":1088,"o":"m 879 938 l 989 938 l 256 0 l 143 0 l 879 938 m 107 938 l 221 938 q 326 909 300 938 q 353 803 353 881 l 353 422 l 258 422 l 258 796 q 249 832 258 822 q 213 842 239 842 l 107 842 l 107 938 m 672 282 l 818 457 q 869 502 843 489 q 938 515 894 515 l 996 515 q 1088 422 1088 515 l 1088 0 l 992 0 l 992 111 l 758 111 q 640 199 640 111 q 672 282 640 243 m 892 401 l 754 236 q 746 215 746 228 q 775 196 746 196 l 992 196 l 992 400 q 975 419 992 419 l 935 419 q 892 401 907 419 z "},"½":{"ha":1201,"x_min":69,"x_max":1131,"o":"m 842 938 l 951 938 l 218 0 l 106 0 l 842 938 m 69 938 l 183 938 q 289 909 263 938 q 315 803 315 881 l 315 422 l 221 422 l 221 796 q 212 832 221 822 q 175 842 203 842 l 69 842 l 69 938 m 679 515 l 975 515 q 1090 478 1050 515 q 1131 372 1131 442 q 1010 229 1131 257 l 796 181 q 767 165 775 176 q 758 126 758 154 l 758 108 q 769 96 758 96 l 1117 96 l 1117 0 l 713 0 q 663 49 663 0 l 663 119 q 688 224 663 190 q 776 271 714 257 l 992 321 q 1036 369 1036 331 q 1023 408 1036 396 q 976 419 1010 419 l 679 419 l 679 515 z "},"¾":{"ha":1201,"x_min":58,"x_max":1138,"o":"m 929 938 l 1039 938 l 306 0 l 193 0 l 929 938 m 722 282 l 868 457 q 919 502 893 489 q 988 515 944 515 l 1046 515 q 1138 422 1138 515 l 1138 0 l 1042 0 l 1042 111 l 808 111 q 690 199 690 111 q 722 282 690 243 m 942 401 l 804 236 q 796 215 796 228 q 825 196 796 196 l 1042 196 l 1042 400 q 1025 419 1042 419 l 985 419 q 942 401 957 419 m 58 938 l 325 938 q 489 800 489 938 q 425 681 489 711 q 492 560 492 647 q 326 422 492 422 l 58 422 l 58 518 l 326 518 q 377 532 363 518 q 392 579 392 546 q 377 623 392 610 q 325 636 363 636 l 160 636 l 160 724 l 324 724 q 375 738 361 724 q 389 782 389 751 q 375 828 389 814 q 325 842 361 842 l 58 842 l 58 938 z "},"¿":{"ha":790,"x_min":40,"x_max":740,"o":"m 740 -231 l 310 -231 q 106 -166 171 -231 q 40 11 40 -101 q 97 189 40 119 q 267 258 154 258 l 347 258 q 414 324 414 258 l 414 403 l 540 403 l 540 293 q 503 170 540 211 q 385 129 467 129 l 294 129 q 213 99 240 129 q 186 18 186 68 q 310 -89 186 -89 l 740 -89 l 740 -231 m 556 544 l 397 544 l 397 733 l 556 733 l 556 544 z "},"À":{"ha":1089,"x_min":26,"x_max":1064,"o":"m 504 754 l 207 0 l 26 0 l 356 833 q 553 954 404 954 q 747 833 701 954 l 1064 0 l 882 0 l 597 754 q 551 786 585 786 q 504 754 518 786 m 371 1283 l 535 1283 l 690 985 l 543 985 l 371 1283 z "},"Á":{"ha":1089,"x_min":26,"x_max":1064,"o":"m 504 754 l 207 0 l 26 0 l 356 833 q 553 954 404 954 q 747 833 701 954 l 1064 0 l 882 0 l 597 754 q 551 786 585 786 q 504 754 518 786 m 558 1283 l 722 1283 l 549 985 l 403 985 l 558 1283 z "},"Â":{"ha":1089,"x_min":26,"x_max":1064,"o":"m 504 754 l 207 0 l 26 0 l 356 833 q 553 954 404 954 q 747 833 701 954 l 1064 0 l 882 0 l 597 754 q 551 786 585 786 q 504 754 518 786 m 271 985 l 396 1213 q 549 1283 432 1283 q 699 1213 661 1283 l 825 985 l 668 985 l 575 1158 q 547 1171 569 1171 q 519 1158 526 1171 l 428 985 l 271 985 z "},"Ã":{"ha":1089,"x_min":26,"x_max":1064,"o":"m 504 754 l 207 0 l 26 0 l 356 833 q 553 954 404 954 q 747 833 701 954 l 1064 0 l 882 0 l 597 754 q 551 786 585 786 q 504 754 518 786 m 226 1200 l 864 1200 l 864 1076 l 226 1076 l 226 1200 z "},"Ä":{"ha":1089,"x_min":26,"x_max":1064,"o":"m 504 754 l 207 0 l 26 0 l 356 833 q 553 954 404 954 q 747 833 701 954 l 1064 0 l 882 0 l 597 754 q 551 786 585 786 q 504 754 518 786 m 307 1214 l 456 1214 l 456 1043 l 307 1043 l 307 1214 m 640 1214 l 789 1214 l 789 1043 l 640 1043 l 640 1214 z "},"Å":{"ha":1089,"x_min":26,"x_max":1064,"o":"m 504 754 l 207 0 l 26 0 l 356 833 q 553 954 404 954 q 747 833 701 954 l 1064 0 l 882 0 l 597 754 q 551 786 585 786 q 504 754 518 786 m 497 1283 l 593 1283 q 695 1243 658 1283 q 732 1124 732 1203 q 695 1004 732 1044 q 593 964 658 964 l 497 964 q 395 1004 432 964 q 358 1124 358 1044 q 394 1243 358 1203 q 497 1283 431 1283 m 583 1213 l 506 1213 q 451 1192 468 1213 q 435 1124 435 1171 q 451 1057 435 1078 q 506 1036 468 1036 l 583 1036 q 654 1124 654 1036 q 583 1213 654 1213 z "},"Æ":{"ha":1403,"x_min":26,"x_max":1303,"o":"m 490 756 l 203 0 l 26 0 l 325 781 q 408 910 356 867 q 554 954 461 954 q 654 938 613 954 l 1301 938 l 1301 774 l 768 774 q 769 762 768 769 q 769 750 769 754 l 769 544 l 1294 544 l 1294 396 l 769 396 l 769 319 q 961 164 769 164 l 1303 164 l 1303 0 l 951 0 q 689 85 772 0 q 606 318 606 169 l 606 742 q 591 781 606 767 q 550 796 576 796 q 490 756 507 796 z "},"Ç":{"ha":947,"x_min":79,"x_max":865,"o":"m 503 938 l 865 938 l 865 774 l 503 774 q 305 701 367 774 q 243 468 243 629 q 305 236 243 308 q 503 164 367 164 l 865 164 l 865 0 l 503 0 q 188 117 296 0 q 79 468 79 235 q 188 819 79 701 q 503 938 296 938 m 481 -33 l 628 -33 l 628 -182 q 458 -367 628 -367 l 413 -367 l 413 -256 l 429 -256 q 481 -197 481 -256 l 481 -33 z "},"È":{"ha":963,"x_min":76,"x_max":864,"o":"m 393 938 l 863 938 l 863 774 l 393 774 q 251 656 251 774 q 394 544 251 544 l 856 544 l 856 396 l 390 396 q 247 282 247 396 q 389 164 247 164 l 864 164 l 864 0 l 389 0 q 153 69 231 0 q 76 256 76 139 q 211 471 76 414 q 79 682 79 525 q 156 869 79 800 q 393 938 233 938 m 367 1283 l 531 1283 l 686 985 l 539 985 l 367 1283 z "},"É":{"ha":963,"x_min":76,"x_max":864,"o":"m 393 938 l 863 938 l 863 774 l 393 774 q 251 656 251 774 q 394 544 251 544 l 856 544 l 856 396 l 390 396 q 247 282 247 396 q 389 164 247 164 l 864 164 l 864 0 l 389 0 q 153 69 231 0 q 76 256 76 139 q 211 471 76 414 q 79 682 79 525 q 156 869 79 800 q 393 938 233 938 m 553 1283 l 717 1283 l 543 985 l 397 985 l 553 1283 z "},"Ê":{"ha":963,"x_min":76,"x_max":864,"o":"m 393 938 l 863 938 l 863 774 l 393 774 q 251 656 251 774 q 394 544 251 544 l 856 544 l 856 396 l 390 396 q 247 282 247 396 q 389 164 247 164 l 864 164 l 864 0 l 389 0 q 153 69 231 0 q 76 256 76 139 q 211 471 76 414 q 79 682 79 525 q 156 869 79 800 q 393 938 233 938 m 260 985 l 385 1213 q 538 1283 421 1283 q 688 1213 650 1283 l 814 985 l 657 985 l 564 1158 q 536 1171 558 1171 q 508 1158 515 1171 l 417 985 l 260 985 z "},"Ë":{"ha":963,"x_min":76,"x_max":864,"o":"m 393 938 l 863 938 l 863 774 l 393 774 q 251 656 251 774 q 394 544 251 544 l 856 544 l 856 396 l 390 396 q 247 282 247 396 q 389 164 247 164 l 864 164 l 864 0 l 389 0 q 153 69 231 0 q 76 256 76 139 q 211 471 76 414 q 79 682 79 525 q 156 869 79 800 q 393 938 233 938 m 299 1214 l 447 1214 l 447 1043 l 299 1043 l 299 1214 m 632 1214 l 781 1214 l 781 1043 l 632 1043 l 632 1214 z "},"Ì":{"ha":407,"x_min":38,"x_max":357,"o":"m 131 938 l 294 938 l 294 0 l 131 0 l 131 938 m 38 1283 l 201 1283 l 357 985 l 210 985 l 38 1283 z "},"Í":{"ha":410,"x_min":53,"x_max":372,"o":"m 114 938 l 278 938 l 278 0 l 114 0 l 114 938 m 208 1283 l 372 1283 l 199 985 l 53 985 l 208 1283 z "},"Î":{"ha":497,"x_min":-28,"x_max":526,"o":"m 167 938 l 331 938 l 331 0 l 167 0 l 167 938 m -28 985 l 97 1213 q 250 1283 133 1283 q 400 1213 363 1283 l 526 985 l 369 985 l 276 1158 q 249 1171 269 1171 q 221 1158 228 1171 l 129 985 l -28 985 z "},"Ï":{"ha":442,"x_min":-21,"x_max":461,"o":"m 144 938 l 308 938 l 308 0 l 144 0 l 144 938 m -21 1214 l 128 1214 l 128 1043 l -21 1043 l -21 1214 m 313 1214 l 461 1214 l 461 1043 l 313 1043 l 313 1214 z "},"Ð":{"ha":1024,"x_min":15,"x_max":944,"o":"m 192 938 l 522 938 q 944 468 944 938 q 522 0 944 0 l 192 0 q 114 76 114 0 l 114 396 l 15 396 l 15 544 l 114 544 l 114 861 q 192 938 114 938 m 278 757 l 278 544 l 528 544 l 528 396 l 278 396 l 278 181 q 296 164 278 164 l 522 164 q 719 236 658 164 q 781 469 781 308 q 719 702 781 631 q 522 774 658 774 l 296 774 q 278 757 278 774 z "},"Ñ":{"ha":1221,"x_min":113,"x_max":1110,"o":"m 276 742 l 276 0 l 113 0 l 113 750 q 167 899 113 844 q 328 954 221 954 q 472 910 421 954 q 556 781 524 867 l 829 182 q 889 143 849 143 q 930 158 915 143 q 944 196 944 172 l 944 938 l 1110 938 l 1110 189 q 1055 38 1110 93 q 894 -17 1000 -17 q 749 27 801 -17 q 665 157 697 71 l 392 756 q 333 796 374 796 q 276 742 276 796 m 292 1200 l 929 1200 l 929 1076 l 292 1076 l 292 1200 z "},"Ò":{"ha":1133,"x_min":79,"x_max":1054,"o":"m 503 938 l 631 938 q 946 819 838 938 q 1054 467 1054 701 q 946 117 1054 233 q 631 0 838 0 l 503 0 q 188 117 296 0 q 79 467 79 233 q 188 819 79 701 q 503 938 296 938 m 631 774 l 503 774 q 305 701 367 774 q 243 467 243 628 q 305 235 243 307 q 503 164 367 164 l 631 164 q 828 235 767 164 q 889 468 889 307 q 828 701 889 628 q 631 774 767 774 m 389 1283 l 553 1283 l 708 985 l 561 985 l 389 1283 z "},"Ó":{"ha":1133,"x_min":79,"x_max":1054,"o":"m 503 938 l 631 938 q 946 819 838 938 q 1054 467 1054 701 q 946 117 1054 233 q 631 0 838 0 l 503 0 q 188 117 296 0 q 79 467 79 233 q 188 819 79 701 q 503 938 296 938 m 631 774 l 503 774 q 305 701 367 774 q 243 467 243 628 q 305 235 243 307 q 503 164 367 164 l 631 164 q 828 235 767 164 q 889 468 889 307 q 828 701 889 628 q 631 774 767 774 m 579 1283 l 743 1283 l 569 985 l 424 985 l 579 1283 z "},"Ô":{"ha":1133,"x_min":79,"x_max":1054,"o":"m 503 938 l 631 938 q 946 819 838 938 q 1054 467 1054 701 q 946 117 1054 233 q 631 0 838 0 l 503 0 q 188 117 296 0 q 79 467 79 233 q 188 819 79 701 q 503 938 296 938 m 631 774 l 503 774 q 305 701 367 774 q 243 467 243 628 q 305 235 243 307 q 503 164 367 164 l 631 164 q 828 235 767 164 q 889 468 889 307 q 828 701 889 628 q 631 774 767 774 m 289 985 l 414 1213 q 567 1283 450 1283 q 717 1213 679 1283 l 843 985 l 686 985 l 593 1158 q 565 1171 586 1171 q 538 1158 544 1171 l 446 985 l 289 985 z "},"Õ":{"ha":1133,"x_min":79,"x_max":1054,"o":"m 503 938 l 631 938 q 946 819 838 938 q 1054 467 1054 701 q 946 117 1054 233 q 631 0 838 0 l 503 0 q 188 117 296 0 q 79 467 79 233 q 188 819 79 701 q 503 938 296 938 m 631 774 l 503 774 q 305 701 367 774 q 243 467 243 628 q 305 235 243 307 q 503 164 367 164 l 631 164 q 828 235 767 164 q 889 468 889 307 q 828 701 889 628 q 631 774 767 774 m 247 1200 l 885 1200 l 885 1076 l 247 1076 l 247 1200 z "},"Ö":{"ha":1133,"x_min":79,"x_max":1054,"o":"m 503 938 l 631 938 q 946 819 838 938 q 1054 467 1054 701 q 946 117 1054 233 q 631 0 838 0 l 503 0 q 188 117 296 0 q 79 467 79 233 q 188 819 79 701 q 503 938 296 938 m 631 774 l 503 774 q 305 701 367 774 q 243 467 243 628 q 305 235 243 307 q 503 164 367 164 l 631 164 q 828 235 767 164 q 889 468 889 307 q 828 701 889 628 q 631 774 767 774 m 325 1214 l 474 1214 l 474 1043 l 325 1043 l 325 1214 m 658 1214 l 807 1214 l 807 1043 l 658 1043 l 658 1214 z "},"×":{"ha":860,"x_min":106,"x_max":753,"o":"m 178 790 l 429 540 l 682 790 l 753 719 l 500 467 l 751 217 l 681 144 l 429 396 l 178 146 l 106 217 l 357 467 l 106 719 l 178 790 z "},"Ø":{"ha":1133,"x_min":79,"x_max":1054,"o":"m 503 938 l 631 938 q 775 919 706 938 l 843 1033 l 961 1033 l 869 881 q 1054 467 1054 772 q 946 117 1054 233 q 631 0 838 0 l 503 0 q 358 17 422 0 l 292 -96 l 172 -96 l 263 56 q 79 467 79 163 q 188 819 79 701 q 503 938 296 938 m 631 774 l 503 774 q 305 701 367 774 q 243 467 243 628 q 347 199 243 261 l 686 769 q 631 774 661 774 m 889 468 q 785 738 889 672 l 447 167 q 503 164 481 164 l 631 164 q 828 235 767 164 q 889 468 889 307 z "},"Ù":{"ha":1017,"x_min":107,"x_max":911,"o":"m 107 938 l 274 938 l 274 311 q 429 164 274 164 l 596 164 q 750 311 750 164 l 750 938 l 911 938 l 911 299 q 607 0 911 0 l 410 0 q 107 299 107 0 l 107 938 m 332 1283 l 496 1283 l 651 985 l 504 985 l 332 1283 z "},"Ú":{"ha":1017,"x_min":107,"x_max":911,"o":"m 107 938 l 274 938 l 274 311 q 429 164 274 164 l 596 164 q 750 311 750 164 l 750 938 l 911 938 l 911 299 q 607 0 911 0 l 410 0 q 107 299 107 0 l 107 938 m 521 1283 l 685 1283 l 511 985 l 365 985 l 521 1283 z "},"Û":{"ha":1017,"x_min":107,"x_max":911,"o":"m 107 938 l 274 938 l 274 311 q 429 164 274 164 l 596 164 q 750 311 750 164 l 750 938 l 911 938 l 911 299 q 607 0 911 0 l 410 0 q 107 299 107 0 l 107 938 m 231 985 l 356 1213 q 508 1283 392 1283 q 658 1213 621 1283 l 785 985 l 628 985 l 535 1158 q 507 1171 528 1171 q 479 1158 486 1171 l 388 985 l 231 985 z "},"Ü":{"ha":1017,"x_min":107,"x_max":911,"o":"m 107 938 l 274 938 l 274 311 q 429 164 274 164 l 596 164 q 750 311 750 164 l 750 938 l 911 938 l 911 299 q 607 0 911 0 l 410 0 q 107 299 107 0 l 107 938 m 268 1214 l 417 1214 l 417 1043 l 268 1043 l 268 1214 m 601 1214 l 750 1214 l 750 1043 l 601 1043 l 601 1214 z "},"Ý":{"ha":957,"x_min":18,"x_max":939,"o":"m 18 938 l 217 938 l 479 536 l 744 938 l 939 938 l 561 404 l 561 0 l 396 0 l 396 404 l 18 938 m 490 1283 l 654 1283 l 481 985 l 335 985 l 490 1283 z "},"Þ":{"ha":976,"x_min":113,"x_max":893,"o":"m 113 938 l 276 938 l 276 835 q 333 781 276 781 l 581 781 q 816 690 739 781 q 893 474 893 600 q 816 258 893 347 q 581 168 739 168 l 333 168 q 276 101 276 168 l 276 0 l 113 0 l 113 132 q 154 280 113 235 q 293 325 196 325 l 586 325 q 692 367 657 325 q 728 474 728 410 q 692 580 728 538 q 586 622 657 622 l 293 622 q 155 665 197 622 q 113 803 113 707 l 113 938 z "},"ß":{"ha":1186,"x_min":106,"x_max":1115,"o":"m 342 1051 l 488 1051 q 651 997 601 1051 q 701 822 701 942 l 701 699 q 763 631 701 631 l 818 631 q 1042 553 969 631 q 1115 315 1115 475 q 1042 77 1115 154 q 818 0 968 0 l 494 0 l 494 143 l 800 143 q 928 183 889 143 q 967 315 967 224 q 928 449 967 408 q 800 489 890 489 l 719 489 q 592 534 631 489 q 553 675 553 579 l 553 807 q 527 890 553 864 q 444 917 501 917 l 374 917 q 281 887 308 917 q 253 783 253 857 l 253 0 l 106 0 l 106 775 q 160 990 106 929 q 342 1051 215 1051 z "},"à":{"ha":933,"x_min":90,"x_max":831,"o":"m 135 733 l 575 733 q 768 668 706 733 q 831 492 831 603 l 831 147 q 800 33 831 65 q 679 0 769 0 l 336 0 q 90 224 90 0 q 149 381 90 328 q 338 435 207 435 l 686 435 l 686 490 q 658 564 686 536 q 574 592 631 592 l 135 592 l 135 733 m 646 143 q 686 181 686 143 l 686 318 l 340 318 q 235 232 235 318 q 338 143 235 143 l 646 143 m 297 1079 l 461 1079 l 617 781 l 469 781 l 297 1079 z "},"á":{"ha":933,"x_min":90,"x_max":831,"o":"m 135 733 l 575 733 q 768 668 706 733 q 831 492 831 603 l 831 147 q 800 33 831 65 q 679 0 769 0 l 336 0 q 90 224 90 0 q 149 381 90 328 q 338 435 207 435 l 686 435 l 686 490 q 658 564 686 536 q 574 592 631 592 l 135 592 l 135 733 m 646 143 q 686 181 686 143 l 686 318 l 340 318 q 235 232 235 318 q 338 143 235 143 l 646 143 m 478 1079 l 642 1079 l 468 781 l 322 781 l 478 1079 z "},"â":{"ha":933,"x_min":90,"x_max":831,"o":"m 135 733 l 575 733 q 768 668 706 733 q 831 492 831 603 l 831 147 q 800 33 831 65 q 679 0 769 0 l 336 0 q 90 224 90 0 q 149 381 90 328 q 338 435 207 435 l 686 435 l 686 490 q 658 564 686 536 q 574 592 631 592 l 135 592 l 135 733 m 646 143 q 686 181 686 143 l 686 318 l 340 318 q 235 232 235 318 q 338 143 235 143 l 646 143 m 194 781 l 319 1008 q 472 1079 356 1079 q 622 1008 585 1079 l 749 781 l 592 781 l 499 954 q 471 967 492 967 q 443 954 450 967 l 351 781 l 194 781 z "},"ã":{"ha":933,"x_min":90,"x_max":831,"o":"m 135 733 l 575 733 q 768 668 706 733 q 831 492 831 603 l 831 147 q 800 33 831 65 q 679 0 769 0 l 336 0 q 90 224 90 0 q 149 381 90 328 q 338 435 207 435 l 686 435 l 686 490 q 658 564 686 536 q 574 592 631 592 l 135 592 l 135 733 m 646 143 q 686 181 686 143 l 686 318 l 340 318 q 235 232 235 318 q 338 143 235 143 l 646 143 m 147 996 l 785 996 l 785 872 l 147 872 l 147 996 z "},"ä":{"ha":933,"x_min":90,"x_max":831,"o":"m 135 733 l 575 733 q 768 668 706 733 q 831 492 831 603 l 831 147 q 800 33 831 65 q 679 0 769 0 l 336 0 q 90 224 90 0 q 149 381 90 328 q 338 435 207 435 l 686 435 l 686 490 q 658 564 686 536 q 574 592 631 592 l 135 592 l 135 733 m 646 143 q 686 181 686 143 l 686 318 l 340 318 q 235 232 235 318 q 338 143 235 143 l 646 143 m 225 1010 l 374 1010 l 374 839 l 225 839 l 225 1010 m 558 1010 l 707 1010 l 707 839 l 558 839 l 558 1010 z "},"å":{"ha":933,"x_min":90,"x_max":831,"o":"m 135 733 l 575 733 q 768 668 706 733 q 831 492 831 603 l 831 147 q 800 33 831 65 q 679 0 769 0 l 336 0 q 90 224 90 0 q 149 381 90 328 q 338 435 207 435 l 686 435 l 686 490 q 658 564 686 536 q 574 592 631 592 l 135 592 l 135 733 m 646 143 q 686 181 686 143 l 686 318 l 340 318 q 235 232 235 318 q 338 143 235 143 l 646 143 m 418 1119 l 514 1119 q 616 1079 579 1119 q 653 960 653 1039 q 616 840 653 881 q 514 800 579 800 l 418 800 q 316 840 353 800 q 279 960 279 881 q 315 1079 279 1039 q 418 1119 351 1119 m 504 1049 l 426 1049 q 372 1028 389 1049 q 356 960 356 1007 q 372 893 356 914 q 426 872 389 872 l 504 872 q 575 960 575 872 q 504 1049 575 1049 z "},"æ":{"ha":1504,"x_min":90,"x_max":1431,"o":"m 946 733 l 1183 733 q 1431 508 1431 733 q 1372 351 1431 404 q 1182 297 1314 297 l 833 297 l 833 244 q 946 143 833 143 l 1394 143 l 1394 0 l 946 0 q 799 31 857 0 q 679 0 764 0 l 336 0 q 90 224 90 0 q 149 381 90 328 q 338 435 207 435 l 686 435 l 686 490 q 658 564 686 536 q 574 592 631 592 l 135 592 l 135 733 l 575 733 q 760 675 694 733 q 946 733 826 733 m 833 490 l 833 413 l 1178 413 q 1286 500 1286 413 q 1182 592 1286 592 l 946 592 q 861 564 889 592 q 833 490 833 536 m 646 143 q 686 181 686 143 l 686 318 l 340 318 q 235 232 235 318 q 338 143 235 143 l 646 143 z "},"ç":{"ha":836,"x_min":71,"x_max":767,"o":"m 389 733 l 767 733 l 767 592 l 403 592 q 263 538 307 592 q 219 367 219 485 q 263 196 219 249 q 403 143 307 143 l 767 143 l 767 0 l 389 0 q 155 92 239 0 q 71 367 71 185 q 155 641 71 549 q 389 733 239 733 m 417 -33 l 564 -33 l 564 -182 q 394 -367 564 -367 l 349 -367 l 349 -256 l 365 -256 q 417 -197 417 -256 l 417 -33 z "},"è":{"ha":906,"x_min":90,"x_max":831,"o":"m 346 733 l 583 733 q 831 508 831 733 q 772 351 831 404 q 582 297 714 297 l 233 297 l 233 244 q 346 143 233 143 l 794 143 l 794 0 l 346 0 q 153 65 215 0 q 90 242 90 131 l 90 492 q 153 668 90 603 q 346 733 215 733 m 233 490 l 233 413 l 578 413 q 686 500 686 413 q 582 592 686 592 l 346 592 q 261 564 289 592 q 233 490 233 536 m 288 1079 l 451 1079 l 607 781 l 460 781 l 288 1079 z "},"é":{"ha":906,"x_min":90,"x_max":831,"o":"m 346 733 l 583 733 q 831 508 831 733 q 772 351 831 404 q 582 297 714 297 l 233 297 l 233 244 q 346 143 233 143 l 794 143 l 794 0 l 346 0 q 153 65 215 0 q 90 242 90 131 l 90 492 q 153 668 90 603 q 346 733 215 733 m 233 490 l 233 413 l 578 413 q 686 500 686 413 q 582 592 686 592 l 346 592 q 261 564 289 592 q 233 490 233 536 m 474 1079 l 638 1079 l 464 781 l 318 781 l 474 1079 z "},"ê":{"ha":906,"x_min":90,"x_max":831,"o":"m 346 733 l 583 733 q 831 508 831 733 q 772 351 831 404 q 582 297 714 297 l 233 297 l 233 244 q 346 143 233 143 l 794 143 l 794 0 l 346 0 q 153 65 215 0 q 90 242 90 131 l 90 492 q 153 668 90 603 q 346 733 215 733 m 233 490 l 233 413 l 578 413 q 686 500 686 413 q 582 592 686 592 l 346 592 q 261 564 289 592 q 233 490 233 536 m 176 781 l 301 1008 q 454 1079 338 1079 q 604 1008 567 1079 l 731 781 l 574 781 l 481 954 q 453 967 475 967 q 425 954 432 967 l 333 781 l 176 781 z "},"ë":{"ha":906,"x_min":90,"x_max":831,"o":"m 346 733 l 583 733 q 831 508 831 733 q 772 351 831 404 q 582 297 714 297 l 233 297 l 233 244 q 346 143 233 143 l 794 143 l 794 0 l 346 0 q 153 65 215 0 q 90 242 90 131 l 90 492 q 153 668 90 603 q 346 733 215 733 m 233 490 l 233 413 l 578 413 q 686 500 686 413 q 582 592 686 592 l 346 592 q 261 564 289 592 q 233 490 233 536 m 217 1010 l 365 1010 l 365 839 l 217 839 l 217 1010 m 550 1010 l 699 1010 l 699 839 l 550 839 l 550 1010 z "},"ì":{"ha":386,"x_min":31,"x_max":350,"o":"m 31 1079 l 194 1079 l 350 781 l 203 781 l 31 1079 m 133 733 l 281 733 l 281 0 l 133 0 l 133 733 z "},"í":{"ha":385,"x_min":38,"x_max":357,"o":"m 193 1079 l 357 1079 l 183 781 l 38 781 l 193 1079 m 106 733 l 253 733 l 253 0 l 106 0 l 106 733 z "},"î":{"ha":506,"x_min":-24,"x_max":531,"o":"m 179 733 l 326 733 l 326 0 l 179 0 l 179 733 m -24 781 l 101 1008 q 254 1079 138 1079 q 404 1008 367 1079 l 531 781 l 374 781 l 281 954 q 253 967 275 967 q 225 954 232 967 l 133 781 l -24 781 z "},"ï":{"ha":481,"x_min":-1,"x_max":481,"o":"m -1 1010 l 147 1010 l 147 839 l -1 839 l -1 1010 m 332 1010 l 481 1010 l 481 839 l 332 839 l 332 1010 m 165 733 l 313 733 l 313 0 l 165 0 l 165 733 z "},"ð":{"ha":965,"x_min":71,"x_max":861,"o":"m 256 1051 l 426 1051 l 467 1135 l 549 1135 l 508 1051 l 583 1051 q 797 970 732 1051 q 861 726 861 889 l 861 315 q 592 1 861 1 l 389 1 q 155 88 239 1 q 71 339 71 175 q 156 592 71 503 q 389 681 240 681 l 713 681 l 713 726 q 567 910 713 910 l 439 910 l 385 796 l 303 796 l 357 910 l 256 910 l 256 1051 m 549 143 q 674 183 636 143 q 713 314 713 222 l 713 549 l 403 549 q 264 499 308 549 q 219 344 219 449 q 263 191 219 239 q 403 143 307 143 l 549 143 z "},"ñ":{"ha":982,"x_min":106,"x_max":881,"o":"m 208 733 l 511 733 q 788 650 694 733 q 881 413 881 567 l 881 0 l 732 0 l 732 413 q 511 592 732 592 l 271 592 q 253 571 253 592 l 253 0 l 106 0 l 106 619 q 129 708 106 683 q 208 733 153 733 m 172 996 l 810 996 l 810 872 l 172 872 l 172 996 z "},"ò":{"ha":932,"x_min":71,"x_max":861,"o":"m 389 733 l 543 733 q 777 641 693 733 q 861 367 861 549 q 777 92 861 185 q 543 0 693 0 l 389 0 q 155 92 239 0 q 71 367 71 185 q 155 641 71 549 q 389 733 239 733 m 529 592 l 403 592 q 263 538 307 592 q 219 367 219 485 q 263 196 219 249 q 403 143 307 143 l 529 143 q 669 196 625 143 q 713 367 713 249 q 669 538 713 485 q 529 592 625 592 m 289 1079 l 453 1079 l 608 781 l 461 781 l 289 1079 z "},"ó":{"ha":932,"x_min":71,"x_max":861,"o":"m 389 733 l 543 733 q 777 641 693 733 q 861 367 861 549 q 777 92 861 185 q 543 0 693 0 l 389 0 q 155 92 239 0 q 71 367 71 185 q 155 641 71 549 q 389 733 239 733 m 529 592 l 403 592 q 263 538 307 592 q 219 367 219 485 q 263 196 219 249 q 403 143 307 143 l 529 143 q 669 196 625 143 q 713 367 713 249 q 669 538 713 485 q 529 592 625 592 m 478 1079 l 642 1079 l 468 781 l 322 781 l 478 1079 z "},"ô":{"ha":932,"x_min":71,"x_max":861,"o":"m 389 733 l 543 733 q 777 641 693 733 q 861 367 861 549 q 777 92 861 185 q 543 0 693 0 l 389 0 q 155 92 239 0 q 71 367 71 185 q 155 641 71 549 q 389 733 239 733 m 529 592 l 403 592 q 263 538 307 592 q 219 367 219 485 q 263 196 219 249 q 403 143 307 143 l 529 143 q 669 196 625 143 q 713 367 713 249 q 669 538 713 485 q 529 592 625 592 m 189 781 l 314 1008 q 467 1079 350 1079 q 617 1008 579 1079 l 743 781 l 586 781 l 493 954 q 465 967 486 967 q 438 954 444 967 l 346 781 l 189 781 z "},"õ":{"ha":932,"x_min":71,"x_max":861,"o":"m 389 733 l 543 733 q 777 641 693 733 q 861 367 861 549 q 777 92 861 185 q 543 0 693 0 l 389 0 q 155 92 239 0 q 71 367 71 185 q 155 641 71 549 q 389 733 239 733 m 529 592 l 403 592 q 263 538 307 592 q 219 367 219 485 q 263 196 219 249 q 403 143 307 143 l 529 143 q 669 196 625 143 q 713 367 713 249 q 669 538 713 485 q 529 592 625 592 m 147 996 l 785 996 l 785 872 l 147 872 l 147 996 z "},"ö":{"ha":932,"x_min":71,"x_max":861,"o":"m 389 733 l 543 733 q 777 641 693 733 q 861 367 861 549 q 777 92 861 185 q 543 0 693 0 l 389 0 q 155 92 239 0 q 71 367 71 185 q 155 641 71 549 q 389 733 239 733 m 529 592 l 403 592 q 263 538 307 592 q 219 367 219 485 q 263 196 219 249 q 403 143 307 143 l 529 143 q 669 196 625 143 q 713 367 713 249 q 669 538 713 485 q 529 592 625 592 m 225 1010 l 374 1010 l 374 839 l 225 839 l 225 1010 m 558 1010 l 707 1010 l 707 839 l 558 839 l 558 1010 z "},"÷":{"ha":860,"x_min":56,"x_max":803,"o":"m 56 518 l 803 518 l 803 417 l 56 417 l 56 518 m 350 222 l 508 222 l 508 33 l 350 33 l 350 222 m 350 906 l 508 906 l 508 717 l 350 717 l 350 906 z "},"ø":{"ha":932,"x_min":71,"x_max":861,"o":"m 389 733 l 543 733 q 631 724 582 733 l 715 853 l 835 853 l 725 685 q 861 367 861 594 q 777 92 861 185 q 543 0 693 0 l 389 0 q 288 13 333 0 l 217 -96 l 97 -96 l 196 56 q 71 367 71 144 q 155 641 71 549 q 389 733 239 733 m 713 367 q 644 561 713 510 l 374 144 q 403 143 382 143 l 529 143 q 669 196 625 143 q 713 367 713 249 m 529 592 l 403 592 q 263 538 307 592 q 219 367 219 485 q 278 181 219 231 l 544 590 q 538 591 543 590 q 529 592 532 592 z "},"ù":{"ha":975,"x_min":101,"x_max":874,"o":"m 101 733 l 250 733 l 250 294 q 298 185 250 228 q 431 143 346 143 l 550 143 q 682 185 635 143 q 729 294 729 228 l 729 733 l 874 733 l 874 289 q 791 79 874 158 q 556 0 708 0 l 419 0 q 184 79 267 0 q 101 289 101 158 l 101 733 m 311 1079 l 475 1079 l 631 781 l 483 781 l 311 1079 z "},"ú":{"ha":975,"x_min":101,"x_max":874,"o":"m 101 733 l 250 733 l 250 294 q 298 185 250 228 q 431 143 346 143 l 550 143 q 682 185 635 143 q 729 294 729 228 l 729 733 l 874 733 l 874 289 q 791 79 874 158 q 556 0 708 0 l 419 0 q 184 79 267 0 q 101 289 101 158 l 101 733 m 500 1079 l 664 1079 l 490 781 l 344 781 l 500 1079 z "},"û":{"ha":975,"x_min":101,"x_max":874,"o":"m 101 733 l 250 733 l 250 294 q 298 185 250 228 q 431 143 346 143 l 550 143 q 682 185 635 143 q 729 294 729 228 l 729 733 l 874 733 l 874 289 q 791 79 874 158 q 556 0 708 0 l 419 0 q 184 79 267 0 q 101 289 101 158 l 101 733 m 211 781 l 336 1008 q 489 1079 372 1079 q 639 1008 601 1079 l 765 781 l 608 781 l 515 954 q 488 967 508 967 q 460 954 467 967 l 368 781 l 211 781 z "},"ü":{"ha":975,"x_min":101,"x_max":874,"o":"m 101 733 l 250 733 l 250 294 q 298 185 250 228 q 431 143 346 143 l 550 143 q 682 185 635 143 q 729 294 729 228 l 729 733 l 874 733 l 874 289 q 791 79 874 158 q 556 0 708 0 l 419 0 q 184 79 267 0 q 101 289 101 158 l 101 733 m 246 1010 l 394 1010 l 394 839 l 246 839 l 246 1010 m 579 1010 l 728 1010 l 728 839 l 579 839 l 579 1010 z "},"ý":{"ha":899,"x_min":26,"x_max":872,"o":"m 715 733 l 872 733 l 431 -294 l 272 -294 l 410 26 q 321 47 350 26 q 272 117 292 67 l 26 733 l 182 733 l 403 188 q 418 163 410 168 q 447 157 426 157 l 467 157 l 715 733 m 458 1079 l 622 1079 l 449 781 l 303 781 l 458 1079 z "},"þ":{"ha":965,"x_min":107,"x_max":894,"o":"m 107 1051 l 254 1051 l 254 775 q 299 733 254 733 l 578 733 q 811 640 728 733 q 894 365 894 547 q 811 92 894 185 q 578 0 728 0 l 299 0 q 254 -40 254 0 l 254 -294 l 107 -294 l 107 25 q 139 115 107 88 q 238 143 171 143 l 563 143 q 702 196 658 143 q 746 365 746 249 q 702 538 746 485 q 563 592 658 592 l 238 592 q 139 619 171 592 q 107 710 107 647 l 107 1051 z "},"ÿ":{"ha":899,"x_min":26,"x_max":872,"o":"m 715 733 l 872 733 l 431 -294 l 272 -294 l 410 26 q 321 47 350 26 q 272 117 292 67 l 26 733 l 182 733 l 403 188 q 418 163 410 168 q 447 157 426 157 l 467 157 l 715 733 m 203 1010 l 351 1010 l 351 839 l 203 839 l 203 1010 m 536 1010 l 685 1010 l 685 839 l 536 839 l 536 1010 z "},"Ā":{"ha":1089,"x_min":26,"x_max":1064,"o":"m 504 754 l 207 0 l 26 0 l 356 833 q 553 954 404 954 q 747 833 701 954 l 1064 0 l 882 0 l 597 754 q 551 786 585 786 q 504 754 518 786 m 226 1200 l 864 1200 l 864 1076 l 226 1076 l 226 1200 z "},"ā":{"ha":933,"x_min":90,"x_max":831,"o":"m 135 733 l 575 733 q 768 668 706 733 q 831 492 831 603 l 831 147 q 800 33 831 65 q 679 0 769 0 l 336 0 q 90 224 90 0 q 149 381 90 328 q 338 435 207 435 l 686 435 l 686 490 q 658 564 686 536 q 574 592 631 592 l 135 592 l 135 733 m 646 143 q 686 181 686 143 l 686 318 l 340 318 q 235 232 235 318 q 338 143 235 143 l 646 143 m 147 996 l 785 996 l 785 872 l 147 872 l 147 996 z "},"Ă":{"ha":1089,"x_min":26,"x_max":1064,"o":"m 504 754 l 207 0 l 26 0 l 356 833 q 553 954 404 954 q 747 833 701 954 l 1064 0 l 882 0 l 597 754 q 551 786 585 786 q 504 754 518 786 m 264 1283 l 388 1283 l 388 1206 q 421 1113 388 1139 q 547 1086 454 1086 q 672 1112 640 1086 q 704 1206 704 1138 l 704 1283 l 829 1283 l 829 1204 q 769 1033 829 1082 q 547 985 710 985 q 324 1033 383 985 q 264 1204 264 1081 l 264 1283 z "},"ă":{"ha":933,"x_min":90,"x_max":831,"o":"m 135 733 l 575 733 q 768 668 706 733 q 831 492 831 603 l 831 147 q 800 33 831 65 q 679 0 769 0 l 336 0 q 90 224 90 0 q 149 381 90 328 q 338 435 207 435 l 686 435 l 686 490 q 658 564 686 536 q 574 592 631 592 l 135 592 l 135 733 m 646 143 q 686 181 686 143 l 686 318 l 340 318 q 235 232 235 318 q 338 143 235 143 l 646 143 m 193 1079 l 317 1079 l 317 1001 q 350 908 317 935 q 476 882 383 882 q 601 908 569 882 q 633 1001 633 933 l 633 1079 l 758 1079 l 758 1000 q 699 829 758 878 q 476 781 639 781 q 253 828 313 781 q 193 1000 193 876 l 193 1079 z "},"Ą":{"ha":1089,"x_min":26,"x_max":1090,"o":"m 853 -47 l 894 -31 l 597 754 q 551 786 585 786 q 504 754 518 786 l 207 0 l 26 0 l 356 833 q 553 954 404 954 q 747 833 701 954 l 1064 0 l 931 -57 q 864 -144 864 -87 q 889 -205 864 -182 q 960 -228 914 -228 l 1090 -228 l 1090 -367 l 914 -367 q 778 -322 825 -367 q 731 -204 731 -276 q 853 -47 731 -96 z "},"ą":{"ha":933,"x_min":90,"x_max":831,"o":"m 456 -47 l 581 0 l 336 0 q 90 224 90 0 q 149 381 90 328 q 338 435 207 435 l 686 435 l 686 490 q 658 564 686 536 q 574 592 631 592 l 135 592 l 135 733 l 575 733 q 768 668 706 733 q 831 492 831 603 l 831 147 q 800 33 831 65 q 679 0 769 0 l 667 0 l 533 -57 q 467 -144 467 -87 q 492 -205 467 -182 q 563 -228 517 -228 l 693 -228 l 693 -367 l 517 -367 q 381 -322 428 -367 q 333 -204 333 -276 q 456 -47 333 -96 m 646 143 q 686 181 686 143 l 686 318 l 340 318 q 235 232 235 318 q 338 143 235 143 l 646 143 z "},"Ć":{"ha":947,"x_min":79,"x_max":865,"o":"m 503 938 l 865 938 l 865 774 l 503 774 q 305 701 367 774 q 243 468 243 629 q 305 236 243 308 q 503 164 367 164 l 865 164 l 865 0 l 503 0 q 188 117 296 0 q 79 468 79 235 q 188 819 79 701 q 503 938 296 938 m 569 1283 l 733 1283 l 560 985 l 414 985 l 569 1283 z "},"ć":{"ha":836,"x_min":71,"x_max":767,"o":"m 389 733 l 767 733 l 767 592 l 403 592 q 263 538 307 592 q 219 367 219 485 q 263 196 219 249 q 403 143 307 143 l 767 143 l 767 0 l 389 0 q 155 92 239 0 q 71 367 71 185 q 155 641 71 549 q 389 733 239 733 m 489 1079 l 653 1079 l 479 781 l 333 781 l 489 1079 z "},"Ċ":{"ha":947,"x_min":79,"x_max":865,"o":"m 503 938 l 865 938 l 865 774 l 503 774 q 305 701 367 774 q 243 468 243 629 q 305 236 243 308 q 503 164 367 164 l 865 164 l 865 0 l 503 0 q 188 117 296 0 q 79 468 79 235 q 188 819 79 701 q 503 938 296 938 m 481 1214 l 629 1214 l 629 1043 l 481 1043 l 481 1214 z "},"ċ":{"ha":836,"x_min":71,"x_max":767,"o":"m 389 733 l 767 733 l 767 592 l 403 592 q 263 538 307 592 q 219 367 219 485 q 263 196 219 249 q 403 143 307 143 l 767 143 l 767 0 l 389 0 q 155 92 239 0 q 71 367 71 185 q 155 641 71 549 q 389 733 239 733 m 403 1010 l 551 1010 l 551 839 l 403 839 l 403 1010 z "},"Č":{"ha":947,"x_min":79,"x_max":865,"o":"m 503 938 l 865 938 l 865 774 l 503 774 q 305 701 367 774 q 243 468 243 629 q 305 236 243 308 q 503 164 367 164 l 865 164 l 865 0 l 503 0 q 188 117 296 0 q 79 468 79 235 q 188 819 79 701 q 503 938 296 938 m 274 1283 l 431 1283 l 522 1111 q 551 1099 531 1099 q 578 1111 572 1099 l 671 1283 l 828 1283 l 701 1057 q 550 985 664 985 q 399 1057 436 985 l 274 1283 z "},"č":{"ha":836,"x_min":71,"x_max":767,"o":"m 389 733 l 767 733 l 767 592 l 403 592 q 263 538 307 592 q 219 367 219 485 q 263 196 219 249 q 403 143 307 143 l 767 143 l 767 0 l 389 0 q 155 92 239 0 q 71 367 71 185 q 155 641 71 549 q 389 733 239 733 m 194 1079 l 351 1079 l 443 907 q 472 894 451 894 q 499 907 493 894 l 592 1079 l 749 1079 l 622 853 q 471 781 585 781 q 319 853 357 781 l 194 1079 z "},"Ď":{"ha":1024,"x_min":114,"x_max":944,"o":"m 192 938 l 522 938 q 944 468 944 938 q 522 0 944 0 l 192 0 q 114 76 114 0 l 114 861 q 192 938 114 938 m 278 757 l 278 181 q 296 164 278 164 l 522 164 q 719 236 658 164 q 781 469 781 308 q 719 702 781 631 q 522 774 658 774 l 296 774 q 278 757 278 774 m 183 1283 l 340 1283 l 432 1111 q 461 1099 440 1099 q 488 1111 482 1099 l 581 1283 l 738 1283 l 611 1057 q 460 985 574 985 q 308 1057 346 985 l 183 1283 z "},"ď":{"ha":1103,"x_min":71,"x_max":1139,"o":"m 713 1051 l 861 1051 l 861 314 q 592 0 861 0 l 389 0 q 155 92 239 0 q 71 367 71 185 q 155 641 71 549 q 389 733 239 733 l 713 733 l 713 1051 m 549 143 q 674 185 636 143 q 713 321 713 226 l 713 592 l 403 592 q 263 538 307 592 q 219 367 219 485 q 263 196 219 249 q 403 143 307 143 l 549 143 m 992 1050 l 1139 1050 l 1139 901 q 969 717 1139 717 l 924 717 l 924 828 l 940 828 q 992 886 992 828 l 992 1050 z "},"Đ":{"ha":1024,"x_min":15,"x_max":944,"o":"m 192 938 l 522 938 q 944 468 944 938 q 522 0 944 0 l 192 0 q 114 76 114 0 l 114 396 l 15 396 l 15 544 l 114 544 l 114 861 q 192 938 114 938 m 278 757 l 278 544 l 528 544 l 528 396 l 278 396 l 278 181 q 296 164 278 164 l 522 164 q 719 236 658 164 q 781 469 781 308 q 719 702 781 631 q 522 774 658 774 l 296 774 q 278 757 278 774 z "},"đ":{"ha":965,"x_min":71,"x_max":861,"o":"m 224 996 l 713 996 l 713 1051 l 861 1051 l 861 314 q 592 0 861 0 l 389 0 q 155 92 239 0 q 71 367 71 185 q 155 641 71 549 q 389 733 239 733 l 713 733 l 713 872 l 224 872 l 224 996 m 549 143 q 674 185 636 143 q 713 321 713 226 l 713 592 l 403 592 q 263 538 307 592 q 219 367 219 485 q 263 196 219 249 q 403 143 307 143 l 549 143 z "},"Ē":{"ha":963,"x_min":76,"x_max":864,"o":"m 393 938 l 863 938 l 863 774 l 393 774 q 251 656 251 774 q 394 544 251 544 l 856 544 l 856 396 l 390 396 q 247 282 247 396 q 389 164 247 164 l 864 164 l 864 0 l 389 0 q 153 69 231 0 q 76 256 76 139 q 211 471 76 414 q 79 682 79 525 q 156 869 79 800 q 393 938 233 938 m 217 1200 l 854 1200 l 854 1076 l 217 1076 l 217 1200 z "},"ē":{"ha":906,"x_min":90,"x_max":831,"o":"m 346 733 l 583 733 q 831 508 831 733 q 772 351 831 404 q 582 297 714 297 l 233 297 l 233 244 q 346 143 233 143 l 794 143 l 794 0 l 346 0 q 153 65 215 0 q 90 242 90 131 l 90 492 q 153 668 90 603 q 346 733 215 733 m 233 490 l 233 413 l 578 413 q 686 500 686 413 q 582 592 686 592 l 346 592 q 261 564 289 592 q 233 490 233 536 m 133 996 l 771 996 l 771 872 l 133 872 l 133 996 z "},"Ė":{"ha":963,"x_min":76,"x_max":864,"o":"m 393 938 l 863 938 l 863 774 l 393 774 q 251 656 251 774 q 394 544 251 544 l 856 544 l 856 396 l 390 396 q 247 282 247 396 q 389 164 247 164 l 864 164 l 864 0 l 389 0 q 153 69 231 0 q 76 256 76 139 q 211 471 76 414 q 79 682 79 525 q 156 869 79 800 q 393 938 233 938 m 454 1214 l 603 1214 l 603 1043 l 454 1043 l 454 1214 z "},"ė":{"ha":906,"x_min":90,"x_max":831,"o":"m 346 733 l 583 733 q 831 508 831 733 q 772 351 831 404 q 582 297 714 297 l 233 297 l 233 244 q 346 143 233 143 l 794 143 l 794 0 l 346 0 q 153 65 215 0 q 90 242 90 131 l 90 492 q 153 668 90 603 q 346 733 215 733 m 233 490 l 233 413 l 578 413 q 686 500 686 413 q 582 592 686 592 l 346 592 q 261 564 289 592 q 233 490 233 536 m 388 1010 l 536 1010 l 536 839 l 388 839 l 388 1010 z "},"Ę":{"ha":963,"x_min":76,"x_max":890,"o":"m 653 -47 l 778 0 l 389 0 q 153 69 231 0 q 76 256 76 139 q 211 471 76 414 q 79 682 79 525 q 156 869 79 800 q 393 938 233 938 l 863 938 l 863 774 l 393 774 q 251 656 251 774 q 394 544 251 544 l 856 544 l 856 396 l 390 396 q 247 282 247 396 q 389 164 247 164 l 864 164 l 864 0 l 731 -57 q 664 -144 664 -87 q 689 -205 664 -182 q 760 -228 714 -228 l 890 -228 l 890 -367 l 714 -367 q 578 -322 625 -367 q 531 -204 531 -276 q 653 -47 531 -96 z "},"ę":{"ha":906,"x_min":90,"x_max":831,"o":"m 583 -47 l 708 0 l 346 0 q 153 65 215 0 q 90 242 90 131 l 90 492 q 153 668 90 603 q 346 733 215 733 l 583 733 q 831 508 831 733 q 772 351 831 404 q 582 297 714 297 l 233 297 l 233 244 q 346 143 233 143 l 794 143 l 794 0 l 661 -57 q 594 -144 594 -87 q 619 -205 594 -182 q 690 -228 644 -228 l 821 -228 l 821 -367 l 644 -367 q 508 -322 556 -367 q 461 -204 461 -276 q 583 -47 461 -96 m 233 490 l 233 413 l 578 413 q 686 500 686 413 q 582 592 686 592 l 346 592 q 261 564 289 592 q 233 490 233 536 z "},"Ě":{"ha":963,"x_min":76,"x_max":864,"o":"m 393 938 l 863 938 l 863 774 l 393 774 q 251 656 251 774 q 394 544 251 544 l 856 544 l 856 396 l 390 396 q 247 282 247 396 q 389 164 247 164 l 864 164 l 864 0 l 389 0 q 153 69 231 0 q 76 256 76 139 q 211 471 76 414 q 79 682 79 525 q 156 869 79 800 q 393 938 233 938 m 258 1283 l 415 1283 l 507 1111 q 536 1099 515 1099 q 563 1111 557 1099 l 656 1283 l 813 1283 l 686 1057 q 535 985 649 985 q 383 1057 421 985 l 258 1283 z "},"ě":{"ha":906,"x_min":90,"x_max":831,"o":"m 346 733 l 583 733 q 831 508 831 733 q 772 351 831 404 q 582 297 714 297 l 233 297 l 233 244 q 346 143 233 143 l 794 143 l 794 0 l 346 0 q 153 65 215 0 q 90 242 90 131 l 90 492 q 153 668 90 603 q 346 733 215 733 m 233 490 l 233 413 l 578 413 q 686 500 686 413 q 582 592 686 592 l 346 592 q 261 564 289 592 q 233 490 233 536 m 175 1079 l 332 1079 l 424 907 q 453 894 432 894 q 479 907 474 894 l 572 1079 l 729 1079 l 603 853 q 451 781 565 781 q 300 853 338 781 l 175 1079 z "},"Ğ":{"ha":1013,"x_min":79,"x_max":939,"o":"m 503 938 l 889 938 l 889 774 l 503 774 q 305 701 367 774 q 243 468 243 629 q 305 236 243 308 q 503 164 367 164 l 658 164 q 756 199 724 164 q 789 296 789 235 q 760 384 789 353 q 674 415 731 415 l 465 415 l 465 558 l 690 558 q 876 488 813 558 q 939 293 939 418 q 867 81 939 161 q 647 0 796 0 l 503 0 q 188 117 296 0 q 79 468 79 235 q 188 819 79 701 q 503 938 296 938 m 265 1283 l 389 1283 l 389 1206 q 422 1113 389 1139 q 549 1086 456 1086 q 674 1112 642 1086 q 706 1206 706 1138 l 706 1283 l 831 1283 l 831 1204 q 771 1033 831 1082 q 549 985 711 985 q 325 1033 385 985 q 265 1204 265 1081 l 265 1283 z "},"ğ":{"ha":961,"x_min":71,"x_max":861,"o":"m 389 733 l 592 733 q 861 419 861 733 l 861 -3 q 799 -226 861 -160 q 583 -293 736 -293 l 147 -293 l 147 -151 l 567 -151 q 680 -117 647 -151 q 713 -3 713 -83 l 713 31 l 389 31 q 155 119 239 31 q 71 383 71 208 q 155 645 71 557 q 389 733 239 733 m 263 541 q 241 516 263 541 q 219 378 219 490 q 263 215 219 265 q 403 164 307 164 l 713 164 l 713 421 q 674 551 713 511 q 549 592 636 592 l 403 592 q 263 541 307 592 m 203 1079 l 326 1079 l 326 1001 q 360 908 326 935 q 486 882 393 882 q 611 908 579 882 q 643 1001 643 933 l 643 1079 l 768 1079 l 768 1000 q 708 829 768 878 q 486 781 649 781 q 263 828 322 781 q 203 1000 203 876 l 203 1079 z "},"Ġ":{"ha":1013,"x_min":79,"x_max":939,"o":"m 503 938 l 889 938 l 889 774 l 503 774 q 305 701 367 774 q 243 468 243 629 q 305 236 243 308 q 503 164 367 164 l 658 164 q 756 199 724 164 q 789 296 789 235 q 760 384 789 353 q 674 415 731 415 l 465 415 l 465 558 l 690 558 q 876 488 813 558 q 939 293 939 418 q 867 81 939 161 q 647 0 796 0 l 503 0 q 188 117 296 0 q 79 468 79 235 q 188 819 79 701 q 503 938 296 938 m 478 1214 l 626 1214 l 626 1043 l 478 1043 l 478 1214 z "},"ġ":{"ha":961,"x_min":71,"x_max":861,"o":"m 389 733 l 592 733 q 861 419 861 733 l 861 -3 q 799 -226 861 -160 q 583 -293 736 -293 l 147 -293 l 147 -151 l 567 -151 q 680 -117 647 -151 q 713 -3 713 -83 l 713 31 l 389 31 q 155 119 239 31 q 71 383 71 208 q 155 645 71 557 q 389 733 239 733 m 263 541 q 241 516 263 541 q 219 378 219 490 q 263 215 219 265 q 403 164 307 164 l 713 164 l 713 421 q 674 551 713 511 q 549 592 636 592 l 403 592 q 263 541 307 592 m 408 1010 l 557 1010 l 557 839 l 408 839 l 408 1010 z "},"Ģ":{"ha":1013,"x_min":79,"x_max":939,"o":"m 503 938 l 889 938 l 889 774 l 503 774 q 305 701 367 774 q 243 468 243 629 q 305 236 243 308 q 503 164 367 164 l 658 164 q 756 199 724 164 q 789 296 789 235 q 760 384 789 353 q 674 415 731 415 l 465 415 l 465 558 l 690 558 q 876 488 813 558 q 939 293 939 418 q 867 81 939 161 q 647 0 796 0 l 503 0 q 188 117 296 0 q 79 468 79 235 q 188 819 79 701 q 503 938 296 938 m 474 -33 l 621 -33 l 621 -182 q 451 -367 621 -367 l 406 -367 l 406 -256 l 422 -256 q 474 -197 474 -256 l 474 -33 z "},"ģ":{"ha":961,"x_min":71,"x_max":861,"o":"m 389 733 l 592 733 q 861 419 861 733 l 861 -3 q 799 -226 861 -160 q 583 -293 736 -293 l 147 -293 l 147 -151 l 567 -151 q 680 -117 647 -151 q 713 -3 713 -83 l 713 31 l 389 31 q 155 119 239 31 q 71 383 71 208 q 155 645 71 557 q 389 733 239 733 m 263 541 q 241 516 263 541 q 219 378 219 490 q 263 215 219 265 q 403 164 307 164 l 713 164 l 713 421 q 674 551 713 511 q 549 592 636 592 l 403 592 q 263 541 307 592 m 574 1167 l 633 1167 l 633 1047 l 606 1047 q 551 988 551 1047 l 551 781 l 393 781 l 393 971 q 574 1167 393 1167 z "},"Ħ":{"ha":1035,"x_min":15,"x_max":1021,"o":"m 114 938 l 278 938 l 278 835 l 757 835 l 757 938 l 922 938 l 922 835 l 1021 835 l 1021 713 l 922 713 l 922 0 l 757 0 l 757 392 l 278 392 l 278 0 l 114 0 l 114 713 l 15 713 l 15 835 l 114 835 l 114 938 m 278 556 l 757 556 l 757 713 l 278 713 l 278 556 z "},"ħ":{"ha":982,"x_min":106,"x_max":881,"o":"m 106 1051 l 253 1051 l 253 996 l 743 996 l 743 872 l 253 872 l 253 733 l 511 733 q 787 650 693 733 q 881 413 881 567 l 881 0 l 732 0 l 732 413 q 511 592 732 592 l 253 592 l 253 0 l 106 0 l 106 1051 z "},"Ĩ":{"ha":499,"x_min":-69,"x_max":568,"o":"m 168 938 l 332 938 l 332 0 l 168 0 l 168 938 m -69 1200 l 568 1200 l 568 1076 l -69 1076 l -69 1200 z "},"ĩ":{"ha":551,"x_min":-42,"x_max":596,"o":"m -42 996 l 596 996 l 596 872 l -42 872 l -42 996 m 203 733 l 350 733 l 350 0 l 203 0 l 203 733 z "},"Ī":{"ha":499,"x_min":-69,"x_max":568,"o":"m 168 938 l 332 938 l 332 0 l 168 0 l 168 938 m -69 1200 l 568 1200 l 568 1076 l -69 1076 l -69 1200 z "},"ī":{"ha":551,"x_min":-42,"x_max":596,"o":"m -42 996 l 596 996 l 596 872 l -42 872 l -42 996 m 203 733 l 350 733 l 350 0 l 203 0 l 203 733 z "},"Ĭ":{"ha":522,"x_min":-22,"x_max":543,"o":"m 179 938 l 343 938 l 343 0 l 179 0 l 179 938 m -22 1283 l 101 1283 l 101 1206 q 135 1113 101 1139 q 261 1086 168 1086 q 386 1112 354 1086 q 418 1206 418 1138 l 418 1283 l 543 1283 l 543 1204 q 483 1033 543 1082 q 261 985 424 985 q 38 1033 97 985 q -22 1204 -22 1081 l -22 1283 z "},"ĭ":{"ha":521,"x_min":-22,"x_max":543,"o":"m -22 1079 l 101 1079 l 101 1001 q 135 908 101 935 q 261 882 168 882 q 386 908 354 882 q 418 1001 418 933 l 418 1079 l 543 1079 l 543 1000 q 483 829 543 878 q 261 781 424 781 q 38 828 97 781 q -22 1000 -22 876 l -22 1079 m 186 733 l 333 733 l 333 0 l 186 0 l 186 733 z "},"Į":{"ha":399,"x_min":-47,"x_max":313,"o":"m 75 -47 l 122 -29 l 122 938 l 286 938 l 286 0 l 153 -57 q 86 -144 86 -87 q 111 -205 86 -182 q 182 -228 136 -228 l 313 -228 l 313 -367 l 136 -367 q 0 -322 47 -367 q -47 -204 -47 -276 q 75 -47 -47 -96 z "},"į":{"ha":386,"x_min":-53,"x_max":307,"o":"m 133 733 l 281 733 l 281 0 l 147 -57 q 81 -144 81 -87 q 106 -205 81 -182 q 176 -228 131 -228 l 307 -228 l 307 -367 l 131 -367 q -6 -322 42 -367 q -53 -204 -53 -276 q 69 -47 -53 -96 l 133 -22 l 133 733 m 133 1010 l 282 1010 l 282 839 l 133 839 l 133 1010 z "},"İ":{"ha":390,"x_min":114,"x_max":278,"o":"m 114 938 l 278 938 l 278 0 l 114 0 l 114 938 m 121 1214 l 269 1214 l 269 1043 l 121 1043 l 121 1214 z "},"ı":{"ha":358,"x_min":106,"x_max":253,"o":"m 106 733 l 253 733 l 253 0 l 106 0 l 106 733 z "},"Ĳ":{"ha":1146,"x_min":114,"x_max":1042,"o":"m 114 938 l 278 938 l 278 0 l 114 0 l 114 938 m 876 938 l 1042 938 l 1042 324 q 957 88 1042 175 q 694 0 872 0 l 376 0 l 376 164 l 685 164 q 876 325 876 164 l 876 938 z "},"ĳ":{"ha":726,"x_min":106,"x_max":622,"o":"m 106 733 l 253 733 l 253 0 l 106 0 l 106 733 m 474 733 l 622 733 l 622 -42 q 572 -238 622 -182 q 407 -294 522 -294 l 278 -294 l 278 -153 l 374 -153 q 451 -128 428 -153 q 474 -43 474 -104 l 474 733 m 474 1010 l 622 1010 l 622 839 l 474 839 l 474 1010 m 106 1010 l 254 1010 l 254 839 l 106 839 l 106 1010 z "},"Ķ":{"ha":983,"x_min":114,"x_max":956,"o":"m 114 938 l 278 938 l 278 540 l 368 540 q 528 560 489 540 q 608 657 568 579 l 751 938 l 928 938 l 781 646 q 710 540 747 581 q 618 475 674 499 q 722 419 682 458 q 804 294 761 379 l 956 0 l 772 0 l 629 278 q 545 372 590 353 q 368 392 500 392 l 278 392 l 278 0 l 114 0 l 114 938 m 429 -33 l 576 -33 l 576 -182 q 407 -367 576 -367 l 361 -367 l 361 -256 l 378 -256 q 429 -197 429 -256 l 429 -33 z "},"ķ":{"ha":836,"x_min":106,"x_max":810,"o":"m 106 1051 l 253 1051 l 253 429 l 321 429 q 442 442 411 429 q 504 513 472 456 l 626 733 l 786 733 l 658 503 q 528 372 604 404 q 609 326 576 358 q 678 231 642 293 l 810 0 l 644 0 l 522 217 q 454 290 490 274 q 321 306 418 306 l 253 306 l 253 0 l 106 0 l 106 1051 m 371 -33 l 518 -33 l 518 -182 q 349 -367 518 -367 l 303 -367 l 303 -256 l 319 -256 q 371 -197 371 -256 l 371 -33 z "},"Ĺ":{"ha":864,"x_min":85,"x_max":824,"o":"m 104 938 l 268 938 l 268 325 q 460 164 268 164 l 824 164 l 824 0 l 450 0 q 188 87 272 0 q 104 324 104 174 l 104 938 m 240 1283 l 404 1283 l 231 985 l 85 985 l 240 1283 z "},"ĺ":{"ha":372,"x_min":65,"x_max":385,"o":"m 106 929 l 253 929 l 253 0 l 106 0 l 106 929 m 221 1258 l 385 1258 l 211 960 l 65 960 l 221 1258 z "},"Ļ":{"ha":864,"x_min":104,"x_max":824,"o":"m 104 938 l 268 938 l 268 325 q 460 164 268 164 l 824 164 l 824 0 l 450 0 q 188 87 272 0 q 104 324 104 174 l 104 938 m 403 -33 l 550 -33 l 550 -182 q 381 -367 550 -367 l 335 -367 l 335 -256 l 351 -256 q 403 -197 403 -256 l 403 -33 z "},"ļ":{"ha":358,"x_min":38,"x_max":253,"o":"m 106 1051 l 253 1051 l 253 0 l 106 0 l 106 1051 m 106 -33 l 253 -33 l 253 -182 q 83 -367 253 -367 l 38 -367 l 38 -256 l 54 -256 q 106 -197 106 -256 l 106 -33 z "},"Ľ":{"ha":864,"x_min":104,"x_max":824,"o":"m 104 938 l 268 938 l 268 325 q 460 164 268 164 l 824 164 l 824 0 l 450 0 q 188 87 272 0 q 104 324 104 174 l 104 938 m 533 1050 l 681 1050 l 681 901 q 511 717 681 717 l 465 717 l 465 828 l 482 828 q 533 886 533 828 l 533 1050 z "},"ľ":{"ha":496,"x_min":106,"x_max":532,"o":"m 106 1051 l 253 1051 l 253 0 l 106 0 l 106 1051 m 385 1050 l 532 1050 l 532 901 q 363 717 532 717 l 317 717 l 317 828 l 333 828 q 385 886 385 828 l 385 1050 z "},"Ł":{"ha":864,"x_min":11,"x_max":824,"o":"m 104 938 l 268 938 l 268 707 l 529 819 l 529 683 l 268 571 l 268 325 q 460 164 268 164 l 824 164 l 824 0 l 450 0 q 188 87 272 0 q 104 324 104 174 l 104 500 l 11 460 l 11 596 l 104 636 l 104 938 z "},"ł":{"ha":518,"x_min":0,"x_max":518,"o":"m 186 1051 l 333 1051 l 333 832 l 518 913 l 518 776 l 333 696 l 333 0 l 186 0 l 186 633 l 0 553 l 0 689 l 186 769 l 186 1051 z "},"Ń":{"ha":1221,"x_min":113,"x_max":1110,"o":"m 276 742 l 276 0 l 113 0 l 113 750 q 167 899 113 844 q 328 954 221 954 q 472 910 421 954 q 556 781 524 867 l 829 182 q 889 143 849 143 q 930 158 915 143 q 944 196 944 172 l 944 938 l 1110 938 l 1110 189 q 1055 38 1110 93 q 894 -17 1000 -17 q 749 27 801 -17 q 665 157 697 71 l 392 756 q 333 796 374 796 q 276 742 276 796 m 631 1283 l 794 1283 l 621 985 l 475 985 l 631 1283 z "},"ń":{"ha":982,"x_min":106,"x_max":881,"o":"m 208 733 l 511 733 q 788 650 694 733 q 881 413 881 567 l 881 0 l 732 0 l 732 413 q 511 592 732 592 l 271 592 q 253 571 253 592 l 253 0 l 106 0 l 106 619 q 129 708 106 683 q 208 733 153 733 m 496 1079 l 660 1079 l 486 781 l 340 781 l 496 1079 z "},"Ņ":{"ha":1221,"x_min":113,"x_max":1110,"o":"m 276 742 l 276 0 l 113 0 l 113 750 q 167 899 113 844 q 328 954 221 954 q 472 910 421 954 q 556 781 524 867 l 829 182 q 889 143 849 143 q 930 158 915 143 q 944 196 944 172 l 944 938 l 1110 938 l 1110 189 q 1055 38 1110 93 q 894 -17 1000 -17 q 749 27 801 -17 q 665 157 697 71 l 392 756 q 333 796 374 796 q 276 742 276 796 m 501 -33 l 649 -33 l 649 -182 q 479 -367 649 -367 l 433 -367 l 433 -256 l 450 -256 q 501 -197 501 -256 l 501 -33 z "},"ņ":{"ha":982,"x_min":106,"x_max":881,"o":"m 208 733 l 511 733 q 788 650 694 733 q 881 413 881 567 l 881 0 l 732 0 l 732 413 q 511 592 732 592 l 271 592 q 253 571 253 592 l 253 0 l 106 0 l 106 619 q 129 708 106 683 q 208 733 153 733 m 425 -33 l 572 -33 l 572 -182 q 403 -367 572 -367 l 357 -367 l 357 -256 l 374 -256 q 425 -197 425 -256 l 425 -33 z "},"Ň":{"ha":1221,"x_min":113,"x_max":1110,"o":"m 276 742 l 276 0 l 113 0 l 113 750 q 167 899 113 844 q 328 954 221 954 q 472 910 421 954 q 556 781 524 867 l 829 182 q 889 143 849 143 q 930 158 915 143 q 944 196 944 172 l 944 938 l 1110 938 l 1110 189 q 1055 38 1110 93 q 894 -17 1000 -17 q 749 27 801 -17 q 665 157 697 71 l 392 756 q 333 796 374 796 q 276 742 276 796 m 343 1283 l 500 1283 l 592 1111 q 621 1099 600 1099 q 647 1111 642 1099 l 740 1283 l 897 1283 l 771 1057 q 619 985 733 985 q 468 1057 506 985 l 343 1283 z "},"ň":{"ha":982,"x_min":106,"x_max":881,"o":"m 208 733 l 511 733 q 788 650 694 733 q 881 413 881 567 l 881 0 l 732 0 l 732 413 q 511 592 732 592 l 271 592 q 253 571 253 592 l 253 0 l 106 0 l 106 619 q 129 708 106 683 q 208 733 153 733 m 207 1079 l 364 1079 l 456 907 q 485 894 464 894 q 511 907 506 894 l 604 1079 l 761 1079 l 635 853 q 483 781 597 781 q 332 853 369 781 l 207 1079 z "},"Ŋ":{"ha":1094,"x_min":114,"x_max":981,"o":"m 188 938 l 567 938 q 875 837 769 938 q 981 558 981 736 l 981 24 q 919 -224 981 -153 q 718 -294 858 -294 l 515 -294 l 515 -137 l 681 -137 q 784 -102 753 -137 q 815 22 815 -67 l 815 558 q 567 774 815 774 l 294 774 q 278 756 278 774 l 278 0 l 114 0 l 114 861 q 188 938 114 938 z "},"ŋ":{"ha":982,"x_min":106,"x_max":881,"o":"m 732 -43 l 732 413 q 511 592 732 592 l 271 592 q 253 571 253 592 l 253 0 l 106 0 l 106 619 q 129 708 106 683 q 208 733 153 733 l 511 733 q 788 650 694 733 q 881 413 881 567 l 881 -42 q 831 -238 881 -182 q 665 -294 781 -294 l 536 -294 l 536 -153 l 632 -153 q 709 -128 686 -153 q 732 -43 732 -104 z "},"Ō":{"ha":1133,"x_min":79,"x_max":1054,"o":"m 503 938 l 631 938 q 946 819 838 938 q 1054 467 1054 701 q 946 117 1054 233 q 631 0 838 0 l 503 0 q 188 117 296 0 q 79 467 79 233 q 188 819 79 701 q 503 938 296 938 m 631 774 l 503 774 q 305 701 367 774 q 243 467 243 628 q 305 235 243 307 q 503 164 367 164 l 631 164 q 828 235 767 164 q 889 468 889 307 q 828 701 889 628 q 631 774 767 774 m 247 1175 l 885 1175 l 885 1051 l 247 1051 l 247 1175 z "},"ō":{"ha":932,"x_min":71,"x_max":861,"o":"m 389 733 l 543 733 q 777 641 693 733 q 861 367 861 549 q 777 92 861 185 q 543 0 693 0 l 389 0 q 155 92 239 0 q 71 367 71 185 q 155 641 71 549 q 389 733 239 733 m 529 592 l 403 592 q 263 538 307 592 q 219 367 219 485 q 263 196 219 249 q 403 143 307 143 l 529 143 q 669 196 625 143 q 713 367 713 249 q 669 538 713 485 q 529 592 625 592 m 147 996 l 785 996 l 785 872 l 147 872 l 147 996 z "},"Ő":{"ha":1133,"x_min":79,"x_max":1054,"o":"m 503 938 l 631 938 q 946 819 838 938 q 1054 467 1054 701 q 946 117 1054 233 q 631 0 838 0 l 503 0 q 188 117 296 0 q 79 467 79 233 q 188 819 79 701 q 503 938 296 938 m 631 774 l 503 774 q 305 701 367 774 q 243 467 243 628 q 305 235 243 307 q 503 164 367 164 l 631 164 q 828 235 767 164 q 889 468 889 307 q 828 701 889 628 q 631 774 767 774 m 732 1283 l 896 1283 l 722 985 l 576 985 l 732 1283 m 428 1283 l 592 1283 l 418 985 l 272 985 l 428 1283 z "},"ő":{"ha":932,"x_min":71,"x_max":861,"o":"m 389 733 l 543 733 q 777 641 693 733 q 861 367 861 549 q 777 92 861 185 q 543 0 693 0 l 389 0 q 155 92 239 0 q 71 367 71 185 q 155 641 71 549 q 389 733 239 733 m 529 592 l 403 592 q 263 538 307 592 q 219 367 219 485 q 263 196 219 249 q 403 143 307 143 l 529 143 q 669 196 625 143 q 713 367 713 249 q 669 538 713 485 q 529 592 625 592 m 629 1079 l 793 1079 l 619 781 l 474 781 l 629 1079 m 325 1079 l 489 1079 l 315 781 l 169 781 l 325 1079 z "},"Œ":{"ha":1644,"x_min":79,"x_max":1546,"o":"m 503 938 l 1544 938 l 1544 774 l 979 774 q 1050 544 1038 683 l 1538 544 l 1538 396 l 1051 396 q 982 164 1039 254 l 1546 164 l 1546 0 l 503 0 q 188 117 296 0 q 79 467 79 233 q 188 819 79 701 q 503 938 296 938 m 631 774 l 503 774 q 305 701 367 774 q 243 468 243 628 q 304 235 243 307 q 503 164 365 164 l 631 164 q 828 235 767 164 q 889 468 889 307 q 828 701 889 628 q 631 774 767 774 z "},"œ":{"ha":1532,"x_min":71,"x_max":1457,"o":"m 389 733 l 543 733 q 765 653 683 733 q 972 733 831 733 l 1210 733 q 1457 508 1457 733 q 1399 351 1457 404 q 1208 297 1340 297 l 860 297 l 860 244 q 972 143 860 143 l 1421 143 l 1421 0 l 972 0 q 765 81 831 0 q 543 0 683 0 l 389 0 q 155 92 239 0 q 71 367 71 185 q 155 641 71 549 q 389 733 239 733 m 529 592 l 403 592 q 263 538 307 592 q 219 367 219 485 q 263 196 219 249 q 403 143 307 143 l 529 143 q 669 196 625 143 q 713 367 713 249 q 669 538 713 485 q 529 592 625 592 m 860 490 l 860 413 l 1204 413 q 1313 500 1313 413 q 1208 592 1313 592 l 972 592 q 888 564 915 592 q 860 490 860 536 z "},"Ŕ":{"ha":992,"x_min":111,"x_max":940,"o":"m 111 938 l 619 938 q 845 858 769 938 q 921 657 921 778 q 872 482 921 561 q 722 375 822 403 l 940 0 l 758 0 l 544 363 l 300 363 q 276 339 276 363 l 276 0 l 113 0 l 113 371 q 147 485 113 450 q 260 519 182 519 l 625 519 q 723 557 690 519 q 756 650 756 594 q 722 739 756 704 q 625 774 689 774 l 111 774 l 111 938 m 504 1283 l 668 1283 l 494 985 l 349 985 l 504 1283 z "},"ŕ":{"ha":643,"x_min":104,"x_max":604,"o":"m 303 733 l 604 733 l 604 592 l 346 592 q 251 497 251 592 l 251 0 l 104 0 l 104 519 q 150 683 104 632 q 303 733 196 733 m 381 1079 l 544 1079 l 371 781 l 225 781 l 381 1079 z "},"Ŗ":{"ha":992,"x_min":111,"x_max":940,"o":"m 111 938 l 619 938 q 845 858 769 938 q 921 657 921 778 q 872 482 921 561 q 722 375 822 403 l 940 0 l 758 0 l 544 363 l 300 363 q 276 339 276 363 l 276 0 l 113 0 l 113 371 q 147 485 113 450 q 260 519 182 519 l 625 519 q 723 557 690 519 q 756 650 756 594 q 722 739 756 704 q 625 774 689 774 l 111 774 l 111 938 m 426 -33 l 574 -33 l 574 -182 q 404 -367 574 -367 l 358 -367 l 358 -256 l 375 -256 q 426 -197 426 -256 l 426 -33 z "},"ŗ":{"ha":643,"x_min":35,"x_max":604,"o":"m 303 733 l 604 733 l 604 592 l 346 592 q 251 497 251 592 l 251 0 l 104 0 l 104 519 q 150 683 104 632 q 303 733 196 733 m 103 -33 l 250 -33 l 250 -182 q 81 -367 250 -367 l 35 -367 l 35 -256 l 51 -256 q 103 -197 103 -256 l 103 -33 z "},"Ř":{"ha":992,"x_min":111,"x_max":940,"o":"m 111 938 l 619 938 q 845 858 769 938 q 921 657 921 778 q 872 482 921 561 q 722 375 822 403 l 940 0 l 758 0 l 544 363 l 300 363 q 276 339 276 363 l 276 0 l 113 0 l 113 371 q 147 485 113 450 q 260 519 182 519 l 625 519 q 723 557 690 519 q 756 650 756 594 q 722 739 756 704 q 625 774 689 774 l 111 774 l 111 938 m 213 1283 l 369 1283 l 461 1111 q 490 1099 469 1099 q 517 1111 511 1099 l 610 1283 l 767 1283 l 640 1057 q 489 985 603 985 q 338 1057 375 985 l 213 1283 z "},"ř":{"ha":678,"x_min":99,"x_max":653,"o":"m 303 733 l 604 733 l 604 592 l 346 592 q 251 497 251 592 l 251 0 l 104 0 l 104 519 q 150 683 104 632 q 303 733 196 733 m 99 1079 l 256 1079 l 347 907 q 376 894 356 894 q 403 907 397 894 l 496 1079 l 653 1079 l 526 853 q 375 781 489 781 q 224 853 261 781 l 99 1079 z "},"Ś":{"ha":976,"x_min":71,"x_max":908,"o":"m 363 938 l 838 938 l 838 774 l 357 774 q 265 744 296 774 q 235 663 235 714 q 374 551 235 551 l 593 551 q 749 528 685 551 q 847 463 814 504 q 894 376 881 421 q 908 275 908 331 q 835 74 908 149 q 610 0 763 0 l 88 0 l 88 164 l 615 164 q 712 196 679 164 q 744 281 744 228 q 597 397 744 397 l 379 397 q 226 420 290 397 q 131 484 163 443 q 85 569 99 525 q 71 668 71 614 q 142 865 71 792 q 363 938 214 938 m 506 1283 l 669 1283 l 496 985 l 350 985 l 506 1283 z "},"ś":{"ha":814,"x_min":71,"x_max":746,"o":"m 310 733 l 717 733 l 717 592 l 311 592 q 215 508 215 592 q 238 449 215 468 q 319 429 261 429 l 492 429 q 690 374 633 429 q 746 222 746 318 q 688 59 746 118 q 506 0 629 0 l 79 0 l 79 143 l 506 143 q 579 162 557 143 q 601 224 601 181 q 577 286 601 267 q 497 306 553 306 l 324 306 q 71 519 71 306 q 310 733 71 733 m 428 1079 l 592 1079 l 418 781 l 272 781 l 428 1079 z "},"Ş":{"ha":976,"x_min":71,"x_max":908,"o":"m 363 938 l 838 938 l 838 774 l 357 774 q 265 744 296 774 q 235 663 235 714 q 374 551 235 551 l 593 551 q 749 528 685 551 q 847 463 814 504 q 894 376 881 421 q 908 275 908 331 q 835 74 908 149 q 610 0 763 0 l 88 0 l 88 164 l 615 164 q 712 196 679 164 q 744 281 744 228 q 597 397 744 397 l 379 397 q 226 420 290 397 q 131 484 163 443 q 85 569 99 525 q 71 668 71 614 q 142 865 71 792 q 363 938 214 938 m 417 -33 l 564 -33 l 564 -182 q 394 -367 564 -367 l 349 -367 l 349 -256 l 365 -256 q 417 -197 417 -256 l 417 -33 z "},"ş":{"ha":814,"x_min":71,"x_max":746,"o":"m 310 733 l 717 733 l 717 592 l 311 592 q 215 508 215 592 q 238 449 215 468 q 319 429 261 429 l 492 429 q 690 374 633 429 q 746 222 746 318 q 688 59 746 118 q 506 0 629 0 l 79 0 l 79 143 l 506 143 q 579 162 557 143 q 601 224 601 181 q 577 286 601 267 q 497 306 553 306 l 324 306 q 71 519 71 306 q 310 733 71 733 m 335 -33 l 482 -33 l 482 -182 q 313 -367 482 -367 l 267 -367 l 267 -256 l 283 -256 q 335 -197 335 -256 l 335 -33 z "},"Š":{"ha":976,"x_min":71,"x_max":908,"o":"m 363 938 l 838 938 l 838 774 l 357 774 q 265 744 296 774 q 235 663 235 714 q 374 551 235 551 l 593 551 q 749 528 685 551 q 847 463 814 504 q 894 376 881 421 q 908 275 908 331 q 835 74 908 149 q 610 0 763 0 l 88 0 l 88 164 l 615 164 q 712 196 679 164 q 744 281 744 228 q 597 397 744 397 l 379 397 q 226 420 290 397 q 131 484 163 443 q 85 569 99 525 q 71 668 71 614 q 142 865 71 792 q 363 938 214 938 m 218 1283 l 375 1283 l 467 1111 q 496 1099 475 1099 q 522 1111 517 1099 l 615 1283 l 772 1283 l 646 1057 q 494 985 608 985 q 343 1057 381 985 l 218 1283 z "},"š":{"ha":814,"x_min":71,"x_max":746,"o":"m 310 733 l 717 733 l 717 592 l 311 592 q 215 508 215 592 q 238 449 215 468 q 319 429 261 429 l 492 429 q 690 374 633 429 q 746 222 746 318 q 688 59 746 118 q 506 0 629 0 l 79 0 l 79 143 l 506 143 q 579 162 557 143 q 601 224 601 181 q 577 286 601 267 q 497 306 553 306 l 324 306 q 71 519 71 306 q 310 733 71 733 m 143 1079 l 300 1079 l 392 907 q 421 894 400 894 q 447 907 442 894 l 540 1079 l 697 1079 l 571 853 q 419 781 533 781 q 268 853 306 781 l 143 1079 z "},"Ť":{"ha":793,"x_min":40,"x_max":753,"o":"m 40 938 l 753 938 l 753 774 l 479 774 l 479 0 l 314 0 l 314 774 l 40 774 l 40 938 m 119 1283 l 276 1283 l 368 1111 q 397 1099 376 1099 q 424 1111 418 1099 l 517 1283 l 674 1283 l 547 1057 q 396 985 510 985 q 244 1057 282 985 l 119 1283 z "},"ť":{"ha":682,"x_min":32,"x_max":718,"o":"m 32 733 l 132 733 l 132 907 l 281 907 l 281 733 l 483 733 l 483 592 l 281 592 l 281 244 q 303 159 281 183 q 379 135 326 135 l 481 135 l 481 0 l 349 0 q 182 56 232 0 q 132 253 132 113 l 132 592 l 32 592 l 32 733 m 571 1050 l 718 1050 l 718 901 q 549 717 718 717 l 503 717 l 503 828 l 519 828 q 571 886 571 828 l 571 1050 z "},"Ŧ":{"ha":793,"x_min":40,"x_max":753,"o":"m 78 494 l 314 494 l 314 774 l 40 774 l 40 938 l 753 938 l 753 774 l 479 774 l 479 494 l 715 494 l 715 371 l 479 371 l 479 0 l 314 0 l 314 371 l 78 371 l 78 494 z "},"ŧ":{"ha":536,"x_min":32,"x_max":499,"o":"m 132 907 l 281 907 l 281 733 l 483 733 l 483 592 l 281 592 l 281 436 l 499 436 l 499 314 l 281 314 l 281 244 q 303 159 281 183 q 379 135 326 135 l 481 135 l 481 0 l 349 0 q 182 56 232 0 q 132 253 132 113 l 132 314 l 32 314 l 32 436 l 132 436 l 132 592 l 32 592 l 32 733 l 132 733 l 132 907 z "},"Ũ":{"ha":1017,"x_min":107,"x_max":911,"o":"m 107 938 l 274 938 l 274 311 q 429 164 274 164 l 596 164 q 750 311 750 164 l 750 938 l 911 938 l 911 299 q 607 0 911 0 l 410 0 q 107 299 107 0 l 107 938 m 189 1200 l 826 1200 l 826 1076 l 189 1076 l 189 1200 z "},"ũ":{"ha":975,"x_min":101,"x_max":874,"o":"m 101 733 l 250 733 l 250 294 q 298 185 250 228 q 431 143 346 143 l 550 143 q 682 185 635 143 q 729 294 729 228 l 729 733 l 874 733 l 874 289 q 791 79 874 158 q 556 0 708 0 l 419 0 q 184 79 267 0 q 101 289 101 158 l 101 733 m 169 996 l 807 996 l 807 872 l 169 872 l 169 996 z "},"Ū":{"ha":1017,"x_min":107,"x_max":911,"o":"m 107 938 l 274 938 l 274 311 q 429 164 274 164 l 596 164 q 750 311 750 164 l 750 938 l 911 938 l 911 299 q 607 0 911 0 l 410 0 q 107 299 107 0 l 107 938 m 189 1200 l 826 1200 l 826 1076 l 189 1076 l 189 1200 z "},"ū":{"ha":975,"x_min":101,"x_max":874,"o":"m 101 733 l 250 733 l 250 294 q 298 185 250 228 q 431 143 346 143 l 550 143 q 682 185 635 143 q 729 294 729 228 l 729 733 l 874 733 l 874 289 q 791 79 874 158 q 556 0 708 0 l 419 0 q 184 79 267 0 q 101 289 101 158 l 101 733 m 169 996 l 807 996 l 807 872 l 169 872 l 169 996 z "},"Ů":{"ha":1017,"x_min":107,"x_max":911,"o":"m 107 938 l 274 938 l 274 311 q 429 164 274 164 l 596 164 q 750 311 750 164 l 750 938 l 911 938 l 911 299 q 607 0 911 0 l 410 0 q 107 299 107 0 l 107 938 m 460 1283 l 556 1283 q 658 1243 621 1283 q 694 1124 694 1203 q 658 1004 694 1044 q 556 964 621 964 l 460 964 q 358 1004 394 964 q 321 1124 321 1044 q 357 1243 321 1203 q 460 1283 393 1283 m 546 1213 l 468 1213 q 414 1192 431 1213 q 397 1124 397 1171 q 414 1057 397 1078 q 468 1036 431 1036 l 546 1036 q 617 1124 617 1036 q 546 1213 617 1213 z "},"ů":{"ha":975,"x_min":101,"x_max":874,"o":"m 101 733 l 250 733 l 250 294 q 298 185 250 228 q 431 143 346 143 l 550 143 q 682 185 635 143 q 729 294 729 228 l 729 733 l 874 733 l 874 289 q 791 79 874 158 q 556 0 708 0 l 419 0 q 184 79 267 0 q 101 289 101 158 l 101 733 m 440 1119 l 536 1119 q 638 1079 601 1119 q 675 960 675 1039 q 638 840 675 881 q 536 800 601 800 l 440 800 q 338 840 375 800 q 301 960 301 881 q 338 1079 301 1039 q 440 1119 374 1119 m 526 1049 l 449 1049 q 394 1028 411 1049 q 378 960 378 1007 q 394 893 378 914 q 449 872 411 872 l 526 872 q 597 960 597 872 q 526 1049 597 1049 z "},"Ű":{"ha":1017,"x_min":107,"x_max":911,"o":"m 107 938 l 274 938 l 274 311 q 429 164 274 164 l 596 164 q 750 311 750 164 l 750 938 l 911 938 l 911 299 q 607 0 911 0 l 410 0 q 107 299 107 0 l 107 938 m 674 1283 l 838 1283 l 664 985 l 518 985 l 674 1283 m 369 1283 l 533 1283 l 360 985 l 214 985 l 369 1283 z "},"ű":{"ha":975,"x_min":101,"x_max":874,"o":"m 101 733 l 250 733 l 250 294 q 298 185 250 228 q 431 143 346 143 l 550 143 q 682 185 635 143 q 729 294 729 228 l 729 733 l 874 733 l 874 289 q 791 79 874 158 q 556 0 708 0 l 419 0 q 184 79 267 0 q 101 289 101 158 l 101 733 m 654 1079 l 818 1079 l 644 781 l 499 781 l 654 1079 m 350 1079 l 514 1079 l 340 781 l 194 781 l 350 1079 z "},"Ų":{"ha":1017,"x_min":107,"x_max":911,"o":"m 400 -47 l 525 0 l 410 0 q 107 299 107 0 l 107 938 l 274 938 l 274 311 q 429 164 274 164 l 596 164 q 750 311 750 164 l 750 938 l 911 938 l 911 299 q 611 0 911 3 l 478 -57 q 411 -144 411 -87 q 436 -205 411 -182 q 507 -228 461 -228 l 638 -228 l 638 -367 l 461 -367 q 325 -322 372 -367 q 278 -204 278 -276 q 400 -47 278 -96 z "},"ų":{"ha":975,"x_min":101,"x_max":874,"o":"m 371 -47 l 496 0 l 419 0 q 184 79 267 0 q 101 289 101 158 l 101 733 l 250 733 l 250 294 q 298 185 250 228 q 431 143 346 143 l 550 143 q 682 185 635 143 q 729 294 729 228 l 729 733 l 874 733 l 874 289 q 797 83 874 163 q 582 0 719 4 l 449 -57 q 382 -144 382 -87 q 407 -205 382 -182 q 478 -228 432 -228 l 608 -228 l 608 -367 l 432 -367 q 296 -322 343 -367 q 249 -204 249 -276 q 371 -47 249 -94 z "},"Ŵ":{"ha":1453,"x_min":46,"x_max":1410,"o":"m 46 938 l 218 938 l 288 206 q 344 143 294 143 q 403 194 393 143 l 514 769 q 729 954 550 954 q 939 769 906 954 l 1043 194 q 1103 143 1051 143 q 1160 206 1153 143 l 1239 938 l 1410 938 l 1322 196 q 1103 -17 1299 -17 q 888 174 922 -17 l 785 746 q 728 796 776 796 q 671 746 682 796 l 561 174 q 340 -17 524 -17 q 188 39 238 -17 q 126 196 138 94 l 46 938 m 450 985 l 575 1213 q 728 1283 611 1283 q 878 1213 840 1283 l 1004 985 l 847 985 l 754 1158 q 726 1171 747 1171 q 699 1158 706 1171 l 607 985 l 450 985 z "},"ŵ":{"ha":1357,"x_min":42,"x_max":1315,"o":"m 42 733 l 201 733 l 267 161 q 319 114 272 114 q 374 154 363 114 l 478 599 q 679 747 511 747 q 875 599 842 747 l 974 154 q 1029 114 982 114 q 1079 161 1074 114 l 1156 733 l 1315 733 l 1233 153 q 1028 -17 1210 -17 q 831 135 864 -17 l 732 581 q 678 617 724 617 q 624 581 632 617 l 519 135 q 317 -17 485 -17 q 175 27 221 -17 q 118 153 129 71 l 42 733 m 401 781 l 526 1008 q 679 1079 563 1079 q 829 1008 792 1079 l 956 781 l 799 781 l 706 954 q 678 967 700 967 q 650 954 657 967 l 558 781 l 401 781 z "},"Ŷ":{"ha":957,"x_min":18,"x_max":939,"o":"m 18 938 l 217 938 l 479 536 l 744 938 l 939 938 l 561 404 l 561 0 l 396 0 l 396 404 l 18 938 m 201 985 l 326 1213 q 479 1283 363 1283 q 629 1213 592 1283 l 756 985 l 599 985 l 506 1158 q 478 1171 500 1171 q 450 1158 457 1171 l 358 985 l 201 985 z "},"ŷ":{"ha":899,"x_min":26,"x_max":872,"o":"m 715 733 l 872 733 l 431 -294 l 272 -294 l 410 26 q 321 47 350 26 q 272 117 292 67 l 26 733 l 182 733 l 403 188 q 418 163 410 168 q 447 157 426 157 l 467 157 l 715 733 m 164 781 l 289 1008 q 442 1079 325 1079 q 592 1008 554 1079 l 718 781 l 561 781 l 468 954 q 440 967 461 967 q 413 954 419 967 l 321 781 l 164 781 z "},"Ÿ":{"ha":957,"x_min":18,"x_max":939,"o":"m 18 938 l 217 938 l 479 536 l 744 938 l 939 938 l 561 404 l 561 0 l 396 0 l 396 404 l 18 938 m 236 1214 l 385 1214 l 385 1043 l 236 1043 l 236 1214 m 569 1214 l 718 1214 l 718 1043 l 569 1043 l 569 1214 z "},"Ź":{"ha":1032,"x_min":79,"x_max":956,"o":"m 113 938 l 728 938 q 897 884 839 938 q 956 732 956 831 q 806 513 956 578 l 294 294 q 247 225 247 274 q 265 181 247 197 q 317 164 283 164 l 935 164 l 935 0 l 306 0 q 137 53 194 0 q 79 206 79 107 q 231 425 79 361 l 739 643 q 788 713 788 663 q 717 774 788 774 l 113 774 l 113 938 m 535 1283 l 699 1283 l 525 985 l 379 985 l 535 1283 z "},"ź":{"ha":867,"x_min":71,"x_max":797,"o":"m 97 733 l 608 733 q 749 688 701 733 q 797 565 797 643 q 672 389 797 435 l 251 236 q 213 186 213 221 q 268 142 213 142 l 782 142 l 782 0 l 260 0 q 119 45 167 0 q 71 168 71 90 q 196 346 71 301 l 618 497 q 657 549 657 511 q 600 592 657 592 l 97 592 l 97 733 m 444 1079 l 608 1079 l 435 781 l 289 781 l 444 1079 z "},"Ż":{"ha":1032,"x_min":79,"x_max":956,"o":"m 113 938 l 728 938 q 897 884 839 938 q 956 732 956 831 q 806 513 956 578 l 294 294 q 247 225 247 274 q 265 181 247 197 q 317 164 283 164 l 935 164 l 935 0 l 306 0 q 137 53 194 0 q 79 206 79 107 q 231 425 79 361 l 739 643 q 788 713 788 663 q 717 774 788 774 l 113 774 l 113 938 m 446 1214 l 594 1214 l 594 1043 l 446 1043 l 446 1214 z "},"ż":{"ha":867,"x_min":71,"x_max":797,"o":"m 97 733 l 608 733 q 749 688 701 733 q 797 565 797 643 q 672 389 797 435 l 251 236 q 213 186 213 221 q 268 142 213 142 l 782 142 l 782 0 l 260 0 q 119 45 167 0 q 71 168 71 90 q 196 346 71 301 l 618 497 q 657 549 657 511 q 600 592 657 592 l 97 592 l 97 733 m 367 1010 l 515 1010 l 515 839 l 367 839 l 367 1010 z "},"Ž":{"ha":1032,"x_min":79,"x_max":956,"o":"m 113 938 l 728 938 q 897 884 839 938 q 956 732 956 831 q 806 513 956 578 l 294 294 q 247 225 247 274 q 265 181 247 197 q 317 164 283 164 l 935 164 l 935 0 l 306 0 q 137 53 194 0 q 79 206 79 107 q 231 425 79 361 l 739 643 q 788 713 788 663 q 717 774 788 774 l 113 774 l 113 938 m 244 1283 l 401 1283 l 493 1111 q 522 1099 501 1099 q 549 1111 543 1099 l 642 1283 l 799 1283 l 672 1057 q 521 985 635 985 q 369 1057 407 985 l 244 1283 z "},"ž":{"ha":867,"x_min":71,"x_max":797,"o":"m 97 733 l 608 733 q 749 688 701 733 q 797 565 797 643 q 672 389 797 435 l 251 236 q 213 186 213 221 q 268 142 213 142 l 782 142 l 782 0 l 260 0 q 119 45 167 0 q 71 168 71 90 q 196 346 71 301 l 618 497 q 657 549 657 511 q 600 592 657 592 l 97 592 l 97 733 m 156 1079 l 313 1079 l 404 907 q 433 894 413 894 q 460 907 454 894 l 553 1079 l 710 1079 l 583 853 q 432 781 546 781 q 281 853 318 781 l 156 1079 z "},"ƀ":{"ha":965,"x_min":106,"x_max":894,"o":"m 106 1051 l 253 1051 l 253 996 l 743 996 l 743 872 l 253 872 l 253 733 l 578 733 q 811 641 728 733 q 894 367 894 549 q 811 92 894 185 q 578 0 728 0 l 375 0 q 106 314 106 0 l 106 1051 m 563 592 l 253 592 l 253 321 q 291 185 253 226 q 418 143 329 143 l 563 143 q 702 196 658 143 q 746 367 746 249 q 702 538 746 485 q 563 592 658 592 z "},"Ɓ":{"ha":1249,"x_min":10,"x_max":1174,"o":"m 219 938 l 856 938 q 1092 869 1015 938 q 1169 681 1169 800 q 1035 472 1169 525 q 1174 258 1174 415 q 1096 70 1174 140 q 860 0 1018 0 l 443 0 q 365 76 365 0 l 365 811 l 251 811 q 157 699 157 811 l 157 582 l 10 582 l 10 682 q 62 878 10 818 q 219 938 114 938 m 526 406 l 526 178 q 544 163 526 163 l 864 163 q 1008 285 1008 163 q 864 406 1008 406 l 526 406 m 526 776 l 526 542 l 860 542 q 1004 654 1004 542 q 861 776 1004 776 l 526 776 z "},"Ƈ":{"ha":1044,"x_min":79,"x_max":1044,"o":"m 503 938 l 696 938 q 906 1086 732 1086 l 1044 1086 l 1044 951 l 938 951 q 858 922 883 951 q 833 828 833 893 l 833 725 l 685 725 l 685 774 l 503 774 q 305 701 367 774 q 243 468 243 629 q 305 236 243 308 q 503 164 367 164 l 865 164 l 865 0 l 503 0 q 188 117 296 0 q 79 468 79 235 q 188 819 79 701 q 503 938 296 938 z "},"ƈ":{"ha":947,"x_min":71,"x_max":946,"o":"m 389 733 l 599 733 q 669 845 618 811 q 807 879 719 879 l 946 879 l 946 744 l 839 744 q 760 715 785 744 q 735 621 735 686 l 735 518 l 586 518 l 586 592 l 403 592 q 263 538 307 592 q 219 367 219 485 q 263 196 219 249 q 403 143 307 143 l 767 143 l 767 0 l 389 0 q 155 92 239 0 q 71 367 71 185 q 155 641 71 549 q 389 733 239 733 z "},"Ɗ":{"ha":1271,"x_min":10,"x_max":1190,"o":"m 219 938 l 768 938 q 1190 468 1190 938 q 768 0 1190 0 l 438 0 q 360 76 360 0 l 360 811 l 251 811 q 157 699 157 811 l 157 582 l 10 582 l 10 682 q 62 878 10 818 q 219 938 114 938 m 524 774 l 524 181 q 542 164 524 164 l 768 164 q 965 236 904 164 q 1026 469 1026 308 q 965 702 1026 631 q 768 774 904 774 l 524 774 z "},"Ǝ":{"ha":963,"x_min":100,"x_max":886,"o":"m 101 938 l 569 938 q 806 869 728 938 q 883 686 883 801 q 751 471 883 526 q 886 251 886 413 q 808 69 886 139 q 574 0 731 0 l 100 0 l 100 164 l 574 164 q 715 283 715 164 q 572 396 715 396 l 108 396 l 108 544 l 568 544 q 711 657 711 544 q 569 774 711 774 l 101 774 l 101 938 z "},"Ə":{"ha":1013,"x_min":79,"x_max":939,"o":"m 515 0 l 371 0 q 151 81 222 0 q 79 293 79 161 q 142 488 79 418 q 328 557 206 557 l 769 557 q 694 722 756 669 q 515 774 632 774 l 129 774 l 129 938 l 515 938 q 831 819 722 938 q 939 468 939 701 q 831 117 939 235 q 515 0 722 0 m 515 164 q 702 224 640 164 q 774 415 764 283 l 344 415 q 258 384 288 415 q 229 296 229 353 q 262 199 229 235 q 360 164 294 164 l 515 164 z "},"ƒ":{"ha":521,"x_min":-64,"x_max":483,"o":"m 32 733 l 132 733 l 132 799 q 182 995 132 939 q 349 1051 232 1051 l 481 1051 l 481 917 l 379 917 q 303 892 326 917 q 281 807 281 868 l 281 733 l 483 733 l 483 592 l 281 592 l 281 -42 q 231 -238 281 -182 q 65 -294 181 -294 l -64 -294 l -64 -153 l 32 -153 q 109 -128 86 -153 q 132 -43 132 -104 l 132 592 l 32 592 l 32 733 z "},"Ɣ":{"ha":1089,"x_min":26,"x_max":1065,"o":"m 26 938 l 210 938 l 544 383 l 882 938 l 1065 938 l 632 240 l 732 76 q 813 -174 813 -64 q 755 -315 813 -264 q 586 -367 697 -367 l 504 -367 q 335 -315 393 -367 q 278 -174 278 -264 q 358 76 278 -64 l 458 240 l 26 938 m 608 0 l 544 101 l 482 0 q 401 -203 401 -131 q 514 -286 401 -286 l 578 -286 q 689 -203 689 -286 q 608 0 689 -128 z "},"Ƙ":{"ha":1065,"x_min":114,"x_max":1067,"o":"m 608 657 l 685 806 q 788 942 738 908 q 914 976 839 976 l 1067 976 l 1067 842 l 946 842 q 885 822 910 842 q 829 742 860 803 l 781 646 q 710 540 747 581 q 618 475 674 499 q 722 419 682 458 q 804 294 761 379 l 956 0 l 772 0 l 629 278 q 545 372 590 353 q 368 392 500 392 l 278 392 l 278 0 l 114 0 l 114 938 l 278 938 l 278 540 l 368 540 q 528 560 489 540 q 608 657 568 579 z "},"ƙ":{"ha":836,"x_min":106,"x_max":810,"o":"m 106 0 l 106 783 q 159 989 106 928 q 326 1050 213 1050 l 465 1050 l 465 915 l 358 915 q 278 886 304 915 q 253 792 253 857 l 253 429 l 321 429 q 442 442 411 429 q 504 513 472 456 l 626 733 l 786 733 l 658 503 q 528 372 604 404 q 609 326 576 358 q 678 231 642 293 l 810 0 l 644 0 l 522 217 q 454 290 490 274 q 321 306 418 306 l 253 306 l 253 0 l 106 0 z "},"Ɲ":{"ha":1221,"x_min":-83,"x_max":1110,"o":"m 113 -43 l 113 750 q 167 899 113 844 q 328 954 221 954 q 472 910 421 954 q 556 781 524 867 l 829 182 q 889 143 849 143 q 930 158 915 143 q 944 196 944 172 l 944 938 l 1110 938 l 1110 189 q 1055 38 1110 93 q 894 -17 1000 -17 q 749 27 801 -17 q 665 157 697 71 l 392 756 q 333 796 374 796 q 276 742 276 796 l 276 -42 q 220 -237 276 -181 q 46 -294 164 -294 l -83 -294 l -83 -153 l 13 -153 q 90 -128 67 -153 q 113 -43 113 -104 z "},"Ơ":{"ha":1133,"x_min":79,"x_max":1133,"o":"m 503 938 l 903 938 q 966 959 947 938 q 985 1033 985 981 l 985 1181 l 1133 1181 l 1133 1035 q 1094 857 1133 911 q 964 796 1054 803 q 1054 467 1054 678 q 946 117 1054 233 q 631 0 838 0 l 503 0 q 188 117 296 0 q 79 467 79 233 q 188 819 79 701 q 503 938 296 938 m 631 774 l 503 774 q 305 701 367 774 q 243 468 243 628 q 304 235 243 307 q 503 164 365 164 l 631 164 q 828 235 767 164 q 889 468 889 307 q 828 701 889 628 q 631 774 767 774 z "},"ơ":{"ha":1004,"x_min":71,"x_max":989,"o":"m 389 733 l 758 733 q 822 755 803 733 q 840 829 840 776 l 840 976 l 989 976 l 989 831 q 947 650 989 704 q 811 592 904 596 q 861 365 861 503 q 777 92 861 185 q 543 0 693 0 l 389 0 q 155 92 239 0 q 71 365 71 185 q 155 640 71 547 q 389 733 239 733 m 529 592 l 403 592 q 263 538 307 592 q 219 365 219 485 q 263 196 219 249 q 403 143 307 143 l 529 143 q 669 196 625 143 q 713 365 713 249 q 669 538 713 485 q 529 592 625 592 z "},"Ư":{"ha":1201,"x_min":107,"x_max":1201,"o":"m 107 938 l 274 938 l 274 311 q 429 164 274 164 l 596 164 q 750 311 750 164 l 750 938 l 971 938 q 1034 959 1015 938 q 1053 1033 1053 981 l 1053 1181 l 1201 1181 l 1201 1035 q 1155 849 1201 901 q 1003 796 1108 796 l 911 796 l 911 299 q 607 0 911 0 l 410 0 q 107 299 107 0 l 107 938 z "},"ư":{"ha":1164,"x_min":101,"x_max":1164,"o":"m 101 733 l 250 733 l 250 294 q 298 185 250 228 q 431 143 346 143 l 550 143 q 682 185 635 143 q 729 294 729 228 l 729 733 l 933 733 q 997 755 978 733 q 1015 829 1015 776 l 1015 976 l 1164 976 l 1164 831 q 1117 645 1164 699 q 965 592 1071 592 l 874 592 l 874 289 q 791 79 874 158 q 556 0 708 0 l 419 0 q 184 79 267 0 q 101 289 101 158 l 101 733 z "},"Ƴ":{"ha":1044,"x_min":18,"x_max":1044,"o":"m 818 765 l 561 404 l 561 0 l 396 0 l 396 404 l 18 938 l 217 938 l 479 536 l 674 829 q 781 947 732 917 q 899 976 829 976 l 1044 976 l 1044 842 l 931 842 q 877 827 901 842 q 818 765 853 813 z "},"ƴ":{"ha":1063,"x_min":26,"x_max":1064,"o":"m 846 667 l 431 -294 l 272 -294 l 410 26 q 321 47 350 26 q 272 117 292 67 l 26 733 l 182 733 l 403 188 q 418 163 410 168 q 447 157 426 157 l 467 157 l 696 697 q 794 844 743 806 q 925 882 844 882 l 1064 882 l 1064 747 l 957 747 q 894 731 921 747 q 846 667 868 715 z "},"Ǆ":{"ha":2056,"x_min":114,"x_max":1979,"o":"m 192 938 l 522 938 q 944 468 944 938 q 522 0 944 0 l 192 0 q 114 76 114 0 l 114 861 q 192 938 114 938 m 278 757 l 278 181 q 296 164 278 164 l 522 164 q 719 236 658 164 q 781 469 781 308 q 719 702 781 631 q 522 774 658 774 l 296 774 q 278 757 278 774 m 1136 938 l 1751 938 q 1921 884 1863 938 q 1979 732 1979 831 q 1829 513 1979 578 l 1318 294 q 1271 225 1271 274 q 1289 181 1271 197 q 1340 164 1307 164 l 1958 164 l 1958 0 l 1329 0 q 1160 53 1218 0 q 1103 206 1103 107 q 1254 425 1103 361 l 1763 643 q 1811 713 1811 663 q 1740 774 1811 774 l 1136 774 l 1136 938 m 1268 1283 l 1425 1283 l 1517 1111 q 1546 1099 1525 1099 q 1572 1111 1567 1099 l 1665 1283 l 1822 1283 l 1696 1057 q 1544 985 1658 985 q 1393 1057 1431 985 l 1268 1283 z "},"ǅ":{"ha":1889,"x_min":114,"x_max":1821,"o":"m 192 938 l 522 938 q 944 468 944 938 q 522 0 944 0 l 192 0 q 114 76 114 0 l 114 861 q 192 938 114 938 m 278 757 l 278 181 q 296 164 278 164 l 522 164 q 719 236 658 164 q 781 469 781 308 q 719 702 781 631 q 522 774 658 774 l 296 774 q 278 757 278 774 m 1121 733 l 1632 733 q 1773 688 1725 733 q 1821 565 1821 643 q 1696 389 1821 435 l 1275 236 q 1236 186 1236 221 q 1292 142 1236 142 l 1806 142 l 1806 0 l 1283 0 q 1142 45 1190 0 q 1094 168 1094 90 q 1219 346 1094 301 l 1642 497 q 1681 549 1681 511 q 1624 592 1681 592 l 1121 592 l 1121 733 m 1179 1079 l 1336 1079 l 1428 907 q 1457 894 1436 894 q 1483 907 1478 894 l 1576 1079 l 1733 1079 l 1607 853 q 1456 781 1569 781 q 1304 853 1342 781 l 1179 1079 z "},"ǆ":{"ha":1831,"x_min":71,"x_max":1763,"o":"m 713 1051 l 861 1051 l 861 314 q 592 0 861 0 l 389 0 q 155 92 239 0 q 71 367 71 185 q 155 641 71 549 q 389 733 239 733 l 713 733 l 713 1051 m 549 143 q 674 185 636 143 q 713 321 713 226 l 713 592 l 403 592 q 263 538 307 592 q 219 367 219 485 q 263 196 219 249 q 403 143 307 143 l 549 143 m 1063 733 l 1574 733 q 1715 688 1667 733 q 1763 565 1763 643 q 1638 389 1763 435 l 1217 236 q 1178 186 1178 221 q 1233 142 1178 142 l 1747 142 l 1747 0 l 1225 0 q 1084 45 1132 0 q 1036 168 1036 90 q 1161 346 1036 301 l 1583 497 q 1622 549 1622 511 q 1565 592 1622 592 l 1063 592 l 1063 733 m 1121 1079 l 1278 1079 l 1369 907 q 1399 894 1378 894 q 1425 907 1419 894 l 1518 1079 l 1675 1079 l 1549 853 q 1397 781 1511 781 q 1246 853 1283 781 l 1121 1079 z "},"ǝ":{"ha":906,"x_min":90,"x_max":831,"o":"m 575 0 l 338 0 q 90 225 90 0 q 149 383 90 329 q 339 436 207 436 l 688 436 l 688 489 q 575 590 688 590 l 126 590 l 126 733 l 575 733 q 768 668 706 733 q 831 492 831 603 l 831 242 q 768 65 831 131 q 575 0 706 0 m 688 243 l 688 321 l 343 321 q 235 233 235 321 q 339 142 235 142 l 575 142 q 660 169 632 142 q 688 243 688 197 z "},"Ǧ":{"ha":1013,"x_min":79,"x_max":939,"o":"m 503 938 l 889 938 l 889 774 l 503 774 q 305 701 367 774 q 243 468 243 629 q 305 236 243 308 q 503 164 367 164 l 658 164 q 756 199 724 164 q 789 296 789 235 q 760 384 789 353 q 674 415 731 415 l 465 415 l 465 558 l 690 558 q 876 488 813 558 q 939 293 939 418 q 867 81 939 161 q 647 0 796 0 l 503 0 q 188 117 296 0 q 79 468 79 235 q 188 819 79 701 q 503 938 296 938 m 282 1283 l 439 1283 l 531 1111 q 560 1099 539 1099 q 586 1111 581 1099 l 679 1283 l 836 1283 l 710 1057 q 558 985 672 985 q 407 1057 444 985 l 282 1283 z "},"ǧ":{"ha":961,"x_min":71,"x_max":861,"o":"m 389 733 l 592 733 q 861 419 861 733 l 861 -3 q 799 -226 861 -160 q 583 -293 736 -293 l 147 -293 l 147 -151 l 567 -151 q 680 -117 647 -151 q 713 -3 713 -83 l 713 31 l 389 31 q 155 119 239 31 q 71 383 71 208 q 155 645 71 557 q 389 733 239 733 m 263 541 q 241 516 263 541 q 219 378 219 490 q 263 215 219 265 q 403 164 307 164 l 713 164 l 713 421 q 674 551 713 511 q 549 592 636 592 l 403 592 q 263 541 307 592 m 204 1079 l 361 1079 l 453 907 q 482 894 461 894 q 508 907 503 894 l 601 1079 l 758 1079 l 632 853 q 481 781 594 781 q 329 853 367 781 l 204 1079 z "},"ǰ":{"ha":478,"x_min":-32,"x_max":522,"o":"m -32 1079 l 125 1079 l 217 907 q 246 894 225 894 q 272 907 267 894 l 365 1079 l 522 1079 l 396 853 q 244 781 358 781 q 93 853 131 781 l -32 1079 m 175 733 l 324 733 l 324 -42 q 274 -238 324 -182 q 108 -294 224 -294 l -21 -294 l -21 -153 l 75 -153 q 152 -128 129 -153 q 175 -43 175 -104 l 175 733 z "},"Ǳ":{"ha":2056,"x_min":114,"x_max":1979,"o":"m 192 938 l 522 938 q 944 468 944 938 q 522 0 944 0 l 192 0 q 114 76 114 0 l 114 861 q 192 938 114 938 m 278 757 l 278 181 q 296 164 278 164 l 522 164 q 719 236 658 164 q 781 469 781 308 q 719 702 781 631 q 522 774 658 774 l 296 774 q 278 757 278 774 m 1136 938 l 1751 938 q 1921 884 1863 938 q 1979 732 1979 831 q 1829 513 1979 578 l 1318 294 q 1271 225 1271 274 q 1289 181 1271 197 q 1340 164 1307 164 l 1958 164 l 1958 0 l 1329 0 q 1160 53 1218 0 q 1103 206 1103 107 q 1254 425 1103 361 l 1763 643 q 1811 713 1811 663 q 1740 774 1811 774 l 1136 774 l 1136 938 z "},"ǲ":{"ha":1889,"x_min":114,"x_max":1821,"o":"m 192 938 l 522 938 q 944 468 944 938 q 522 0 944 0 l 192 0 q 114 76 114 0 l 114 861 q 192 938 114 938 m 278 757 l 278 181 q 296 164 278 164 l 522 164 q 719 236 658 164 q 781 469 781 308 q 719 702 781 631 q 522 774 658 774 l 296 774 q 278 757 278 774 m 1121 733 l 1632 733 q 1773 688 1725 733 q 1821 565 1821 643 q 1696 389 1821 435 l 1275 236 q 1236 186 1236 221 q 1292 142 1236 142 l 1806 142 l 1806 0 l 1283 0 q 1142 45 1190 0 q 1094 168 1094 90 q 1219 346 1094 301 l 1642 497 q 1681 549 1681 511 q 1624 592 1681 592 l 1121 592 l 1121 733 z "},"ǳ":{"ha":1831,"x_min":71,"x_max":1763,"o":"m 713 1051 l 861 1051 l 861 314 q 592 0 861 0 l 389 0 q 155 92 239 0 q 71 367 71 185 q 155 641 71 549 q 389 733 239 733 l 713 733 l 713 1051 m 549 143 q 674 185 636 143 q 713 321 713 226 l 713 592 l 403 592 q 263 538 307 592 q 219 367 219 485 q 263 196 219 249 q 403 143 307 143 l 549 143 m 1063 733 l 1574 733 q 1715 688 1667 733 q 1763 565 1763 643 q 1638 389 1763 435 l 1217 236 q 1178 186 1178 221 q 1233 142 1178 142 l 1747 142 l 1747 0 l 1225 0 q 1084 45 1132 0 q 1036 168 1036 90 q 1161 346 1036 301 l 1583 497 q 1622 549 1622 511 q 1565 592 1622 592 l 1063 592 l 1063 733 z "},"Ǵ":{"ha":1013,"x_min":79,"x_max":939,"o":"m 503 938 l 889 938 l 889 774 l 503 774 q 305 701 367 774 q 243 468 243 629 q 305 236 243 308 q 503 164 367 164 l 658 164 q 756 199 724 164 q 789 296 789 235 q 760 384 789 353 q 674 415 731 415 l 465 415 l 465 558 l 690 558 q 876 488 813 558 q 939 293 939 418 q 867 81 939 161 q 647 0 796 0 l 503 0 q 188 117 296 0 q 79 468 79 235 q 188 819 79 701 q 503 938 296 938 m 571 1283 l 735 1283 l 561 985 l 415 985 l 571 1283 z "},"ǵ":{"ha":961,"x_min":71,"x_max":861,"o":"m 389 733 l 592 733 q 861 419 861 733 l 861 -3 q 799 -226 861 -160 q 583 -293 736 -293 l 147 -293 l 147 -151 l 567 -151 q 680 -117 647 -151 q 713 -3 713 -83 l 713 31 l 389 31 q 155 119 239 31 q 71 383 71 208 q 155 645 71 557 q 389 733 239 733 m 263 541 q 241 516 263 541 q 219 378 219 490 q 263 215 219 265 q 403 164 307 164 l 713 164 l 713 421 q 674 551 713 511 q 549 592 636 592 l 403 592 q 263 541 307 592 m 492 1079 l 656 1079 l 482 781 l 336 781 l 492 1079 z "},"Ǹ":{"ha":1221,"x_min":113,"x_max":1110,"o":"m 276 742 l 276 0 l 113 0 l 113 750 q 167 899 113 844 q 328 954 221 954 q 472 910 421 954 q 556 781 524 867 l 829 182 q 889 143 849 143 q 930 158 915 143 q 944 196 944 172 l 944 938 l 1110 938 l 1110 189 q 1055 38 1110 93 q 894 -17 1000 -17 q 749 27 801 -17 q 665 157 697 71 l 392 756 q 333 796 374 796 q 276 742 276 796 m 435 1283 l 599 1283 l 754 985 l 607 985 l 435 1283 z "},"ǹ":{"ha":982,"x_min":106,"x_max":881,"o":"m 208 733 l 511 733 q 788 650 694 733 q 881 413 881 567 l 881 0 l 732 0 l 732 413 q 511 592 732 592 l 271 592 q 253 571 253 592 l 253 0 l 106 0 l 106 619 q 129 708 106 683 q 208 733 153 733 m 313 1079 l 476 1079 l 632 781 l 485 781 l 313 1079 z "},"Ș":{"ha":976,"x_min":71,"x_max":908,"o":"m 363 938 l 838 938 l 838 774 l 357 774 q 265 744 296 774 q 235 663 235 714 q 374 551 235 551 l 593 551 q 749 528 685 551 q 847 463 814 504 q 894 376 881 421 q 908 275 908 331 q 835 74 908 149 q 610 0 763 0 l 88 0 l 88 164 l 615 164 q 712 196 679 164 q 744 281 744 228 q 597 397 744 397 l 379 397 q 226 420 290 397 q 131 484 163 443 q 85 569 99 525 q 71 668 71 614 q 142 865 71 792 q 363 938 214 938 m 422 -33 l 569 -33 l 569 -182 q 400 -367 569 -367 l 354 -367 l 354 -256 l 371 -256 q 422 -197 422 -256 l 422 -33 z "},"ș":{"ha":814,"x_min":71,"x_max":746,"o":"m 310 733 l 717 733 l 717 592 l 311 592 q 215 508 215 592 q 238 449 215 468 q 319 429 261 429 l 492 429 q 690 374 633 429 q 746 222 746 318 q 688 59 746 118 q 506 0 629 0 l 79 0 l 79 143 l 506 143 q 579 162 557 143 q 601 224 601 181 q 577 286 601 267 q 497 306 553 306 l 324 306 q 71 519 71 306 q 310 733 71 733 m 346 -33 l 493 -33 l 493 -182 q 324 -367 493 -367 l 278 -367 l 278 -256 l 294 -256 q 346 -197 346 -256 l 346 -33 z "},"Ț":{"ha":793,"x_min":40,"x_max":753,"o":"m 40 938 l 753 938 l 753 774 l 479 774 l 479 0 l 314 0 l 314 774 l 40 774 l 40 938 m 324 -33 l 471 -33 l 471 -182 q 301 -367 471 -367 l 256 -367 l 256 -256 l 272 -256 q 324 -197 324 -256 l 324 -33 z "},"ț":{"ha":521,"x_min":32,"x_max":483,"o":"m 32 733 l 132 733 l 132 907 l 281 907 l 281 733 l 483 733 l 483 592 l 281 592 l 281 244 q 303 159 281 183 q 379 135 326 135 l 481 135 l 481 0 l 349 0 q 182 56 232 0 q 132 253 132 113 l 132 592 l 32 592 l 32 733 m 214 -33 l 361 -33 l 361 -182 q 192 -367 361 -367 l 146 -367 l 146 -256 l 163 -256 q 214 -197 214 -256 l 214 -33 z "},"ȷ":{"ha":375,"x_min":-75,"x_max":269,"o":"m 121 733 l 269 733 l 269 -42 q 219 -238 269 -182 q 54 -294 169 -294 l -75 -294 l -75 -153 l 21 -153 q 98 -128 75 -153 q 121 -43 121 -104 l 121 733 z "},"Ɂ":{"ha":701,"x_min":47,"x_max":646,"o":"m 47 1051 l 382 1051 q 581 988 517 1051 q 646 813 646 924 q 590 640 646 707 q 424 572 535 572 l 393 572 q 314 493 314 572 l 314 0 l 165 0 l 165 524 q 203 656 165 613 q 333 700 242 700 l 396 700 q 473 730 447 700 q 499 807 499 760 q 381 910 499 910 l 47 910 l 47 1051 z "},"ɂ":{"ha":701,"x_min":47,"x_max":646,"o":"m 47 733 l 382 733 q 581 670 517 733 q 646 496 646 607 q 590 323 646 390 q 424 256 535 256 l 393 256 q 314 175 314 256 l 314 0 l 165 0 l 165 207 q 203 340 165 296 q 333 383 242 383 l 396 383 q 473 413 447 383 q 499 490 499 442 q 381 592 499 592 l 47 592 l 47 733 z "},"Ɍ":{"ha":1065,"x_min":11,"x_max":1014,"o":"m 185 938 l 693 938 q 919 858 843 938 q 994 657 994 778 q 945 482 994 561 q 796 375 896 403 l 1014 0 l 832 0 l 618 363 l 350 363 l 350 0 l 186 0 l 186 363 l 11 363 l 11 519 l 699 519 q 797 557 764 519 q 829 650 829 594 q 796 739 829 704 q 699 774 763 774 l 185 774 l 185 938 z "},"ɍ":{"ha":706,"x_min":31,"x_max":668,"o":"m 31 400 l 167 400 l 167 519 q 213 683 167 632 q 365 733 258 733 l 667 733 l 667 592 l 408 592 q 314 497 314 592 l 314 400 l 668 400 l 668 276 l 314 276 l 314 0 l 167 0 l 167 276 l 31 276 l 31 400 z "},"ɓ":{"ha":965,"x_min":106,"x_max":894,"o":"m 106 314 l 106 783 q 159 989 106 928 q 326 1050 213 1050 l 465 1050 l 465 915 l 358 915 q 278 886 304 915 q 253 792 253 857 l 253 733 l 578 733 q 811 641 728 733 q 894 367 894 549 q 811 92 894 185 q 578 0 728 0 l 375 0 q 106 314 106 0 m 563 592 l 253 592 l 253 321 q 291 185 253 226 q 418 143 329 143 l 563 143 q 702 196 658 143 q 746 367 746 249 q 702 538 746 485 q 563 592 658 592 z "},"ɗ":{"ha":1072,"x_min":71,"x_max":1072,"o":"m 713 733 l 713 785 q 766 990 713 929 q 933 1051 819 1051 l 1072 1051 l 1072 917 l 965 917 q 886 888 911 917 q 861 793 861 858 l 861 314 q 592 0 861 0 l 389 0 q 155 92 239 0 q 71 367 71 185 q 155 641 71 549 q 389 733 239 733 l 713 733 m 549 143 q 674 185 636 143 q 713 321 713 226 l 713 592 l 403 592 q 263 538 307 592 q 219 367 219 485 q 263 196 219 249 q 403 143 307 143 l 549 143 z "},"ɣ":{"ha":940,"x_min":25,"x_max":914,"o":"m 25 733 l 199 733 l 469 286 l 740 733 l 914 733 l 542 165 q 697 -196 697 -97 q 504 -367 697 -367 l 433 -367 q 240 -197 240 -367 q 396 164 240 -97 l 25 733 m 468 51 q 373 -110 399 -57 q 347 -196 347 -162 q 442 -262 347 -262 l 496 -262 q 589 -196 589 -262 q 468 51 589 -133 z "},"ɲ":{"ha":982,"x_min":-92,"x_max":881,"o":"m 106 -43 l 106 619 q 129 708 106 683 q 208 733 153 733 l 511 733 q 788 650 694 733 q 881 413 881 567 l 881 0 l 732 0 l 732 413 q 511 592 732 592 l 271 592 q 253 571 253 592 l 253 -42 q 203 -238 253 -182 q 38 -294 153 -294 l -92 -294 l -92 -153 l 4 -153 q 83 -128 60 -153 q 106 -43 106 -104 z "},"ˆ":{"ha":708,"x_min":75,"x_max":629,"o":"m 75 781 l 200 1008 q 353 1079 236 1079 q 503 1008 465 1079 l 629 781 l 472 781 l 379 954 q 351 967 372 967 q 324 954 331 967 l 232 781 l 75 781 z "},"ˇ":{"ha":708,"x_min":75,"x_max":629,"o":"m 75 1079 l 232 1079 l 324 907 q 353 894 332 894 q 379 907 374 894 l 472 1079 l 629 1079 l 503 853 q 351 781 465 781 q 200 853 238 781 l 75 1079 z "},"˘":{"ha":719,"x_min":75,"x_max":640,"o":"m 75 1079 l 199 1079 l 199 1001 q 232 908 199 935 q 358 882 265 882 q 483 908 451 882 q 515 1001 515 933 l 515 1079 l 640 1079 l 640 1000 q 581 829 640 878 q 358 781 521 781 q 135 828 194 781 q 75 1000 75 876 l 75 1079 z "},"˙":{"ha":303,"x_min":75,"x_max":224,"o":"m 75 1010 l 224 1010 l 224 839 l 75 839 l 75 1010 z "},"˚":{"ha":532,"x_min":75,"x_max":449,"o":"m 214 1079 l 310 1079 q 412 1039 375 1079 q 449 919 449 999 q 412 800 449 840 q 310 760 375 760 l 214 760 q 112 800 149 760 q 75 919 75 840 q 111 1039 75 999 q 214 1079 147 1079 m 300 1008 l 222 1008 q 168 988 185 1008 q 151 919 151 967 q 168 853 151 874 q 222 832 185 832 l 300 832 q 371 919 371 832 q 300 1008 371 1008 z "},"˛":{"ha":518,"x_min":75,"x_max":435,"o":"m 197 -47 l 322 0 l 408 0 l 275 -57 q 208 -144 208 -87 q 233 -205 208 -182 q 304 -228 258 -228 l 435 -228 l 435 -367 l 258 -367 q 122 -322 169 -367 q 75 -204 75 -276 q 197 -47 75 -96 z "},"˜":{"ha":796,"x_min":75,"x_max":713,"o":"m 75 996 l 713 996 l 713 872 l 75 872 l 75 996 z "},"˝":{"ha":782,"x_min":35,"x_max":658,"o":"m 494 1079 l 658 1079 l 485 781 l 339 781 l 494 1079 m 190 1079 l 354 1079 l 181 781 l 35 781 l 190 1079 z "},"̀":{"ha":31,"x_min":-675,"x_max":-356,"o":"m -675 1079 l -511 1079 l -356 781 l -503 781 l -675 1079 z "},"́":{"ha":31,"x_min":-646,"x_max":-326,"o":"m -490 1079 l -326 1079 l -500 781 l -646 781 l -490 1079 z "},"̂":{"ha":31,"x_min":-769,"x_max":-215,"o":"m -769 781 l -644 1008 q -492 1079 -608 1079 q -342 1008 -379 1079 l -215 781 l -372 781 l -465 954 q -493 967 -472 967 q -521 954 -514 967 l -612 781 l -769 781 z "},"̃":{"ha":31,"x_min":-815,"x_max":-178,"o":"m -815 996 l -178 996 l -178 872 l -815 872 l -815 996 z "},"̄":{"ha":31,"x_min":-808,"x_max":-171,"o":"m -808 996 l -171 996 l -171 872 l -808 872 l -808 996 z "},"̆":{"ha":31,"x_min":-774,"x_max":-208,"o":"m -774 1079 l -650 1079 l -650 1001 q -617 908 -650 935 q -490 882 -583 882 q -365 908 -397 882 q -333 1001 -333 933 l -333 1079 l -208 1079 l -208 1000 q -268 829 -208 878 q -490 781 -328 781 q -714 828 -654 781 q -774 1000 -774 876 l -774 1079 z "},"̇":{"ha":31,"x_min":-575,"x_max":-426,"o":"m -575 1010 l -426 1010 l -426 839 l -575 839 l -575 1010 z "},"̈":{"ha":31,"x_min":-736,"x_max":-254,"o":"m -736 1010 l -587 1010 l -587 839 l -736 839 l -736 1010 m -403 1010 l -254 1010 l -254 839 l -403 839 l -403 1010 z "},"̉":{"ha":31,"x_min":-656,"x_max":-215,"o":"m -656 1258 l -422 1258 q -215 1074 -215 1258 q -259 939 -215 992 q -389 886 -303 886 l -418 886 q -472 870 -457 886 q -486 818 -486 854 l -486 781 l -589 781 l -589 842 q -558 956 -589 921 q -447 990 -528 990 l -411 990 q -354 1013 -374 990 q -335 1069 -335 1035 q -424 1144 -335 1144 l -656 1144 l -656 1258 z "},"̊":{"ha":31,"x_min":-682,"x_max":-308,"o":"m -543 1079 l -447 1079 q -345 1039 -382 1079 q -308 919 -308 999 q -345 800 -308 840 q -447 760 -382 760 l -543 760 q -645 800 -608 760 q -682 919 -682 840 q -646 1039 -682 999 q -543 1079 -610 1079 m -457 1008 l -535 1008 q -589 988 -572 1008 q -606 919 -606 967 q -589 853 -606 874 q -535 832 -572 832 l -457 832 q -386 919 -386 832 q -457 1008 -386 1008 z "},"̋":{"ha":31,"x_min":-781,"x_max":-157,"o":"m -321 1079 l -157 1079 l -331 781 l -476 781 l -321 1079 m -625 1079 l -461 1079 l -635 781 l -781 781 l -625 1079 z "},"̌":{"ha":31,"x_min":-769,"x_max":-215,"o":"m -769 1079 l -612 1079 l -521 907 q -492 894 -512 894 q -465 907 -471 894 l -372 1079 l -215 1079 l -342 853 q -493 781 -379 781 q -644 853 -607 781 l -769 1079 z "},"̓":{"ha":31,"x_min":-581,"x_max":-340,"o":"m -400 1167 l -340 1167 l -340 1047 l -368 1047 q -422 988 -422 1047 l -422 781 l -581 781 l -581 971 q -400 1167 -581 1167 z "},"̛":{"ha":213,"x_min":-222,"x_max":213,"o":"m 64 976 l 213 976 l 213 831 q 166 645 213 699 q 14 592 119 592 l -222 592 l -222 733 l -18 733 q 45 755 26 733 q 64 829 64 776 l 64 976 z "},"̣":{"ha":31,"x_min":-571,"x_max":-422,"o":"m -571 -106 l -422 -106 l -422 -276 l -571 -276 l -571 -106 z "},"̦":{"ha":31,"x_min":-624,"x_max":-408,"o":"m -556 -33 l -408 -33 l -408 -182 q -578 -367 -408 -367 l -624 -367 l -624 -256 l -607 -256 q -556 -197 -556 -256 l -556 -33 z "},"̨":{"ha":31,"x_min":-736,"x_max":-376,"o":"m -614 -47 l -489 0 l -403 0 l -536 -57 q -603 -144 -603 -87 q -578 -205 -603 -182 q -507 -228 -553 -228 l -376 -228 l -376 -367 l -553 -367 q -689 -322 -642 -367 q -736 -204 -736 -276 q -614 -47 -736 -96 z "},"̭":{"ha":31,"x_min":-776,"x_max":-222,"o":"m -776 -367 l -651 -139 q -499 -68 -615 -68 q -349 -139 -386 -68 l -222 -367 l -379 -367 l -472 -193 q -500 -181 -478 -181 q -528 -193 -521 -181 l -619 -367 l -776 -367 z "},"΄":{"ha":333,"x_min":35,"x_max":250,"o":"m 103 1079 l 250 1079 l 167 781 l 35 781 l 103 1079 z "},"΅":{"ha":740,"x_min":61,"x_max":679,"o":"m 331 1079 l 478 1079 l 394 781 l 263 781 l 331 1079 m 531 1010 l 679 1010 l 679 839 l 531 839 l 531 1010 m 61 1010 l 210 1010 l 210 839 l 61 839 l 61 1010 z "},"Ά":{"ha":1149,"x_min":83,"x_max":1124,"o":"m 942 0 l 868 193 l 343 193 l 267 0 l 86 0 l 415 833 q 613 954 458 954 q 807 833 765 954 l 1124 0 l 942 0 m 564 754 l 404 349 l 810 349 l 657 754 q 611 786 644 786 q 564 754 578 786 m 151 1079 l 299 1079 l 215 781 l 83 781 l 151 1079 z "},"·":{"ha":336,"x_min":89,"x_max":247,"o":"m 89 539 l 247 539 l 247 350 l 89 350 l 89 539 z "},"Έ":{"ha":1107,"x_min":35,"x_max":1007,"o":"m 536 938 l 1006 938 l 1006 774 l 536 774 q 394 656 394 774 q 538 544 394 544 l 999 544 l 999 396 l 533 396 q 390 282 390 396 q 532 164 390 164 l 1007 164 l 1007 0 l 532 0 q 297 69 374 0 q 219 256 219 139 q 354 471 219 414 q 222 682 222 525 q 299 869 222 800 q 536 938 376 938 m 103 1079 l 250 1079 l 167 781 l 35 781 l 103 1079 z "},"Ή":{"ha":1211,"x_min":35,"x_max":1099,"o":"m 290 938 l 454 938 l 454 556 l 933 556 l 933 938 l 1099 938 l 1099 0 l 933 0 l 933 392 l 454 392 l 454 0 l 290 0 l 290 938 m 103 1079 l 250 1079 l 167 781 l 35 781 l 103 1079 z "},"Ί":{"ha":565,"x_min":35,"x_max":453,"o":"m 289 938 l 453 938 l 453 0 l 289 0 l 289 938 m 103 1079 l 250 1079 l 167 781 l 35 781 l 103 1079 z "},"Ό":{"ha":1226,"x_min":35,"x_max":1147,"o":"m 596 938 l 724 938 q 1039 819 931 938 q 1147 467 1147 701 q 1039 117 1147 233 q 724 0 931 0 l 596 0 q 281 117 389 0 q 172 467 172 233 q 281 819 172 701 q 596 938 389 938 m 724 774 l 596 774 q 398 701 460 774 q 336 467 336 628 q 398 235 336 307 q 596 164 460 164 l 724 164 q 921 235 860 164 q 982 468 982 307 q 921 701 982 628 q 724 774 860 774 m 103 1079 l 250 1079 l 167 781 l 35 781 l 103 1079 z "},"Ύ":{"ha":1217,"x_min":35,"x_max":1199,"o":"m 278 938 l 476 938 l 739 536 l 1004 938 l 1199 938 l 821 404 l 821 0 l 656 0 l 656 404 l 278 938 m 103 1079 l 250 1079 l 167 781 l 35 781 l 103 1079 z "},"Ώ":{"ha":1228,"x_min":35,"x_max":1189,"o":"m 554 938 l 797 938 q 1062 853 967 938 q 1157 608 1157 769 q 1013 325 1157 422 l 890 232 q 863 192 863 211 q 900 164 863 164 l 1189 164 l 1189 0 l 924 0 q 781 42 824 0 q 738 165 738 85 q 813 326 738 276 l 913 408 q 992 578 992 471 q 785 774 992 774 l 567 774 q 360 578 360 774 q 440 408 360 471 l 539 326 q 614 165 614 276 q 571 42 614 85 q 428 0 528 0 l 164 0 l 164 164 l 453 164 q 489 192 489 164 q 461 232 489 211 l 339 325 q 194 608 194 422 q 290 853 194 769 q 554 938 385 938 m 103 1079 l 250 1079 l 167 781 l 35 781 l 103 1079 z "},"ΐ":{"ha":626,"x_min":-17,"x_max":601,"o":"m 181 733 l 328 733 l 328 244 q 351 160 328 185 q 426 135 374 135 l 529 135 l 529 0 l 394 0 q 231 56 281 0 q 181 253 181 113 l 181 733 m 253 1079 l 400 1079 l 317 781 l 185 781 l 253 1079 m 453 1010 l 601 1010 l 601 839 l 453 839 l 453 1010 m -17 1010 l 132 1010 l 132 839 l -17 839 l -17 1010 z "},"Α":{"ha":1089,"x_min":26,"x_max":1064,"o":"m 882 0 l 808 193 l 283 193 l 207 0 l 26 0 l 356 833 q 553 954 399 954 q 747 833 706 954 l 1064 0 l 882 0 m 504 754 l 344 349 l 750 349 l 597 754 q 551 786 585 786 q 504 754 518 786 z "},"Β":{"ha":999,"x_min":114,"x_max":922,"o":"m 192 938 l 604 938 q 841 869 764 938 q 918 681 918 800 q 783 472 918 525 q 922 258 922 415 q 844 70 922 140 q 608 0 767 0 l 192 0 q 114 76 114 0 l 114 861 q 192 938 114 938 m 275 406 l 275 178 q 293 163 275 163 l 613 163 q 757 285 757 163 q 613 406 757 406 l 275 406 m 275 760 l 275 542 l 608 542 q 753 654 753 542 q 610 776 753 776 l 293 776 q 275 760 275 776 z "},"Γ":{"ha":864,"x_min":104,"x_max":824,"o":"m 450 938 l 824 938 l 824 774 l 460 774 q 268 613 268 774 l 268 0 l 104 0 l 104 614 q 188 851 104 764 q 450 938 272 938 z "},"Δ":{"ha":1089,"x_min":38,"x_max":1057,"o":"m 500 754 l 265 186 q 281 164 261 164 l 814 164 q 829 186 838 164 l 596 754 q 547 786 582 786 q 500 754 514 786 m 50 76 l 350 833 q 547 954 396 954 q 744 833 701 954 l 1044 76 q 1043 22 1057 44 q 990 0 1029 0 l 106 0 q 52 22 67 0 q 50 76 38 43 z "},"Ε":{"ha":963,"x_min":76,"x_max":864,"o":"m 393 938 l 863 938 l 863 774 l 393 774 q 251 656 251 774 q 394 544 251 544 l 856 544 l 856 396 l 390 396 q 247 282 247 396 q 389 164 247 164 l 864 164 l 864 0 l 389 0 q 153 69 231 0 q 76 256 76 139 q 211 471 76 414 q 79 682 79 525 q 156 869 79 800 q 393 938 233 938 z "},"Ζ":{"ha":1032,"x_min":79,"x_max":956,"o":"m 113 938 l 728 938 q 897 884 839 938 q 956 732 956 831 q 806 513 956 578 l 294 294 q 247 225 247 274 q 265 181 247 197 q 317 164 283 164 l 935 164 l 935 0 l 306 0 q 137 53 194 0 q 79 206 79 107 q 231 425 79 361 l 739 643 q 788 713 788 663 q 717 774 788 774 l 113 774 l 113 938 z "},"Η":{"ha":1035,"x_min":114,"x_max":922,"o":"m 114 938 l 278 938 l 278 556 l 757 556 l 757 938 l 922 938 l 922 0 l 757 0 l 757 392 l 278 392 l 278 0 l 114 0 l 114 938 z "},"Θ":{"ha":1133,"x_min":79,"x_max":1054,"o":"m 368 544 l 764 544 l 764 396 l 368 396 l 368 544 m 503 938 l 631 938 q 946 819 838 938 q 1054 467 1054 701 q 946 117 1054 233 q 631 0 838 0 l 503 0 q 188 117 296 0 q 79 467 79 233 q 188 819 79 701 q 503 938 296 938 m 631 774 l 503 774 q 305 701 367 774 q 243 468 243 628 q 304 235 243 307 q 503 164 365 164 l 631 164 q 828 235 767 164 q 889 468 889 307 q 828 701 889 628 q 631 774 767 774 z "},"Ι":{"ha":390,"x_min":114,"x_max":278,"o":"m 114 938 l 278 938 l 278 0 l 114 0 l 114 938 z "},"Κ":{"ha":983,"x_min":114,"x_max":956,"o":"m 114 938 l 278 938 l 278 540 l 368 540 q 528 560 489 540 q 608 657 568 579 l 751 938 l 928 938 l 781 646 q 710 540 747 581 q 618 475 674 499 q 722 419 682 458 q 804 294 761 379 l 956 0 l 772 0 l 629 278 q 545 372 590 353 q 368 392 500 392 l 278 392 l 278 0 l 114 0 l 114 938 z "},"Λ":{"ha":1089,"x_min":26,"x_max":1064,"o":"m 504 754 l 207 0 l 26 0 l 356 833 q 553 954 404 954 q 747 833 701 954 l 1064 0 l 882 0 l 597 754 q 551 786 585 786 q 504 754 518 786 z "},"Μ":{"ha":1531,"x_min":113,"x_max":1418,"o":"m 275 736 l 275 0 l 113 0 l 113 744 q 169 898 113 842 q 338 954 226 954 q 574 769 532 954 l 706 196 q 768 143 719 143 q 831 196 817 143 l 963 769 q 1193 954 1004 954 q 1361 898 1304 954 q 1418 744 1418 842 l 1418 0 l 1256 0 l 1256 736 q 1238 780 1256 764 q 1189 796 1221 796 q 1124 746 1135 796 l 989 172 q 914 30 967 76 q 767 -17 861 -17 q 540 172 583 -17 l 407 746 q 342 796 396 796 q 292 780 310 796 q 275 736 275 764 z "},"Ν":{"ha":1221,"x_min":113,"x_max":1110,"o":"m 276 742 l 276 0 l 113 0 l 113 750 q 167 899 113 844 q 328 954 221 954 q 472 910 421 954 q 556 781 524 867 l 829 182 q 889 143 849 143 q 930 158 915 143 q 944 196 944 172 l 944 938 l 1110 938 l 1110 189 q 1055 38 1110 93 q 894 -17 1000 -17 q 749 27 801 -17 q 665 157 697 71 l 392 756 q 333 796 374 796 q 276 742 276 796 z "},"Ξ":{"ha":940,"x_min":100,"x_max":840,"o":"m 100 164 l 840 164 l 840 0 l 100 0 l 100 164 m 101 938 l 839 938 l 839 774 l 101 774 l 101 938 m 108 544 l 832 544 l 832 396 l 108 396 l 108 544 z "},"Ο":{"ha":1133,"x_min":79,"x_max":1054,"o":"m 503 938 l 631 938 q 946 819 838 938 q 1054 467 1054 701 q 946 117 1054 233 q 631 0 838 0 l 503 0 q 188 117 296 0 q 79 467 79 233 q 188 819 79 701 q 503 938 296 938 m 631 774 l 503 774 q 305 701 367 774 q 243 467 243 628 q 305 235 243 307 q 503 164 367 164 l 631 164 q 828 235 767 164 q 889 468 889 307 q 828 701 889 628 q 631 774 767 774 z "},"Π":{"ha":1035,"x_min":114,"x_max":922,"o":"m 192 938 l 843 938 q 922 861 922 938 l 922 0 l 757 0 l 757 757 q 740 774 757 774 l 296 774 q 278 757 278 774 l 278 0 l 114 0 l 114 861 q 192 938 114 938 z "},"Ρ":{"ha":943,"x_min":111,"x_max":893,"o":"m 111 938 l 592 938 q 817 858 742 938 q 893 657 893 778 q 865 517 893 581 q 766 408 836 453 q 592 363 696 363 l 300 363 q 276 339 276 363 l 276 0 l 113 0 l 113 371 q 147 485 113 450 q 260 519 182 519 l 597 519 q 695 557 663 519 q 728 649 728 594 q 695 738 728 703 q 599 774 663 774 l 111 774 l 111 938 z "},"Σ":{"ha":942,"x_min":76,"x_max":858,"o":"m 278 938 l 858 938 l 858 774 l 303 774 q 249 724 249 774 q 293 672 249 690 l 626 551 q 701 469 701 531 q 626 386 701 407 l 293 265 q 249 214 249 247 q 303 164 249 164 l 858 164 l 858 0 l 278 0 q 76 192 76 0 q 109 306 76 261 q 231 379 142 351 l 469 468 l 231 558 q 109 631 142 586 q 76 746 76 676 q 278 938 76 938 z "},"Τ":{"ha":793,"x_min":40,"x_max":753,"o":"m 40 938 l 753 938 l 753 774 l 479 774 l 479 0 l 314 0 l 314 774 l 40 774 l 40 938 z "},"Υ":{"ha":957,"x_min":18,"x_max":939,"o":"m 18 938 l 217 938 l 479 536 l 744 938 l 939 938 l 561 404 l 561 0 l 396 0 l 396 404 l 18 938 z "},"Φ":{"ha":1181,"x_min":79,"x_max":1101,"o":"m 457 832 l 508 832 l 508 938 l 672 938 l 672 832 l 725 832 q 1101 467 1101 832 q 725 107 1101 107 l 672 107 l 672 0 l 508 0 l 508 107 l 457 107 q 79 467 79 107 q 457 832 79 832 m 725 657 l 672 657 l 672 282 l 725 282 q 887 325 836 282 q 938 468 938 368 q 887 613 938 568 q 725 657 836 657 m 457 282 l 508 282 l 508 657 l 457 657 q 294 613 346 657 q 243 468 243 568 q 294 325 243 368 q 457 282 344 282 z "},"Χ":{"ha":1085,"x_min":26,"x_max":1060,"o":"m 65 938 l 265 938 l 553 592 l 854 938 l 1057 938 l 656 476 l 1060 0 l 860 0 l 549 372 l 229 0 l 26 0 l 446 489 l 65 938 z "},"Ψ":{"ha":1190,"x_min":103,"x_max":1088,"o":"m 513 938 l 676 938 l 676 374 l 757 374 q 926 536 926 374 l 926 938 l 1088 938 l 1088 531 q 1007 297 1088 376 q 769 218 926 218 l 676 218 l 676 0 l 513 0 l 513 218 l 421 218 q 183 297 264 218 q 103 531 103 376 l 103 938 l 269 938 l 269 536 q 439 374 269 374 l 513 374 l 513 938 z "},"Ω":{"ha":1104,"x_min":40,"x_max":1065,"o":"m 431 938 l 674 938 q 938 853 843 938 q 1033 608 1033 769 q 889 325 1033 422 l 767 232 q 739 192 739 211 q 776 164 739 164 l 1065 164 l 1065 0 l 800 0 q 657 42 700 0 q 614 165 614 85 q 689 326 614 276 l 789 408 q 868 578 868 471 q 661 774 868 774 l 443 774 q 236 578 236 774 q 317 408 236 471 l 415 326 q 490 165 490 276 q 447 42 490 85 q 304 0 404 0 l 40 0 l 40 164 l 329 164 q 365 192 365 164 q 338 232 365 211 l 215 325 q 71 608 71 422 q 166 853 71 769 q 431 938 261 938 z "},"Ϊ":{"ha":408,"x_min":-36,"x_max":446,"o":"m 128 938 l 292 938 l 292 0 l 128 0 l 128 938 m -36 1214 l 113 1214 l 113 1043 l -36 1043 l -36 1214 m 297 1214 l 446 1214 l 446 1043 l 297 1043 l 297 1214 z "},"Ϋ":{"ha":957,"x_min":18,"x_max":939,"o":"m 18 938 l 217 938 l 479 536 l 744 938 l 939 938 l 561 404 l 561 0 l 396 0 l 396 404 l 18 938 m 236 1214 l 385 1214 l 385 1043 l 236 1043 l 236 1214 m 569 1214 l 718 1214 l 718 1043 l 569 1043 l 569 1214 z "},"ά":{"ha":1024,"x_min":71,"x_max":976,"o":"m 389 733 l 475 733 q 653 694 585 733 q 765 575 721 656 l 822 733 l 976 733 l 847 367 l 976 0 l 822 0 l 765 158 q 653 39 721 78 q 475 0 585 0 l 389 0 q 155 92 239 0 q 71 367 71 185 q 155 641 71 549 q 389 733 239 733 m 461 143 q 595 178 554 143 q 671 314 636 213 l 689 367 l 671 419 q 594 556 635 521 q 461 592 553 592 l 403 592 q 263 538 307 592 q 219 367 219 485 q 263 196 219 249 q 403 143 307 143 l 461 143 m 438 1079 l 585 1079 l 501 781 l 369 781 l 438 1079 z "},"έ":{"ha":878,"x_min":81,"x_max":788,"o":"m 440 1079 l 588 1079 l 504 781 l 372 781 l 440 1079 m 338 733 l 788 733 l 788 593 l 347 593 q 235 507 235 593 q 260 442 235 463 q 347 422 285 422 l 618 422 l 618 313 l 344 313 q 257 292 282 313 q 232 228 232 272 q 257 163 232 185 q 343 142 282 142 l 788 142 l 788 0 l 333 0 q 141 53 201 0 q 81 196 81 107 q 183 367 81 322 q 83 539 83 411 q 144 681 83 628 q 338 733 206 733 z "},"ή":{"ha":982,"x_min":106,"x_max":881,"o":"m 208 733 l 511 733 q 788 650 694 733 q 881 413 881 567 l 881 -294 l 732 -294 l 732 413 q 511 592 732 592 l 271 592 q 253 571 253 592 l 253 0 l 106 0 l 106 619 q 129 708 106 683 q 208 733 153 733 m 443 1079 l 590 1079 l 507 781 l 375 781 l 443 1079 z "},"ί":{"ha":490,"x_min":101,"x_max":450,"o":"m 101 733 l 249 733 l 249 244 q 272 160 249 185 q 347 135 294 135 l 450 135 l 450 0 l 315 0 q 151 56 201 0 q 101 253 101 113 l 101 733 m 185 1079 l 332 1079 l 249 781 l 117 781 l 185 1079 z "},"ΰ":{"ha":975,"x_min":101,"x_max":874,"o":"m 101 733 l 250 733 l 250 294 q 298 185 250 228 q 431 143 346 143 l 550 143 q 682 185 635 143 q 729 294 729 228 l 729 733 l 874 733 l 874 289 q 791 79 874 158 q 556 0 708 0 l 419 0 q 184 79 267 0 q 101 289 101 158 l 101 733 m 447 1079 l 594 1079 l 511 781 l 379 781 l 447 1079 m 647 1010 l 796 1010 l 796 839 l 647 839 l 647 1010 m 178 1010 l 326 1010 l 326 839 l 178 839 l 178 1010 z "},"α":{"ha":1024,"x_min":71,"x_max":976,"o":"m 389 733 l 475 733 q 653 694 585 733 q 765 575 721 656 l 822 733 l 976 733 l 847 367 l 976 0 l 822 0 l 765 158 q 653 39 721 78 q 475 0 585 0 l 389 0 q 155 92 239 0 q 71 367 71 185 q 155 641 71 549 q 389 733 239 733 m 461 143 q 595 178 554 143 q 671 314 636 213 l 689 367 l 671 419 q 594 556 635 521 q 461 592 553 592 l 403 592 q 263 538 307 592 q 219 367 219 485 q 263 196 219 249 q 403 143 307 143 l 461 143 z "},"β":{"ha":922,"x_min":106,"x_max":829,"o":"m 342 1051 l 554 1051 q 804 792 804 1051 q 689 565 804 625 q 795 481 761 540 q 829 321 829 422 q 746 79 829 158 q 513 0 663 0 l 253 0 l 253 -294 l 106 -294 l 106 775 q 160 990 106 929 q 342 1051 215 1051 m 253 783 l 253 143 l 488 143 q 634 191 588 143 q 681 343 681 239 q 646 460 681 425 q 531 496 611 496 l 403 496 l 403 626 l 533 626 q 627 658 599 626 q 656 761 656 690 q 628 879 656 842 q 539 917 600 917 l 374 917 q 281 887 308 917 q 253 783 253 857 z "},"γ":{"ha":940,"x_min":26,"x_max":914,"o":"m 26 733 l 183 733 l 469 121 l 756 733 l 914 733 l 544 -25 l 544 -294 l 396 -294 l 396 -25 l 26 733 z "},"δ":{"ha":888,"x_min":71,"x_max":817,"o":"m 375 1051 l 760 1051 l 760 910 l 376 910 q 313 884 335 910 q 292 821 292 858 q 314 758 292 782 q 385 733 336 733 l 546 733 q 752 647 688 733 q 817 386 817 561 q 738 94 817 188 q 500 0 660 0 l 389 0 q 156 92 242 0 q 71 347 71 185 q 236 651 71 565 q 147 833 147 703 q 203 992 147 933 q 375 1051 258 1051 m 390 618 q 346 619 360 618 q 219 367 219 536 q 265 204 219 265 q 403 143 311 143 l 485 143 q 626 199 585 143 q 668 394 668 256 q 635 566 668 514 q 521 618 603 618 l 390 618 z "},"ε":{"ha":878,"x_min":81,"x_max":788,"o":"m 338 733 l 788 733 l 788 593 l 347 593 q 235 507 235 593 q 260 442 235 463 q 347 422 285 422 l 618 422 l 618 313 l 344 313 q 257 292 282 313 q 232 228 232 272 q 257 163 232 185 q 343 142 282 142 l 788 142 l 788 0 l 333 0 q 141 53 201 0 q 81 196 81 107 q 183 367 81 322 q 83 539 83 411 q 144 681 83 628 q 338 733 206 733 z "},"ζ":{"ha":835,"x_min":71,"x_max":782,"o":"m 81 1051 l 608 1051 q 738 1008 693 1051 q 782 889 782 965 q 690 726 782 792 l 331 472 q 242 389 265 426 q 219 297 219 351 q 263 181 219 218 q 397 143 307 143 l 590 143 q 761 -19 761 143 l 761 -294 l 613 -294 l 613 -61 q 599 -15 613 -29 q 551 0 586 0 l 389 0 q 154 74 238 0 q 71 303 71 149 q 108 449 71 389 q 250 581 144 510 l 614 829 q 642 874 642 849 q 600 910 642 910 l 81 910 l 81 1051 z "},"η":{"ha":982,"x_min":106,"x_max":881,"o":"m 208 733 l 511 733 q 788 650 694 733 q 881 413 881 567 l 881 -294 l 732 -294 l 732 413 q 511 592 732 592 l 271 592 q 253 571 253 592 l 253 0 l 106 0 l 106 619 q 129 708 106 683 q 208 733 153 733 z "},"θ":{"ha":992,"x_min":101,"x_max":890,"o":"m 418 1051 l 574 1051 q 806 958 722 1051 q 890 685 890 865 l 890 365 q 807 92 890 185 q 574 0 724 0 l 418 0 q 185 92 268 0 q 101 365 101 185 l 101 685 q 185 958 101 865 q 418 1051 269 1051 m 249 464 l 249 365 q 293 196 249 249 q 433 143 338 143 l 558 143 q 698 196 654 143 q 742 365 742 249 l 742 464 l 249 464 m 249 685 l 249 597 l 742 597 l 742 685 q 698 856 742 803 q 558 908 654 908 l 433 908 q 293 855 338 908 q 249 685 249 801 z "},"ι":{"ha":490,"x_min":101,"x_max":450,"o":"m 101 733 l 249 733 l 249 244 q 272 160 249 185 q 347 135 294 135 l 450 135 l 450 0 l 315 0 q 151 56 201 0 q 101 253 101 113 l 101 733 z "},"κ":{"ha":836,"x_min":106,"x_max":810,"o":"m 106 733 l 253 733 l 253 429 l 321 429 q 437 443 407 429 q 504 513 467 457 l 626 733 l 786 733 l 658 503 q 598 420 626 450 q 528 372 569 390 q 608 327 576 358 q 678 231 640 296 l 810 0 l 644 0 l 522 217 q 450 290 485 274 q 321 306 415 306 l 253 306 l 253 0 l 106 0 l 106 733 z "},"λ":{"ha":899,"x_min":26,"x_max":872,"o":"m 261 1051 l 419 1051 l 872 0 l 715 0 l 465 578 l 447 578 q 403 547 414 578 l 182 0 l 26 0 l 272 619 q 319 688 290 668 q 404 708 347 708 l 408 708 l 261 1051 z "},"μ":{"ha":1063,"x_min":106,"x_max":1025,"o":"m 106 733 l 253 733 l 253 143 l 492 143 q 622 159 579 143 q 678 217 664 175 q 676 253 676 228 l 676 733 l 825 733 l 825 244 q 847 160 825 185 q 922 135 869 135 l 1025 135 l 1025 0 l 890 0 q 718 65 765 0 q 490 0 646 0 l 253 0 l 253 -294 l 106 -294 l 106 733 z "},"ν":{"ha":940,"x_min":26,"x_max":914,"o":"m 26 733 l 182 733 l 426 144 q 463 122 435 122 q 501 144 492 122 l 756 733 l 914 733 l 631 79 q 463 -17 589 -17 q 296 79 335 -17 l 26 733 z "},"ξ":{"ha":814,"x_min":71,"x_max":761,"o":"m 371 1051 l 699 1051 l 699 910 l 393 910 q 284 878 315 910 q 253 778 253 847 q 283 677 253 710 q 385 644 313 644 l 694 644 l 694 524 l 397 524 q 262 482 304 524 q 219 340 219 440 q 403 143 219 143 l 590 143 q 761 -19 761 143 l 761 -294 l 613 -294 l 613 -61 q 599 -15 613 -29 q 551 0 586 0 l 389 0 q 151 84 232 0 q 71 322 71 168 q 221 589 71 531 q 103 807 103 640 q 167 990 103 928 q 371 1051 231 1051 z "},"ο":{"ha":932,"x_min":71,"x_max":861,"o":"m 389 733 l 543 733 q 777 641 693 733 q 861 367 861 549 q 777 92 861 185 q 543 0 693 0 l 389 0 q 155 92 239 0 q 71 367 71 185 q 155 641 71 549 q 389 733 239 733 m 529 592 l 403 592 q 263 538 307 592 q 219 367 219 485 q 263 196 219 249 q 403 143 307 143 l 529 143 q 669 196 625 143 q 713 367 713 249 q 669 538 713 485 q 529 592 625 592 z "},"π":{"ha":1051,"x_min":32,"x_max":1017,"o":"m 32 733 l 1014 733 l 1014 592 l 817 592 l 817 244 q 840 160 817 185 q 914 135 863 135 l 1017 135 l 1017 0 l 882 0 q 718 56 768 0 q 668 253 668 113 l 668 592 l 336 592 l 336 0 l 188 0 l 188 592 l 32 592 l 32 733 z "},"ρ":{"ha":963,"x_min":103,"x_max":892,"o":"m 372 733 l 575 733 q 808 641 725 733 q 892 367 892 549 q 808 92 892 185 q 575 0 725 0 l 250 0 l 250 -294 l 103 -294 l 103 419 q 372 733 103 733 m 250 413 l 250 143 l 560 143 q 699 196 656 143 q 743 367 743 249 q 699 538 743 485 q 560 592 656 592 l 415 592 q 288 550 326 592 q 250 413 250 508 z "},"ς":{"ha":819,"x_min":71,"x_max":761,"o":"m 389 733 l 735 733 l 735 592 l 403 592 q 263 538 307 592 q 219 369 219 485 q 265 198 219 253 q 403 143 310 143 l 590 143 q 761 -19 761 143 l 761 -294 l 613 -294 l 613 -61 q 599 -15 613 -29 q 551 0 586 0 l 389 0 q 155 93 239 0 q 71 367 71 186 q 155 640 71 547 q 389 733 239 733 z "},"σ":{"ha":1000,"x_min":71,"x_max":947,"o":"m 389 733 l 947 733 l 947 592 l 783 592 q 844 364 844 508 q 760 92 844 185 q 526 0 676 0 l 389 0 q 155 92 239 0 q 71 367 71 185 q 155 641 71 549 q 389 733 239 733 m 696 363 q 635 592 696 508 l 403 592 q 263 538 307 592 q 219 367 219 485 q 263 196 219 249 q 403 143 307 143 l 513 143 q 651 196 607 143 q 696 363 696 249 z "},"τ":{"ha":826,"x_min":40,"x_max":775,"o":"m 40 733 l 775 733 l 775 592 l 478 592 l 478 244 q 500 160 478 185 q 575 135 522 135 l 678 135 l 678 0 l 543 0 q 379 56 429 0 q 329 253 329 113 l 329 592 l 40 592 l 40 733 z "},"υ":{"ha":975,"x_min":101,"x_max":874,"o":"m 101 733 l 250 733 l 250 294 q 298 185 250 228 q 431 143 346 143 l 550 143 q 682 185 635 143 q 729 294 729 228 l 729 733 l 874 733 l 874 289 q 791 79 874 158 q 556 0 708 0 l 419 0 q 184 79 267 0 q 101 289 101 158 l 101 733 z "},"φ":{"ha":1115,"x_min":71,"x_max":1044,"o":"m 483 1018 l 632 1018 l 632 733 l 728 733 q 961 640 878 733 q 1044 365 1044 547 q 961 92 1044 185 q 728 0 878 0 l 632 0 l 632 -285 l 483 -285 l 483 0 l 389 0 q 155 92 239 0 q 71 365 71 185 q 155 640 71 547 q 389 733 239 733 l 483 733 l 483 1018 m 713 592 l 632 592 l 632 143 l 713 143 q 852 196 808 143 q 896 365 896 249 q 852 538 896 485 q 713 592 808 592 m 403 143 l 483 143 l 483 592 l 403 592 q 263 538 307 592 q 219 365 219 485 q 263 196 219 249 q 403 143 307 143 z "},"χ":{"ha":925,"x_min":26,"x_max":899,"o":"m 50 733 l 224 733 l 469 358 l 724 733 l 894 733 l 558 222 l 899 -294 l 725 -294 l 463 104 l 196 -294 l 26 -294 l 374 240 l 50 733 z "},"ψ":{"ha":1106,"x_min":101,"x_max":1004,"o":"m 472 879 l 619 879 l 619 143 l 681 143 q 812 185 765 143 q 858 294 858 228 l 858 733 l 1004 733 l 1004 289 q 922 79 1004 158 q 686 0 839 0 l 619 0 l 619 -294 l 472 -294 l 472 0 l 419 0 q 184 79 267 0 q 101 289 101 158 l 101 733 l 250 733 l 250 294 q 298 185 250 228 q 431 143 346 143 l 472 143 l 472 879 z "},"ω":{"ha":1307,"x_min":101,"x_max":1206,"o":"m 101 733 l 250 733 l 250 282 q 283 181 250 219 q 383 143 317 143 l 450 143 q 578 282 578 143 l 578 560 l 728 560 l 728 282 q 856 143 728 143 l 924 143 q 1022 181 989 143 q 1056 282 1056 219 l 1056 733 l 1206 733 l 1206 289 q 1133 80 1206 160 q 938 0 1061 0 l 861 0 q 653 114 710 0 q 446 0 593 0 l 368 0 q 173 80 244 0 q 101 289 101 160 l 101 733 z "},"ϊ":{"ha":533,"x_min":-17,"x_max":494,"o":"m 146 733 l 293 733 l 293 244 q 316 160 293 185 q 392 135 339 135 l 494 135 l 494 0 l 360 0 q 196 56 246 0 q 146 253 146 113 l 146 733 m -17 1010 l 132 1010 l 132 839 l -17 839 l -17 1010 m 317 1010 l 465 1010 l 465 839 l 317 839 l 317 1010 z "},"ϋ":{"ha":975,"x_min":101,"x_max":874,"o":"m 101 733 l 250 733 l 250 294 q 298 185 250 228 q 431 143 346 143 l 550 143 q 682 185 635 143 q 729 294 729 228 l 729 733 l 874 733 l 874 289 q 791 79 874 158 q 556 0 708 0 l 419 0 q 184 79 267 0 q 101 289 101 158 l 101 733 m 246 1010 l 394 1010 l 394 839 l 246 839 l 246 1010 m 579 1010 l 728 1010 l 728 839 l 579 839 l 579 1010 z "},"ό":{"ha":932,"x_min":71,"x_max":861,"o":"m 389 733 l 543 733 q 777 641 693 733 q 861 367 861 549 q 777 92 861 185 q 543 0 693 0 l 389 0 q 155 92 239 0 q 71 367 71 185 q 155 641 71 549 q 389 733 239 733 m 529 592 l 403 592 q 263 538 307 592 q 219 367 219 485 q 263 196 219 249 q 403 143 307 143 l 529 143 q 669 196 625 143 q 713 367 713 249 q 669 538 713 485 q 529 592 625 592 m 442 1079 l 589 1079 l 506 781 l 374 781 l 442 1079 z "},"ύ":{"ha":975,"x_min":101,"x_max":874,"o":"m 101 733 l 250 733 l 250 294 q 298 185 250 228 q 431 143 346 143 l 550 143 q 682 185 635 143 q 729 294 729 228 l 729 733 l 874 733 l 874 289 q 791 79 874 158 q 556 0 708 0 l 419 0 q 184 79 267 0 q 101 289 101 158 l 101 733 m 476 1079 l 624 1079 l 540 781 l 408 781 l 476 1079 z "},"ώ":{"ha":1307,"x_min":101,"x_max":1206,"o":"m 101 733 l 250 733 l 250 282 q 283 181 250 219 q 383 143 317 143 l 450 143 q 578 282 578 143 l 578 560 l 728 560 l 728 282 q 856 143 728 143 l 924 143 q 1022 181 989 143 q 1056 282 1056 219 l 1056 733 l 1206 733 l 1206 289 q 1133 80 1206 160 q 938 0 1061 0 l 861 0 q 653 114 710 0 q 446 0 593 0 l 368 0 q 173 80 244 0 q 101 289 101 160 l 101 733 m 635 1079 l 782 1079 l 699 781 l 567 781 l 635 1079 z "},"Ѐ":{"ha":963,"x_min":76,"x_max":864,"o":"m 393 938 l 863 938 l 863 774 l 393 774 q 251 656 251 774 q 394 544 251 544 l 856 544 l 856 396 l 390 396 q 247 282 247 396 q 389 164 247 164 l 864 164 l 864 0 l 389 0 q 153 69 231 0 q 76 256 76 139 q 211 471 76 414 q 79 682 79 525 q 156 869 79 800 q 393 938 233 938 m 354 1283 l 518 1283 l 674 985 l 526 985 l 354 1283 z "},"Ё":{"ha":963,"x_min":76,"x_max":864,"o":"m 393 938 l 863 938 l 863 774 l 393 774 q 251 656 251 774 q 394 544 251 544 l 856 544 l 856 396 l 390 396 q 247 282 247 396 q 389 164 247 164 l 864 164 l 864 0 l 389 0 q 153 69 231 0 q 76 256 76 139 q 211 471 76 414 q 79 682 79 525 q 156 869 79 800 q 393 938 233 938 m 288 1214 l 436 1214 l 436 1043 l 288 1043 l 288 1214 m 621 1214 l 769 1214 l 769 1043 l 621 1043 l 621 1214 z "},"Ђ":{"ha":1133,"x_min":40,"x_max":1028,"o":"m 40 938 l 835 938 l 835 774 l 456 774 l 456 588 l 710 588 q 947 508 867 588 q 1028 274 1028 428 l 1028 86 q 944 -199 1028 -103 q 711 -294 861 -294 l 558 -294 l 558 -151 l 678 -151 q 817 -95 774 -151 q 861 86 861 -39 l 861 261 q 692 424 861 424 l 456 424 l 456 0 l 292 0 l 292 774 l 40 774 l 40 938 z "},"Ѓ":{"ha":864,"x_min":104,"x_max":824,"o":"m 535 1283 l 699 1283 l 525 985 l 379 985 l 535 1283 m 450 938 l 824 938 l 824 774 l 460 774 q 268 613 268 774 l 268 0 l 104 0 l 104 614 q 188 851 104 764 q 450 938 272 938 z "},"Є":{"ha":947,"x_min":79,"x_max":864,"o":"m 501 938 l 864 938 l 864 774 l 501 774 q 321 719 382 774 q 246 544 260 664 l 729 544 l 729 396 l 246 396 q 321 219 260 275 q 501 164 382 164 l 864 164 l 864 0 l 501 0 q 187 117 294 0 q 79 468 79 235 q 187 820 79 703 q 501 938 294 938 z "},"Ѕ":{"ha":976,"x_min":71,"x_max":908,"o":"m 363 938 l 838 938 l 838 774 l 357 774 q 265 744 296 774 q 235 663 235 714 q 374 551 235 551 l 593 551 q 749 528 685 551 q 847 463 814 504 q 894 376 881 421 q 908 275 908 331 q 835 74 908 149 q 610 0 763 0 l 88 0 l 88 164 l 615 164 q 712 196 679 164 q 744 281 744 228 q 597 397 744 397 l 379 397 q 226 420 290 397 q 131 484 163 443 q 85 569 99 525 q 71 668 71 614 q 142 865 71 792 q 363 938 214 938 z "},"І":{"ha":390,"x_min":114,"x_max":278,"o":"m 114 938 l 278 938 l 278 0 l 114 0 l 114 938 z "},"Ї":{"ha":442,"x_min":-21,"x_max":461,"o":"m 144 938 l 308 938 l 308 0 l 144 0 l 144 938 m -21 1214 l 128 1214 l 128 1043 l -21 1043 l -21 1214 m 313 1214 l 461 1214 l 461 1043 l 313 1043 l 313 1214 z "},"Ј":{"ha":810,"x_min":40,"x_max":706,"o":"m 540 938 l 706 938 l 706 324 q 621 88 706 175 q 358 0 536 0 l 40 0 l 40 164 l 349 164 q 540 325 540 164 l 540 938 z "},"Љ":{"ha":1531,"x_min":40,"x_max":1465,"o":"m 685 567 l 685 746 q 635 796 685 796 q 585 760 601 796 l 372 279 q 310 148 333 192 q 251 65 286 104 q 175 13 217 26 q 71 0 133 0 l 40 0 l 40 164 l 74 164 q 149 193 122 164 q 226 331 176 222 l 432 785 q 513 916 474 878 q 639 954 553 954 q 795 901 742 954 q 849 754 849 847 l 849 599 q 872 575 849 575 l 1164 575 q 1391 488 1317 575 q 1465 281 1465 401 q 1390 80 1465 160 q 1164 0 1314 0 l 683 0 l 683 164 l 1171 164 q 1267 199 1235 164 q 1300 289 1300 235 q 1267 381 1300 343 q 1169 418 1235 418 l 832 418 q 719 453 754 418 q 685 567 685 488 z "},"Њ":{"ha":1540,"x_min":114,"x_max":1490,"o":"m 114 938 l 278 938 l 278 576 l 726 576 l 726 938 l 892 938 l 892 576 l 1190 576 q 1329 551 1269 576 q 1423 482 1389 525 q 1474 388 1457 439 q 1490 281 1490 338 q 1415 79 1490 158 q 1190 0 1340 0 l 725 0 l 725 164 l 1196 164 q 1293 199 1260 164 q 1326 289 1326 235 q 1293 381 1326 343 q 1194 418 1260 418 l 278 418 l 278 0 l 114 0 l 114 938 z "},"Ћ":{"ha":1133,"x_min":40,"x_max":1028,"o":"m 40 938 l 835 938 l 835 774 l 456 774 l 456 588 l 710 588 q 947 508 867 588 q 1028 274 1028 428 l 1028 0 l 861 0 l 861 261 q 692 424 861 424 l 456 424 l 456 0 l 292 0 l 292 774 l 40 774 l 40 938 z "},"Ќ":{"ha":983,"x_min":114,"x_max":956,"o":"m 114 938 l 278 938 l 278 540 l 368 540 q 528 560 489 540 q 608 657 568 579 l 751 938 l 928 938 l 781 646 q 710 540 747 581 q 618 475 674 499 q 722 419 682 458 q 804 294 761 379 l 956 0 l 772 0 l 629 278 q 545 372 590 353 q 368 392 500 392 l 278 392 l 278 0 l 114 0 l 114 938 m 464 1283 l 628 1283 l 454 985 l 308 985 l 464 1283 z "},"Ѝ":{"ha":1221,"x_min":113,"x_max":1110,"o":"m 411 1283 l 575 1283 l 731 985 l 583 985 l 411 1283 m 113 938 l 276 938 l 276 196 q 291 158 276 172 q 332 143 306 143 q 392 182 372 143 l 665 781 q 749 910 697 867 q 893 954 800 954 q 1055 899 1000 954 q 1110 750 1110 844 l 1110 0 l 944 0 l 944 742 q 930 781 944 767 q 890 796 915 796 q 829 756 849 796 l 556 157 q 472 27 524 71 q 328 -17 419 -17 q 167 38 221 -17 q 113 189 113 93 l 113 938 z "},"Ў":{"ha":1014,"x_min":18,"x_max":996,"o":"m 196 1283 l 319 1283 l 319 1206 q 353 1113 319 1139 q 479 1086 386 1086 q 604 1112 572 1086 q 636 1206 636 1138 l 636 1283 l 761 1283 l 761 1204 q 701 1033 761 1082 q 479 985 642 985 q 256 1033 315 985 q 196 1204 196 1081 l 196 1283 m 18 938 l 203 938 l 499 415 l 810 938 l 996 938 l 554 186 q 427 38 492 76 q 235 0 363 0 l 103 0 l 103 164 l 263 164 q 339 178 313 164 q 393 238 365 193 l 408 263 l 18 938 z "},"Џ":{"ha":1035,"x_min":113,"x_max":921,"o":"m 843 0 l 590 0 l 590 -294 l 443 -294 l 443 0 l 192 0 q 113 76 113 0 l 113 938 l 278 938 l 278 181 q 294 164 278 164 l 739 164 q 757 181 757 164 l 757 938 l 921 938 l 921 76 q 843 0 921 0 z "},"А":{"ha":1089,"x_min":26,"x_max":1064,"o":"m 882 0 l 808 193 l 283 193 l 207 0 l 26 0 l 356 833 q 553 954 399 954 q 747 833 706 954 l 1064 0 l 882 0 m 504 754 l 344 349 l 750 349 l 597 754 q 551 786 585 786 q 504 754 518 786 z "},"Б":{"ha":943,"x_min":111,"x_max":893,"o":"m 208 938 l 703 938 l 703 774 l 319 774 q 276 732 276 774 l 276 599 q 300 575 276 575 l 592 575 q 819 488 744 575 q 893 281 893 401 q 817 80 893 160 q 592 0 742 0 l 111 0 l 111 164 l 599 164 q 695 199 663 164 q 728 289 728 235 q 695 381 728 343 q 597 418 663 418 l 260 418 q 147 453 182 418 q 113 567 113 488 l 113 853 q 137 915 113 892 q 208 938 161 938 z "},"В":{"ha":999,"x_min":114,"x_max":922,"o":"m 192 938 l 604 938 q 841 869 764 938 q 918 681 918 800 q 783 472 918 525 q 922 258 922 415 q 844 70 922 140 q 608 0 767 0 l 192 0 q 114 76 114 0 l 114 861 q 192 938 114 938 m 275 406 l 275 178 q 293 163 275 163 l 613 163 q 757 285 757 163 q 613 406 757 406 l 275 406 m 275 760 l 275 542 l 608 542 q 753 654 753 542 q 610 776 753 776 l 293 776 q 275 760 275 776 z "},"Г":{"ha":864,"x_min":104,"x_max":824,"o":"m 450 938 l 824 938 l 824 774 l 460 774 q 268 613 268 774 l 268 0 l 104 0 l 104 614 q 188 851 104 764 q 450 938 272 938 z "},"Д":{"ha":1149,"x_min":40,"x_max":1108,"o":"m 294 331 l 500 785 q 581 916 542 878 q 707 954 621 954 q 863 901 810 954 q 917 754 917 847 l 917 164 l 1108 164 l 1108 -294 l 961 -294 l 961 0 l 188 0 l 188 -294 l 40 -294 l 40 164 l 142 164 q 217 193 190 164 q 294 331 244 222 m 386 164 l 751 164 l 751 746 q 703 796 751 796 q 653 760 669 796 l 440 279 q 386 164 410 208 z "},"Е":{"ha":963,"x_min":76,"x_max":864,"o":"m 393 938 l 863 938 l 863 774 l 393 774 q 251 656 251 774 q 394 544 251 544 l 856 544 l 856 396 l 390 396 q 247 282 247 396 q 389 164 247 164 l 864 164 l 864 0 l 389 0 q 153 69 231 0 q 76 256 76 139 q 211 471 76 414 q 79 682 79 525 q 156 869 79 800 q 393 938 233 938 z "},"Ж":{"ha":1575,"x_min":28,"x_max":1547,"o":"m 706 938 l 869 938 l 869 540 l 960 540 q 1120 560 1081 540 q 1200 657 1160 579 l 1343 938 l 1519 938 l 1372 646 q 1302 540 1339 581 q 1210 475 1265 499 q 1313 419 1274 458 q 1396 294 1353 379 l 1547 0 l 1364 0 l 1221 278 q 1137 372 1182 353 q 960 392 1092 392 l 869 392 l 869 0 l 706 0 l 706 392 l 614 392 q 441 372 485 392 q 354 278 397 353 l 211 0 l 28 0 l 179 294 q 263 419 225 379 q 365 475 301 458 q 276 538 311 499 q 203 646 240 578 l 54 938 l 232 938 l 375 657 q 429 581 407 603 q 492 550 451 560 q 614 540 532 540 l 706 540 l 706 938 z "},"З":{"ha":946,"x_min":82,"x_max":868,"o":"m 83 938 l 551 938 q 788 869 710 938 q 865 686 865 801 q 732 471 865 526 q 868 251 868 414 q 790 69 868 139 q 556 0 713 0 l 82 0 l 82 164 l 556 164 q 697 283 697 164 q 554 396 697 396 l 265 396 l 265 544 l 550 544 q 693 657 693 544 q 551 774 693 774 l 83 774 l 83 938 z "},"И":{"ha":1221,"x_min":113,"x_max":1110,"o":"m 113 938 l 276 938 l 276 196 q 291 158 276 172 q 332 143 306 143 q 392 182 372 143 l 665 781 q 749 910 697 867 q 893 954 800 954 q 1055 899 1000 954 q 1110 750 1110 844 l 1110 0 l 944 0 l 944 742 q 930 781 944 767 q 890 796 915 796 q 829 756 849 796 l 556 157 q 472 27 524 71 q 328 -17 419 -17 q 167 38 221 -17 q 113 189 113 93 l 113 938 z "},"Й":{"ha":1221,"x_min":113,"x_max":1110,"o":"m 322 1283 l 446 1283 l 446 1206 q 479 1113 446 1139 q 606 1086 513 1086 q 731 1112 699 1086 q 763 1206 763 1138 l 763 1283 l 888 1283 l 888 1204 q 828 1033 888 1082 q 606 985 768 985 q 382 1033 442 985 q 322 1204 322 1081 l 322 1283 m 113 938 l 276 938 l 276 196 q 291 158 276 172 q 332 143 306 143 q 392 182 372 143 l 665 781 q 749 910 697 867 q 893 954 800 954 q 1055 899 1000 954 q 1110 750 1110 844 l 1110 0 l 944 0 l 944 742 q 930 781 944 767 q 890 796 915 796 q 829 756 849 796 l 556 157 q 472 27 524 71 q 328 -17 419 -17 q 167 38 221 -17 q 113 189 113 93 l 113 938 z "},"К":{"ha":983,"x_min":114,"x_max":956,"o":"m 114 938 l 278 938 l 278 540 l 368 540 q 528 560 489 540 q 608 657 568 579 l 751 938 l 928 938 l 781 646 q 710 540 747 581 q 618 475 674 499 q 722 419 682 458 q 804 294 761 379 l 956 0 l 772 0 l 629 278 q 545 372 590 353 q 368 392 500 392 l 278 392 l 278 0 l 114 0 l 114 938 z "},"Л":{"ha":961,"x_min":40,"x_max":849,"o":"m 226 331 l 432 785 q 513 916 474 878 q 639 954 553 954 q 795 901 742 954 q 849 754 849 847 l 849 0 l 683 0 l 683 746 q 635 796 683 796 q 585 760 601 796 l 372 279 q 310 148 333 192 q 251 65 286 104 q 175 13 217 26 q 71 0 133 0 l 40 0 l 40 164 l 74 164 q 149 193 122 164 q 226 331 176 222 z "},"М":{"ha":1531,"x_min":113,"x_max":1418,"o":"m 275 736 l 275 0 l 113 0 l 113 744 q 169 898 113 842 q 338 954 226 954 q 574 769 532 954 l 706 196 q 768 143 719 143 q 831 196 817 143 l 963 769 q 1193 954 1004 954 q 1361 898 1304 954 q 1418 744 1418 842 l 1418 0 l 1256 0 l 1256 736 q 1238 780 1256 764 q 1189 796 1221 796 q 1124 746 1135 796 l 989 172 q 914 30 967 76 q 767 -17 861 -17 q 540 172 583 -17 l 407 746 q 342 796 396 796 q 292 780 310 796 q 275 736 275 764 z "},"Н":{"ha":1035,"x_min":114,"x_max":922,"o":"m 114 938 l 278 938 l 278 556 l 757 556 l 757 938 l 922 938 l 922 0 l 757 0 l 757 392 l 278 392 l 278 0 l 114 0 l 114 938 z "},"О":{"ha":1133,"x_min":79,"x_max":1054,"o":"m 503 938 l 631 938 q 946 819 838 938 q 1054 467 1054 701 q 946 117 1054 233 q 631 0 838 0 l 503 0 q 188 117 296 0 q 79 467 79 233 q 188 819 79 701 q 503 938 296 938 m 631 774 l 503 774 q 305 701 367 774 q 243 467 243 628 q 305 235 243 307 q 503 164 367 164 l 631 164 q 828 235 767 164 q 889 468 889 307 q 828 701 889 628 q 631 774 767 774 z "},"П":{"ha":1035,"x_min":114,"x_max":922,"o":"m 192 938 l 843 938 q 922 861 922 938 l 922 0 l 757 0 l 757 757 q 740 774 757 774 l 296 774 q 278 757 278 774 l 278 0 l 114 0 l 114 861 q 192 938 114 938 z "},"Р":{"ha":943,"x_min":111,"x_max":893,"o":"m 111 938 l 592 938 q 817 858 742 938 q 893 657 893 778 q 865 517 893 581 q 766 408 836 453 q 592 363 696 363 l 300 363 q 276 339 276 363 l 276 0 l 113 0 l 113 371 q 147 485 113 450 q 260 519 182 519 l 597 519 q 695 557 663 519 q 728 649 728 594 q 695 738 728 703 q 599 774 663 774 l 111 774 l 111 938 z "},"С":{"ha":947,"x_min":79,"x_max":865,"o":"m 503 938 l 865 938 l 865 774 l 503 774 q 305 701 367 774 q 243 468 243 629 q 305 236 243 308 q 503 164 367 164 l 865 164 l 865 0 l 503 0 q 188 117 296 0 q 79 468 79 235 q 188 819 79 701 q 503 938 296 938 z "},"Т":{"ha":793,"x_min":40,"x_max":753,"o":"m 40 938 l 753 938 l 753 774 l 479 774 l 479 0 l 314 0 l 314 774 l 40 774 l 40 938 z "},"У":{"ha":1014,"x_min":18,"x_max":996,"o":"m 18 938 l 203 938 l 499 415 l 810 938 l 996 938 l 554 186 q 427 38 492 76 q 235 0 363 0 l 103 0 l 103 164 l 263 164 q 339 178 313 164 q 393 238 365 193 l 408 263 l 18 938 z "},"Ф":{"ha":1181,"x_min":79,"x_max":1101,"o":"m 457 832 l 508 832 l 508 938 l 672 938 l 672 832 l 725 832 q 1101 467 1101 832 q 725 107 1101 107 l 672 107 l 672 0 l 508 0 l 508 107 l 457 107 q 79 467 79 107 q 457 832 79 832 m 725 657 l 672 657 l 672 282 l 725 282 q 887 325 836 282 q 938 468 938 368 q 887 613 938 568 q 725 657 836 657 m 457 282 l 508 282 l 508 657 l 457 657 q 294 613 346 657 q 243 468 243 568 q 294 325 243 368 q 457 282 344 282 z "},"Х":{"ha":1085,"x_min":26,"x_max":1060,"o":"m 65 938 l 265 938 l 553 592 l 854 938 l 1057 938 l 656 476 l 1060 0 l 860 0 l 549 372 l 229 0 l 26 0 l 446 489 l 65 938 z "},"Ц":{"ha":1154,"x_min":113,"x_max":1114,"o":"m 192 0 q 113 76 113 0 l 113 938 l 278 938 l 278 181 q 294 164 278 164 l 757 164 l 757 938 l 921 938 l 921 164 l 1114 164 l 1114 -294 l 967 -294 l 967 0 l 192 0 z "},"Ч":{"ha":1003,"x_min":106,"x_max":889,"o":"m 106 938 l 272 938 l 272 608 q 442 447 272 447 l 724 447 l 724 938 l 889 938 l 889 0 l 724 0 l 724 282 l 424 282 q 186 362 267 282 q 106 596 106 442 l 106 938 z "},"Ш":{"ha":1386,"x_min":114,"x_max":1274,"o":"m 114 938 l 278 938 l 278 181 q 296 164 278 164 l 611 164 l 611 938 l 775 938 l 775 164 l 1092 164 q 1108 181 1108 164 l 1108 938 l 1274 938 l 1274 76 q 1194 0 1274 0 l 192 0 q 114 76 114 0 l 114 938 z "},"Щ":{"ha":1506,"x_min":114,"x_max":1465,"o":"m 114 938 l 278 938 l 278 181 q 296 164 278 164 l 611 164 l 611 938 l 775 938 l 775 164 l 1108 164 l 1108 938 l 1274 938 l 1274 164 l 1465 164 l 1465 -294 l 1318 -294 l 1318 0 l 192 0 q 114 76 114 0 l 114 938 z "},"Ъ":{"ha":1099,"x_min":40,"x_max":1050,"o":"m 40 938 l 317 938 q 433 817 433 938 l 433 599 q 457 575 433 575 l 749 575 q 976 488 901 575 q 1050 281 1050 401 q 974 80 1050 160 q 749 0 899 0 l 268 0 l 268 164 l 756 164 q 852 199 819 164 q 885 289 885 235 q 852 381 885 343 q 754 418 819 418 l 417 418 q 304 453 339 418 q 269 567 269 488 l 269 724 q 261 763 269 753 q 229 774 253 774 l 40 774 l 40 938 z "},"Ы":{"ha":1282,"x_min":111,"x_max":1168,"o":"m 1004 938 l 1168 938 l 1168 0 l 1004 0 l 1004 938 m 113 938 l 276 938 l 276 599 q 300 575 276 575 l 592 575 q 819 488 744 575 q 893 281 893 401 q 817 80 893 160 q 592 0 742 0 l 111 0 l 111 164 l 599 164 q 695 199 663 164 q 728 289 728 235 q 695 381 728 343 q 597 418 663 418 l 260 418 q 147 453 182 418 q 113 567 113 488 l 113 938 z "},"Ь":{"ha":943,"x_min":111,"x_max":893,"o":"m 113 938 l 276 938 l 276 599 q 300 575 276 575 l 592 575 q 819 488 744 575 q 893 281 893 401 q 817 80 893 160 q 592 0 742 0 l 111 0 l 111 164 l 599 164 q 695 199 663 164 q 728 289 728 235 q 695 381 728 343 q 597 418 663 418 l 260 418 q 147 453 182 418 q 113 567 113 488 l 113 938 z "},"Э":{"ha":947,"x_min":82,"x_max":867,"o":"m 217 544 l 699 544 q 624 719 686 664 q 444 774 563 774 l 82 774 l 82 938 l 444 938 q 759 820 651 938 q 867 468 867 703 q 759 117 867 235 q 444 0 651 0 l 82 0 l 82 164 l 444 164 q 625 219 564 164 q 699 396 686 275 l 217 396 l 217 544 z "},"Ю":{"ha":1483,"x_min":114,"x_max":1404,"o":"m 853 938 l 981 938 q 1296 819 1188 938 q 1404 467 1404 701 q 1296 117 1404 233 q 981 0 1188 0 l 853 0 q 432 396 463 0 l 278 396 l 278 0 l 114 0 l 114 938 l 278 938 l 278 544 l 432 544 q 558 839 450 740 q 853 938 665 938 m 981 774 l 853 774 q 655 701 717 774 q 593 468 593 628 q 654 235 593 307 q 853 164 715 164 l 981 164 q 1178 235 1117 164 q 1239 468 1239 307 q 1178 701 1239 628 q 981 774 1117 774 z "},"Я":{"ha":992,"x_min":50,"x_max":881,"o":"m 372 938 l 881 938 l 881 774 l 365 774 q 268 739 301 774 q 235 650 235 704 q 268 557 235 594 q 367 519 301 519 l 732 519 q 844 485 810 519 q 879 371 879 450 l 879 0 l 714 0 l 714 339 q 690 363 714 363 l 444 363 l 233 0 l 50 0 l 269 375 q 119 481 168 403 q 71 657 71 560 q 147 858 71 779 q 372 938 222 938 z "},"а":{"ha":933,"x_min":90,"x_max":831,"o":"m 135 733 l 575 733 q 768 668 706 733 q 831 492 831 603 l 831 147 q 800 33 831 65 q 679 0 769 0 l 336 0 q 90 224 90 0 q 149 381 90 328 q 338 435 207 435 l 686 435 l 686 490 q 658 564 686 536 q 574 592 631 592 l 135 592 l 135 733 m 646 143 q 686 181 686 143 l 686 318 l 340 318 q 235 232 235 318 q 338 143 235 143 l 646 143 z "},"б":{"ha":965,"x_min":106,"x_max":894,"o":"m 383 1035 l 663 1035 q 707 1076 707 1035 l 707 1128 l 840 1128 l 840 1036 q 701 893 840 893 l 399 893 q 285 859 318 893 q 253 744 253 825 l 253 688 l 578 688 q 810 601 726 688 q 894 344 894 514 q 811 87 894 174 q 578 0 728 0 l 375 0 q 106 314 106 0 l 106 744 q 168 968 106 901 q 383 1035 231 1035 m 563 556 l 253 556 l 253 313 q 291 183 253 222 q 418 143 329 143 l 563 143 q 702 191 658 143 q 746 349 746 239 q 702 507 746 458 q 563 556 658 556 z "},"в":{"ha":878,"x_min":106,"x_max":797,"o":"m 183 733 l 532 733 q 794 533 794 733 q 688 369 794 411 q 797 201 797 324 q 734 54 797 108 q 535 0 671 0 l 183 0 q 106 76 106 0 l 106 657 q 183 733 106 733 m 253 314 l 253 150 q 271 133 253 133 l 531 133 q 619 156 593 133 q 646 224 646 178 q 619 292 646 269 q 531 314 593 314 l 253 314 m 253 585 l 253 426 l 526 426 q 616 447 589 426 q 643 513 643 468 q 617 579 643 557 q 528 601 590 601 l 271 601 q 253 585 253 601 z "},"г":{"ha":639,"x_min":104,"x_max":600,"o":"m 313 733 l 600 733 l 600 592 l 358 592 q 278 568 303 592 q 253 493 253 544 l 253 0 l 104 0 l 104 526 q 155 678 104 622 q 313 733 206 733 z "},"д":{"ha":928,"x_min":40,"x_max":888,"o":"m 40 142 l 72 142 q 139 162 117 142 q 206 268 161 182 l 388 617 q 464 726 428 694 q 578 757 500 757 q 716 714 668 757 q 764 596 764 671 l 764 142 l 888 142 l 888 -294 l 740 -294 l 740 0 l 188 0 l 188 -294 l 40 -294 l 40 142 m 292 142 l 615 142 l 615 589 q 571 625 615 625 q 526 594 542 625 l 336 225 q 292 142 300 156 z "},"е":{"ha":906,"x_min":90,"x_max":831,"o":"m 346 733 l 583 733 q 831 508 831 733 q 772 351 831 404 q 582 297 714 297 l 233 297 l 233 244 q 346 143 233 143 l 794 143 l 794 0 l 346 0 q 153 65 215 0 q 90 242 90 131 l 90 492 q 153 668 90 603 q 346 733 215 733 m 233 490 l 233 413 l 578 413 q 686 500 686 413 q 582 592 686 592 l 346 592 q 261 564 289 592 q 233 490 233 536 z "},"ж":{"ha":1313,"x_min":26,"x_max":1288,"o":"m 50 733 l 210 733 l 331 513 q 398 443 368 457 q 514 429 428 429 l 582 429 l 582 733 l 731 733 l 731 429 l 799 429 q 915 443 885 429 q 982 513 944 457 l 1104 733 l 1264 733 l 1136 503 q 1076 420 1104 450 q 1006 372 1047 390 q 1086 327 1054 358 q 1156 231 1118 296 l 1288 0 l 1122 0 l 1000 217 q 928 290 963 274 q 799 306 893 306 l 731 306 l 731 0 l 582 0 l 582 306 l 514 306 q 385 290 419 306 q 314 217 350 274 l 190 0 l 26 0 l 157 231 q 226 326 193 294 q 307 372 258 358 q 236 420 264 390 q 176 503 208 450 l 50 733 z "},"з":{"ha":878,"x_min":90,"x_max":797,"o":"m 90 733 l 540 733 q 733 681 672 733 q 794 539 794 628 q 693 367 794 413 q 797 196 797 322 q 736 53 797 107 q 543 0 675 0 l 90 0 l 90 142 l 533 142 q 620 163 594 142 q 646 228 646 185 q 620 292 646 272 q 532 313 594 313 l 258 313 l 258 422 l 531 422 q 617 442 592 422 q 643 507 643 463 q 531 593 643 593 l 90 593 l 90 733 z "},"и":{"ha":1018,"x_min":106,"x_max":914,"o":"m 106 733 l 253 733 l 253 156 q 294 118 253 118 q 344 147 331 118 l 553 610 q 618 712 575 678 q 739 746 661 746 q 869 703 825 746 q 914 585 914 660 l 914 0 l 765 0 l 765 578 q 724 617 765 617 q 674 586 690 617 l 453 124 q 390 19 426 53 q 279 -14 353 -14 q 150 30 194 -14 q 106 150 106 74 l 106 733 z "},"й":{"ha":1018,"x_min":106,"x_max":914,"o":"m 226 1079 l 350 1079 l 350 1001 q 383 908 350 935 q 510 882 417 882 q 635 908 603 882 q 667 1001 667 933 l 667 1079 l 792 1079 l 792 1000 q 732 829 792 878 q 510 781 672 781 q 286 828 346 781 q 226 1000 226 876 l 226 1079 m 106 733 l 253 733 l 253 156 q 294 118 253 118 q 344 147 331 118 l 553 610 q 618 712 575 678 q 739 746 661 746 q 869 703 825 746 q 914 585 914 660 l 914 0 l 765 0 l 765 578 q 724 617 765 617 q 674 586 690 617 l 453 124 q 390 19 426 53 q 279 -14 353 -14 q 150 30 194 -14 q 106 150 106 74 l 106 733 z "},"к":{"ha":836,"x_min":106,"x_max":810,"o":"m 106 733 l 253 733 l 253 429 l 321 429 q 437 443 407 429 q 504 513 467 457 l 626 733 l 786 733 l 658 503 q 598 420 626 450 q 528 372 569 390 q 608 327 576 358 q 678 231 640 296 l 810 0 l 644 0 l 522 217 q 450 290 485 274 q 321 306 415 306 l 253 306 l 253 0 l 106 0 l 106 733 z "},"л":{"ha":869,"x_min":40,"x_max":764,"o":"m 40 142 l 72 142 q 139 162 117 142 q 206 268 161 182 l 388 617 q 464 726 428 694 q 578 757 500 757 q 716 714 668 757 q 764 596 764 671 l 764 0 l 615 0 l 615 589 q 571 625 615 625 q 526 594 542 625 l 336 225 q 279 119 299 151 q 228 53 260 86 q 160 10 197 21 q 68 0 124 0 l 40 0 l 40 142 z "},"м":{"ha":1286,"x_min":106,"x_max":1181,"o":"m 246 574 l 246 0 l 106 0 l 106 581 q 153 701 106 657 q 286 746 200 746 q 465 600 428 746 l 593 154 q 643 115 604 115 q 693 154 682 115 l 819 600 q 1000 746 857 746 q 1133 701 1085 746 q 1181 581 1181 657 l 1181 0 l 1039 0 l 1039 574 q 986 617 1039 617 q 935 581 946 617 l 801 133 q 743 24 779 57 q 643 -10 707 -10 q 544 24 581 -10 q 483 133 507 57 l 350 581 q 299 617 339 617 q 246 574 246 617 z "},"н":{"ha":978,"x_min":106,"x_max":872,"o":"m 106 733 l 253 733 l 253 446 l 724 446 l 724 733 l 872 733 l 872 0 l 724 0 l 724 304 l 253 304 l 253 0 l 106 0 l 106 733 z "},"о":{"ha":932,"x_min":71,"x_max":861,"o":"m 389 733 l 543 733 q 777 641 693 733 q 861 367 861 549 q 777 92 861 185 q 543 0 693 0 l 389 0 q 155 92 239 0 q 71 367 71 185 q 155 641 71 549 q 389 733 239 733 m 529 592 l 403 592 q 263 538 307 592 q 219 367 219 485 q 263 196 219 249 q 403 143 307 143 l 529 143 q 669 196 625 143 q 713 367 713 249 q 669 538 713 485 q 529 592 625 592 z "},"п":{"ha":978,"x_min":106,"x_max":872,"o":"m 183 733 l 793 733 q 872 657 872 733 l 872 0 l 724 0 l 724 575 q 707 592 724 592 l 271 592 q 253 575 253 592 l 253 0 l 106 0 l 106 657 q 183 733 106 733 z "},"р":{"ha":963,"x_min":103,"x_max":892,"o":"m 372 733 l 575 733 q 808 641 725 733 q 892 367 892 549 q 808 92 892 185 q 575 0 725 0 l 250 0 l 250 -294 l 103 -294 l 103 419 q 372 733 103 733 m 250 413 l 250 143 l 560 143 q 699 196 656 143 q 743 367 743 249 q 699 538 743 485 q 560 592 656 592 l 415 592 q 288 550 326 592 q 250 413 250 508 z "},"с":{"ha":836,"x_min":71,"x_max":767,"o":"m 389 733 l 767 733 l 767 592 l 403 592 q 263 538 307 592 q 219 367 219 485 q 263 196 219 249 q 403 143 307 143 l 767 143 l 767 0 l 389 0 q 155 92 239 0 q 71 367 71 185 q 155 641 71 549 q 389 733 239 733 z "},"т":{"ha":796,"x_min":40,"x_max":750,"o":"m 40 733 l 750 733 l 750 592 l 469 592 l 469 0 l 321 0 l 321 592 l 40 592 l 40 733 z "},"у":{"ha":899,"x_min":26,"x_max":872,"o":"m 715 733 l 872 733 l 431 -294 l 272 -294 l 410 26 q 321 47 350 26 q 272 117 292 67 l 26 733 l 182 733 l 403 188 q 418 163 410 168 q 447 157 426 157 l 467 157 l 715 733 z "},"ф":{"ha":1115,"x_min":71,"x_max":1044,"o":"m 483 1018 l 632 1018 l 632 733 l 728 733 q 961 640 878 733 q 1044 365 1044 547 q 961 92 1044 185 q 728 0 878 0 l 632 0 l 632 -285 l 483 -285 l 483 0 l 389 0 q 155 92 239 0 q 71 365 71 185 q 155 640 71 547 q 389 733 239 733 l 483 733 l 483 1018 m 713 592 l 632 592 l 632 143 l 713 143 q 852 196 808 143 q 896 365 896 249 q 852 538 896 485 q 713 592 808 592 m 403 143 l 483 143 l 483 592 l 403 592 q 263 538 307 592 q 219 365 219 485 q 263 196 219 249 q 403 143 307 143 z "},"х":{"ha":946,"x_min":26,"x_max":919,"o":"m 50 733 l 236 733 l 479 468 l 732 733 l 915 733 l 571 368 l 919 0 l 732 0 l 474 282 l 210 0 l 26 0 l 383 382 l 50 733 z "},"ц":{"ha":1106,"x_min":106,"x_max":1065,"o":"m 918 0 l 185 0 q 106 76 106 0 l 106 733 l 254 733 l 254 158 q 271 142 254 142 l 725 142 l 725 733 l 872 733 l 872 142 l 1065 142 l 1065 -294 l 918 -294 l 918 0 z "},"ч":{"ha":940,"x_min":97,"x_max":835,"o":"m 97 733 l 244 733 l 244 519 q 282 428 244 461 q 394 396 319 396 l 686 396 l 686 733 l 835 733 l 835 0 l 686 0 l 686 254 l 379 254 q 169 323 242 254 q 97 510 97 392 l 97 733 z "},"ш":{"ha":1256,"x_min":106,"x_max":1150,"o":"m 106 733 l 253 733 l 253 158 q 271 142 253 142 l 554 142 l 554 733 l 701 733 l 701 142 l 985 142 q 1003 158 1003 142 l 1003 733 l 1150 733 l 1150 76 q 1072 0 1150 0 l 183 0 q 106 76 106 0 l 106 733 z "},"щ":{"ha":1383,"x_min":106,"x_max":1343,"o":"m 106 733 l 253 733 l 253 158 q 271 142 253 142 l 554 142 l 554 733 l 701 733 l 701 142 l 1003 142 l 1003 733 l 1150 733 l 1150 142 l 1343 142 l 1343 -294 l 1196 -294 l 1196 0 l 183 0 q 106 76 106 0 l 106 733 z "},"ъ":{"ha":1025,"x_min":40,"x_max":947,"o":"m 40 733 l 353 733 q 442 658 442 733 l 442 489 q 463 469 442 469 l 710 469 q 889 401 831 469 q 947 232 947 332 q 888 65 947 131 q 710 0 828 0 l 293 0 l 293 142 l 707 142 q 779 167 754 142 q 804 233 804 193 q 780 303 804 275 q 707 332 756 332 l 417 332 q 324 361 353 332 q 294 456 294 390 l 294 561 q 264 592 294 592 l 40 592 l 40 733 z "},"ы":{"ha":1119,"x_min":106,"x_max":1014,"o":"m 107 733 l 254 733 l 254 489 q 275 469 254 469 l 522 469 q 701 401 643 469 q 760 232 760 332 q 700 65 760 131 q 522 0 640 0 l 106 0 l 106 142 l 519 142 q 592 167 567 142 q 617 233 617 193 q 592 303 617 275 q 519 332 568 332 l 229 332 q 136 361 165 332 q 107 456 107 390 l 107 733 m 867 733 l 1014 733 l 1014 0 l 867 0 l 867 733 z "},"ь":{"ha":838,"x_min":106,"x_max":760,"o":"m 107 733 l 254 733 l 254 489 q 275 469 254 469 l 522 469 q 701 401 643 469 q 760 232 760 332 q 700 65 760 131 q 522 0 640 0 l 106 0 l 106 142 l 519 142 q 592 167 567 142 q 617 233 617 193 q 592 303 617 275 q 519 332 568 332 l 229 332 q 136 361 165 332 q 107 456 107 390 l 107 733 z "},"э":{"ha":836,"x_min":69,"x_max":765,"o":"m 239 422 l 614 422 q 433 600 596 600 l 69 600 l 69 733 l 447 733 q 681 640 597 733 q 765 365 765 547 q 681 92 765 185 q 447 0 597 0 l 69 0 l 69 135 l 433 135 q 563 180 519 135 q 615 321 607 225 l 239 321 l 239 422 z "},"ю":{"ha":1260,"x_min":106,"x_max":1190,"o":"m 718 733 l 872 733 q 1106 640 1022 733 q 1190 365 1190 547 q 1106 92 1190 185 q 872 0 1022 0 l 718 0 q 497 78 579 0 q 401 311 414 157 l 253 311 l 253 0 l 106 0 l 106 733 l 253 733 l 253 428 l 403 428 q 499 656 417 579 q 718 733 581 733 m 858 592 l 732 592 q 592 538 636 592 q 549 365 549 485 q 592 196 549 249 q 732 143 636 143 l 858 143 q 998 196 954 143 q 1042 365 1042 249 q 998 538 1042 485 q 858 592 954 592 z "},"я":{"ha":856,"x_min":53,"x_max":760,"o":"m 326 733 l 760 733 l 760 592 l 328 592 q 246 566 274 592 q 218 500 218 540 q 245 431 218 458 q 328 404 272 404 l 629 404 q 728 376 697 404 q 758 282 758 347 l 758 0 l 610 0 l 610 254 q 589 275 610 275 l 392 275 l 217 0 l 53 0 l 235 285 q 110 367 150 307 q 69 507 69 426 q 133 671 69 608 q 326 733 197 733 z "},"ѐ":{"ha":906,"x_min":90,"x_max":831,"o":"m 346 733 l 583 733 q 831 508 831 733 q 772 351 831 404 q 582 297 714 297 l 233 297 l 233 244 q 346 143 233 143 l 794 143 l 794 0 l 346 0 q 153 65 215 0 q 90 242 90 131 l 90 492 q 153 668 90 603 q 346 733 215 733 m 233 490 l 233 413 l 578 413 q 686 500 686 413 q 582 592 686 592 l 346 592 q 261 564 289 592 q 233 490 233 536 m 281 1079 l 444 1079 l 600 781 l 453 781 l 281 1079 z "},"ё":{"ha":906,"x_min":90,"x_max":831,"o":"m 346 733 l 583 733 q 831 508 831 733 q 772 351 831 404 q 582 297 714 297 l 233 297 l 233 244 q 346 143 233 143 l 794 143 l 794 0 l 346 0 q 153 65 215 0 q 90 242 90 131 l 90 492 q 153 668 90 603 q 346 733 215 733 m 233 490 l 233 413 l 578 413 q 686 500 686 413 q 582 592 686 592 l 346 592 q 261 564 289 592 q 233 490 233 536 m 217 1010 l 365 1010 l 365 839 l 217 839 l 217 1010 m 550 1010 l 699 1010 l 699 839 l 550 839 l 550 1010 z "},"ђ":{"ha":982,"x_min":106,"x_max":881,"o":"m 732 -43 l 732 413 q 511 592 732 592 l 253 592 l 253 0 l 106 0 l 106 1051 l 253 1051 l 253 996 l 743 996 l 743 872 l 253 872 l 253 733 l 511 733 q 787 650 693 733 q 881 413 881 567 l 881 -42 q 831 -238 881 -182 q 665 -294 781 -294 l 536 -294 l 536 -153 l 632 -153 q 709 -128 686 -153 q 732 -43 732 -104 z "},"ѓ":{"ha":639,"x_min":104,"x_max":600,"o":"m 400 1079 l 564 1079 l 390 781 l 244 781 l 400 1079 m 313 733 l 600 733 l 600 592 l 358 592 q 278 568 303 592 q 253 493 253 544 l 253 0 l 104 0 l 104 526 q 155 678 104 622 q 313 733 206 733 z "},"є":{"ha":836,"x_min":71,"x_max":767,"o":"m 389 733 l 767 733 l 767 600 l 403 600 q 222 422 240 600 l 597 422 l 597 321 l 221 321 q 272 181 228 226 q 403 135 317 135 l 767 135 l 767 0 l 389 0 q 155 92 239 0 q 71 365 71 185 q 155 640 71 547 q 389 733 239 733 z "},"ѕ":{"ha":814,"x_min":71,"x_max":746,"o":"m 310 733 l 717 733 l 717 592 l 311 592 q 215 508 215 592 q 238 449 215 468 q 319 429 261 429 l 492 429 q 690 374 633 429 q 746 222 746 318 q 688 59 746 118 q 506 0 629 0 l 79 0 l 79 143 l 506 143 q 579 162 557 143 q 601 224 601 181 q 577 286 601 267 q 497 306 553 306 l 324 306 q 71 519 71 306 q 310 733 71 733 z "},"і":{"ha":358,"x_min":106,"x_max":254,"o":"m 106 733 l 253 733 l 253 0 l 106 0 l 106 733 m 106 1010 l 254 1010 l 254 839 l 106 839 l 106 1010 z "},"ї":{"ha":481,"x_min":-1,"x_max":481,"o":"m -1 1010 l 147 1010 l 147 839 l -1 839 l -1 1010 m 332 1010 l 481 1010 l 481 839 l 332 839 l 332 1010 m 165 733 l 313 733 l 313 0 l 165 0 l 165 733 z "},"ј":{"ha":375,"x_min":-75,"x_max":269,"o":"m 121 733 l 269 733 l 269 -42 q 219 -238 269 -182 q 54 -294 169 -294 l -75 -294 l -75 -153 l 21 -153 q 98 -128 75 -153 q 121 -43 121 -104 l 121 733 m 121 1010 l 269 1010 l 269 839 l 121 839 l 121 1010 z "},"љ":{"ha":1346,"x_min":40,"x_max":1269,"o":"m 764 596 l 764 489 q 785 469 764 469 l 1032 469 q 1211 401 1153 469 q 1269 232 1269 332 q 1210 65 1269 131 q 1032 0 1150 0 l 615 0 l 615 142 l 1029 142 q 1101 167 1076 142 q 1126 233 1126 193 q 1102 303 1126 275 q 1029 332 1078 332 l 739 332 q 646 361 675 332 q 617 456 617 390 l 617 589 q 571 625 617 625 q 526 594 542 625 l 336 225 q 279 119 299 151 q 228 53 260 86 q 160 10 197 21 q 68 0 124 0 l 40 0 l 40 142 l 72 142 q 139 162 117 142 q 206 268 161 182 l 388 617 q 464 726 428 694 q 578 757 500 757 q 716 714 668 757 q 764 596 764 671 z "},"њ":{"ha":1407,"x_min":106,"x_max":1329,"o":"m 106 733 l 253 733 l 253 469 l 690 469 l 690 733 l 839 733 l 839 469 l 1092 469 q 1271 401 1213 469 q 1329 232 1329 332 q 1269 65 1329 131 q 1092 0 1210 0 l 689 0 l 689 142 l 1089 142 q 1162 167 1138 142 q 1186 233 1186 192 q 1163 303 1186 275 q 1089 332 1139 332 l 253 332 l 253 0 l 106 0 l 106 733 z "},"ћ":{"ha":982,"x_min":106,"x_max":881,"o":"m 106 1051 l 253 1051 l 253 996 l 743 996 l 743 872 l 253 872 l 253 733 l 511 733 q 787 650 693 733 q 881 413 881 567 l 881 0 l 732 0 l 732 413 q 511 592 732 592 l 253 592 l 253 0 l 106 0 l 106 1051 z "},"ќ":{"ha":836,"x_min":106,"x_max":810,"o":"m 428 1079 l 592 1079 l 418 781 l 272 781 l 428 1079 m 106 733 l 253 733 l 253 429 l 321 429 q 437 443 407 429 q 504 513 467 457 l 626 733 l 786 733 l 658 503 q 598 420 626 450 q 528 372 569 390 q 608 327 576 358 q 678 231 640 296 l 810 0 l 644 0 l 522 217 q 450 290 485 274 q 321 306 415 306 l 253 306 l 253 0 l 106 0 l 106 733 z "},"ѝ":{"ha":1018,"x_min":106,"x_max":914,"o":"m 336 1079 l 500 1079 l 656 781 l 508 781 l 336 1079 m 106 733 l 253 733 l 253 156 q 294 118 253 118 q 344 147 331 118 l 553 610 q 618 712 575 678 q 739 746 661 746 q 869 703 825 746 q 914 585 914 660 l 914 0 l 765 0 l 765 578 q 724 617 765 617 q 674 586 690 617 l 453 124 q 390 19 426 53 q 279 -14 353 -14 q 150 30 194 -14 q 106 150 106 74 l 106 733 z "},"ў":{"ha":899,"x_min":26,"x_max":872,"o":"m 715 733 l 872 733 l 431 -294 l 272 -294 l 410 26 q 321 47 350 26 q 272 117 292 67 l 26 733 l 182 733 l 403 188 q 418 163 410 168 q 447 157 426 157 l 467 157 l 715 733 m 158 1079 l 282 1079 l 282 1001 q 315 908 282 935 q 442 882 349 882 q 567 908 535 882 q 599 1001 599 933 l 599 1079 l 724 1079 l 724 1000 q 664 829 724 878 q 442 781 604 781 q 218 828 278 781 q 158 1000 158 876 l 158 1079 z "},"џ":{"ha":978,"x_min":106,"x_max":872,"o":"m 794 0 l 561 0 l 561 -294 l 414 -294 l 414 0 l 185 0 q 106 76 106 0 l 106 733 l 254 733 l 254 158 q 271 142 254 142 l 707 142 q 725 158 725 142 l 725 733 l 872 733 l 872 76 q 794 0 872 0 z "},"Ґ":{"ha":864,"x_min":104,"x_max":824,"o":"m 450 938 l 676 938 l 676 1232 l 824 1232 l 824 774 l 460 774 q 268 613 268 774 l 268 0 l 104 0 l 104 614 q 188 851 104 764 q 450 938 272 938 z "},"ґ":{"ha":639,"x_min":104,"x_max":600,"o":"m 313 733 l 453 733 l 453 1028 l 600 1028 l 600 592 l 358 592 q 278 568 303 592 q 253 493 253 544 l 253 0 l 104 0 l 104 526 q 155 678 104 622 q 313 733 206 733 z "},"Ғ":{"ha":878,"x_min":10,"x_max":838,"o":"m 464 938 l 838 938 l 838 774 l 474 774 q 282 613 282 774 l 282 517 l 647 517 l 647 393 l 282 393 l 282 0 l 118 0 l 118 393 l 10 393 l 10 517 l 118 517 l 118 614 q 202 851 118 764 q 464 938 286 938 z "},"ғ":{"ha":682,"x_min":10,"x_max":647,"o":"m 331 733 l 618 733 l 618 592 l 376 592 q 296 568 321 592 q 271 493 271 544 l 271 383 l 647 383 l 647 260 l 271 260 l 271 0 l 122 0 l 122 260 l 10 260 l 10 383 l 122 383 l 122 526 q 173 678 122 622 q 331 733 224 733 z "},"Җ":{"ha":1711,"x_min":28,"x_max":1671,"o":"m 54 938 l 232 938 l 375 657 q 454 560 414 581 q 614 540 494 540 l 706 540 l 706 938 l 869 938 l 869 540 l 960 540 q 1120 560 1081 540 q 1200 657 1160 579 l 1343 938 l 1519 938 l 1372 646 q 1302 540 1339 581 q 1210 475 1265 499 q 1313 419 1274 458 q 1396 294 1353 379 l 1463 164 l 1671 164 l 1671 -294 l 1524 -294 l 1524 0 l 1364 0 l 1221 278 q 1137 372 1182 353 q 960 392 1092 392 l 869 392 l 869 0 l 706 0 l 706 392 l 614 392 q 441 372 485 392 q 354 278 397 353 l 211 0 l 28 0 l 179 294 q 261 418 222 379 q 363 474 300 457 q 272 538 307 497 q 203 646 238 578 l 54 938 z "},"җ":{"ha":1450,"x_min":26,"x_max":1410,"o":"m 50 733 l 210 733 l 331 513 q 398 443 368 457 q 514 429 428 429 l 582 429 l 582 733 l 731 733 l 731 429 l 799 429 q 915 443 885 429 q 982 513 944 457 l 1104 733 l 1264 733 l 1136 503 q 1078 420 1107 450 q 1007 372 1050 390 q 1086 326 1054 357 q 1156 231 1118 294 l 1206 142 l 1410 142 l 1410 -294 l 1263 -294 l 1263 0 l 1122 0 l 1000 217 q 928 290 963 274 q 799 306 893 306 l 731 306 l 731 0 l 582 0 l 582 306 l 514 306 q 381 290 417 306 q 314 217 346 274 l 190 0 l 26 0 l 157 231 q 226 326 193 294 q 307 372 258 358 q 234 421 264 390 q 176 503 204 451 l 50 733 z "},"Қ":{"ha":1119,"x_min":114,"x_max":1079,"o":"m 114 938 l 278 938 l 278 540 l 368 540 q 528 560 489 540 q 608 657 568 579 l 751 938 l 928 938 l 781 646 q 710 540 747 581 q 618 475 674 499 q 722 419 682 458 q 804 294 761 379 l 871 164 l 1079 164 l 1079 -294 l 932 -294 l 932 0 l 772 0 l 629 278 q 545 372 590 353 q 368 392 500 392 l 278 392 l 278 0 l 114 0 l 114 938 z "},"қ":{"ha":974,"x_min":106,"x_max":933,"o":"m 106 733 l 253 733 l 253 429 l 321 429 q 437 443 407 429 q 504 513 467 457 l 626 733 l 786 733 l 658 503 q 601 420 629 450 q 529 372 572 390 q 608 326 576 357 q 678 231 640 294 l 728 142 l 933 142 l 933 -294 l 786 -294 l 786 0 l 644 0 l 522 217 q 450 290 485 274 q 321 306 415 306 l 253 306 l 253 0 l 106 0 l 106 733 z "},"Ң":{"ha":1156,"x_min":114,"x_max":1115,"o":"m 114 938 l 278 938 l 278 556 l 757 556 l 757 938 l 922 938 l 922 164 l 1115 164 l 1115 -294 l 968 -294 l 968 0 l 757 0 l 757 392 l 278 392 l 278 0 l 114 0 l 114 938 z "},"ң":{"ha":1106,"x_min":106,"x_max":1065,"o":"m 106 733 l 253 733 l 253 446 l 724 446 l 724 733 l 872 733 l 872 142 l 1065 142 l 1065 -294 l 918 -294 l 918 0 l 724 0 l 724 304 l 253 304 l 253 0 l 106 0 l 106 733 z "},"Ү":{"ha":957,"x_min":18,"x_max":939,"o":"m 18 938 l 217 938 l 479 536 l 744 938 l 939 938 l 561 404 l 561 0 l 396 0 l 396 404 l 18 938 z "},"ү":{"ha":940,"x_min":26,"x_max":914,"o":"m 26 733 l 183 733 l 469 121 l 756 733 l 914 733 l 544 -25 l 544 -294 l 396 -294 l 396 -25 l 26 733 z "},"Ұ":{"ha":957,"x_min":18,"x_max":939,"o":"m 160 353 l 396 353 l 396 404 l 18 938 l 217 938 l 479 536 l 744 938 l 939 938 l 561 404 l 561 353 l 797 353 l 797 229 l 561 229 l 561 0 l 396 0 l 396 229 l 160 229 l 160 353 z "},"ұ":{"ha":940,"x_min":26,"x_max":914,"o":"m 26 733 l 183 733 l 469 121 l 756 733 l 914 733 l 563 13 l 789 13 l 789 -111 l 544 -111 l 544 -294 l 396 -294 l 396 -111 l 151 -111 l 151 13 l 378 13 l 26 733 z "},"Ҳ":{"ha":1222,"x_min":26,"x_max":1182,"o":"m 65 938 l 265 938 l 553 592 l 854 938 l 1057 938 l 656 476 l 921 164 l 1182 164 l 1182 -294 l 1035 -294 l 1035 0 l 860 0 l 549 372 l 229 0 l 26 0 l 446 489 l 65 938 z "},"ҳ":{"ha":1083,"x_min":26,"x_max":1043,"o":"m 50 733 l 236 733 l 479 468 l 732 733 l 915 733 l 571 368 l 785 142 l 1043 142 l 1043 -294 l 896 -294 l 896 0 l 732 0 l 474 282 l 210 0 l 26 0 l 383 382 l 50 733 z "},"Ҷ":{"ha":1121,"x_min":106,"x_max":1082,"o":"m 106 938 l 272 938 l 272 608 q 442 447 272 447 l 724 447 l 724 938 l 889 938 l 889 164 l 1082 164 l 1082 -294 l 935 -294 l 935 0 l 724 0 l 724 282 l 424 282 q 186 362 267 282 q 106 596 106 442 l 106 938 z "},"ҷ":{"ha":1067,"x_min":97,"x_max":1026,"o":"m 97 733 l 244 733 l 244 519 q 282 428 244 461 q 394 396 319 396 l 686 396 l 686 733 l 835 733 l 835 142 l 1026 142 l 1026 -294 l 879 -294 l 879 0 l 686 0 l 686 254 l 379 254 q 169 323 242 254 q 97 510 97 392 l 97 733 z "},"Һ":{"ha":1003,"x_min":114,"x_max":897,"o":"m 897 0 l 731 0 l 731 329 q 561 490 731 490 l 279 490 l 279 0 l 114 0 l 114 938 l 279 938 l 279 656 l 579 656 q 817 576 736 656 q 897 342 897 496 l 897 0 z "},"һ":{"ha":940,"x_min":106,"x_max":843,"o":"m 843 0 l 696 0 l 696 214 q 658 305 696 272 q 546 338 621 338 l 254 338 l 254 0 l 106 0 l 106 733 l 254 733 l 254 479 l 561 479 q 771 410 699 479 q 843 224 843 342 l 843 0 z "},"Ӏ":{"ha":390,"x_min":114,"x_max":278,"o":"m 114 938 l 278 938 l 278 0 l 114 0 l 114 938 z "},"Ӄ":{"ha":983,"x_min":114,"x_max":956,"o":"m 114 938 l 278 938 l 278 540 l 368 540 q 528 560 489 540 q 608 657 568 579 l 751 938 l 928 938 l 781 646 q 710 540 747 581 q 618 475 674 499 q 722 419 682 458 q 804 294 761 379 l 956 0 q 906 -232 956 -169 q 740 -294 857 -294 l 611 -294 l 611 -153 l 707 -153 q 780 -132 757 -153 q 806 -61 803 -111 l 629 278 q 545 372 590 353 q 368 392 500 392 l 278 392 l 278 0 l 114 0 l 114 938 z "},"ӄ":{"ha":836,"x_min":106,"x_max":810,"o":"m 106 733 l 253 733 l 253 429 l 321 429 q 437 443 407 429 q 504 513 467 457 l 626 733 l 786 733 l 658 503 q 598 420 626 450 q 528 372 569 390 q 608 327 576 358 q 678 231 640 296 l 810 0 q 760 -232 810 -169 q 594 -294 711 -294 l 465 -294 l 465 -153 l 561 -153 q 639 -126 617 -153 q 661 -25 661 -99 l 522 217 q 453 290 489 274 q 321 306 418 306 l 253 306 l 253 0 l 106 0 l 106 733 z "},"Ӈ":{"ha":1035,"x_min":114,"x_max":922,"o":"m 114 938 l 278 938 l 278 556 l 757 556 l 757 938 l 922 938 l 922 -42 q 872 -238 922 -182 q 707 -294 822 -294 l 578 -294 l 578 -153 l 657 -153 q 734 -128 711 -153 q 757 -43 757 -104 l 757 392 l 278 392 l 278 0 l 114 0 l 114 938 z "},"ӈ":{"ha":978,"x_min":106,"x_max":872,"o":"m 724 733 l 872 733 l 872 -42 q 822 -238 872 -182 q 657 -294 772 -294 l 528 -294 l 528 -153 l 624 -153 q 701 -128 678 -153 q 724 -43 724 -104 l 724 304 l 253 304 l 253 0 l 106 0 l 106 733 l 253 733 l 253 446 l 724 446 l 724 733 z "},"ӏ":{"ha":365,"x_min":108,"x_max":257,"o":"m 108 1006 l 257 1006 l 257 0 l 108 0 l 108 1006 z "},"Ә":{"ha":1013,"x_min":79,"x_max":939,"o":"m 515 0 l 371 0 q 151 81 222 0 q 79 293 79 161 q 142 488 79 418 q 328 557 206 557 l 769 557 q 694 722 756 669 q 515 774 632 774 l 129 774 l 129 938 l 515 938 q 831 819 722 938 q 939 468 939 701 q 831 117 939 235 q 515 0 722 0 m 515 164 q 702 224 640 164 q 774 415 764 283 l 344 415 q 258 384 288 415 q 229 296 229 353 q 262 199 229 235 q 360 164 294 164 l 515 164 z "},"ә":{"ha":906,"x_min":90,"x_max":831,"o":"m 575 0 l 338 0 q 90 225 90 0 q 149 383 90 329 q 339 436 207 436 l 688 436 l 688 489 q 575 590 688 590 l 126 590 l 126 733 l 575 733 q 768 668 706 733 q 831 492 831 603 l 831 242 q 768 65 831 131 q 575 0 706 0 m 688 243 l 688 321 l 343 321 q 235 233 235 321 q 339 142 235 142 l 575 142 q 660 169 632 142 q 688 243 688 197 z "},"Ө":{"ha":1133,"x_min":79,"x_max":1054,"o":"m 503 938 l 631 938 q 946 819 838 938 q 1054 467 1054 701 q 946 117 1054 233 q 631 0 838 0 l 503 0 q 188 117 296 0 q 79 467 79 233 q 188 819 79 701 q 503 938 296 938 m 631 164 q 811 219 750 164 q 885 396 872 274 l 246 396 q 319 219 258 274 q 503 164 381 164 l 631 164 m 631 774 l 503 774 q 322 719 383 774 q 246 544 260 664 l 885 544 q 810 718 871 663 q 631 774 749 774 z "},"ө":{"ha":932,"x_min":71,"x_max":861,"o":"m 389 733 l 543 733 q 777 640 693 733 q 861 365 861 547 q 777 92 861 185 q 543 0 693 0 l 389 0 q 155 92 239 0 q 71 365 71 185 q 155 640 71 547 q 389 733 239 733 m 529 143 q 658 185 614 143 q 710 318 701 226 l 221 318 q 273 185 229 226 q 403 143 317 143 l 529 143 m 529 592 l 403 592 q 276 551 319 592 q 222 422 232 510 l 710 422 q 656 551 700 510 q 529 592 613 592 z "},"Ӯ":{"ha":1014,"x_min":18,"x_max":996,"o":"m 179 1200 l 817 1200 l 817 1076 l 179 1076 l 179 1200 m 18 938 l 203 938 l 499 415 l 810 938 l 996 938 l 554 186 q 427 38 492 76 q 235 0 363 0 l 103 0 l 103 164 l 263 164 q 339 178 313 164 q 393 238 365 193 l 408 263 l 18 938 z "},"ӯ":{"ha":899,"x_min":26,"x_max":872,"o":"m 715 733 l 872 733 l 431 -294 l 272 -294 l 410 26 q 321 47 350 26 q 272 117 292 67 l 26 733 l 182 733 l 403 188 q 418 163 410 168 q 447 157 426 157 l 467 157 l 715 733 m 125 996 l 763 996 l 763 872 l 125 872 l 125 996 z "},"Ԓ":{"ha":961,"x_min":40,"x_max":849,"o":"m 226 331 l 432 785 q 513 916 474 878 q 639 954 553 954 q 795 901 742 954 q 849 754 849 847 l 849 -42 q 799 -238 849 -182 q 633 -294 749 -294 l 504 -294 l 504 -153 l 583 -153 q 660 -128 638 -153 q 683 -43 683 -104 l 683 746 q 635 796 683 796 q 585 760 601 796 l 372 279 q 310 148 333 192 q 251 65 286 104 q 175 13 217 26 q 71 0 133 0 l 40 0 l 40 164 l 74 164 q 149 193 122 164 q 226 331 176 222 z "},"ԓ":{"ha":869,"x_min":40,"x_max":764,"o":"m 615 -43 l 615 589 q 571 625 615 625 q 526 594 542 625 l 336 225 q 279 119 299 151 q 228 53 260 86 q 160 10 197 21 q 68 0 124 0 l 40 0 l 40 142 l 72 142 q 139 162 117 142 q 206 268 161 182 l 388 617 q 464 726 428 694 q 578 757 500 757 q 716 714 668 757 q 764 596 764 671 l 764 -42 q 714 -238 764 -182 q 549 -294 664 -294 l 419 -294 l 419 -153 l 515 -153 q 592 -128 569 -153 q 615 -43 615 -104 z "},"Ḍ":{"ha":1024,"x_min":114,"x_max":944,"o":"m 192 938 l 522 938 q 944 468 944 938 q 522 0 944 0 l 192 0 q 114 76 114 0 l 114 861 q 192 938 114 938 m 278 757 l 278 181 q 296 164 278 164 l 522 164 q 719 236 658 164 q 781 469 781 308 q 719 702 781 631 q 522 774 658 774 l 296 774 q 278 757 278 774 m 404 -106 l 553 -106 l 553 -276 l 404 -276 l 404 -106 z "},"ḍ":{"ha":965,"x_min":71,"x_max":861,"o":"m 713 1051 l 861 1051 l 861 314 q 592 0 861 0 l 389 0 q 155 92 239 0 q 71 367 71 185 q 155 641 71 549 q 389 733 239 733 l 713 733 l 713 1051 m 549 143 q 674 185 636 143 q 713 321 713 226 l 713 592 l 403 592 q 263 538 307 592 q 219 367 219 485 q 263 196 219 249 q 403 143 307 143 l 549 143 m 413 -106 l 561 -106 l 561 -276 l 413 -276 l 413 -106 z "},"Ḓ":{"ha":1024,"x_min":114,"x_max":944,"o":"m 192 938 l 522 938 q 944 468 944 938 q 522 0 944 0 l 192 0 q 114 76 114 0 l 114 861 q 192 938 114 938 m 278 757 l 278 181 q 296 164 278 164 l 522 164 q 719 236 658 164 q 781 469 781 308 q 719 702 781 631 q 522 774 658 774 l 296 774 q 278 757 278 774 m 192 -367 l 317 -139 q 469 -68 353 -68 q 619 -139 582 -68 l 746 -367 l 589 -367 l 496 -193 q 468 -181 489 -181 q 440 -193 447 -181 l 349 -367 l 192 -367 z "},"ḓ":{"ha":965,"x_min":71,"x_max":861,"o":"m 713 1051 l 861 1051 l 861 314 q 592 0 861 0 l 389 0 q 155 92 239 0 q 71 367 71 185 q 155 641 71 549 q 389 733 239 733 l 713 733 l 713 1051 m 549 143 q 674 185 636 143 q 713 321 713 226 l 713 592 l 403 592 q 263 538 307 592 q 219 367 219 485 q 263 196 219 249 q 403 143 307 143 l 549 143 m 200 -367 l 325 -139 q 478 -68 361 -68 q 628 -139 590 -68 l 754 -367 l 597 -367 l 504 -193 q 476 -181 497 -181 q 449 -193 456 -181 l 357 -367 l 200 -367 z "},"Ḥ":{"ha":1035,"x_min":114,"x_max":922,"o":"m 114 938 l 278 938 l 278 556 l 757 556 l 757 938 l 922 938 l 922 0 l 757 0 l 757 392 l 278 392 l 278 0 l 114 0 l 114 938 m 444 -106 l 593 -106 l 593 -276 l 444 -276 l 444 -106 z "},"ḥ":{"ha":982,"x_min":106,"x_max":881,"o":"m 106 1051 l 253 1051 l 253 733 l 511 733 q 787 650 693 733 q 881 413 881 567 l 881 0 l 732 0 l 732 413 q 511 592 732 592 l 253 592 l 253 0 l 106 0 l 106 1051 m 415 -106 l 564 -106 l 564 -276 l 415 -276 l 415 -106 z "},"Ḽ":{"ha":864,"x_min":104,"x_max":824,"o":"m 104 938 l 268 938 l 268 325 q 460 164 268 164 l 824 164 l 824 0 l 450 0 q 188 87 272 0 q 104 324 104 174 l 104 938 m 185 -367 l 310 -139 q 463 -68 346 -68 q 613 -139 575 -68 l 739 -367 l 582 -367 l 489 -193 q 461 -181 483 -181 q 433 -193 440 -181 l 342 -367 l 185 -367 z "},"ḽ":{"ha":388,"x_min":-83,"x_max":471,"o":"m 121 1051 l 268 1051 l 268 0 l 121 0 l 121 1051 m -83 -367 l 42 -139 q 194 -68 78 -68 q 344 -139 307 -68 l 471 -367 l 314 -367 l 221 -193 q 193 -181 214 -181 q 165 -193 172 -181 l 74 -367 l -83 -367 z "},"Ṅ":{"ha":1221,"x_min":113,"x_max":1110,"o":"m 276 742 l 276 0 l 113 0 l 113 750 q 167 899 113 844 q 328 954 221 954 q 472 910 421 954 q 556 781 524 867 l 829 182 q 889 143 849 143 q 930 158 915 143 q 944 196 944 172 l 944 938 l 1110 938 l 1110 189 q 1055 38 1110 93 q 894 -17 1000 -17 q 749 27 801 -17 q 665 157 697 71 l 392 756 q 333 796 374 796 q 276 742 276 796 m 539 1214 l 688 1214 l 688 1043 l 539 1043 l 539 1214 z "},"ṅ":{"ha":982,"x_min":106,"x_max":881,"o":"m 208 733 l 511 733 q 788 650 694 733 q 881 413 881 567 l 881 0 l 732 0 l 732 413 q 511 592 732 592 l 271 592 q 253 571 253 592 l 253 0 l 106 0 l 106 619 q 129 708 106 683 q 208 733 153 733 m 413 1010 l 561 1010 l 561 839 l 413 839 l 413 1010 z "},"Ṋ":{"ha":1221,"x_min":113,"x_max":1110,"o":"m 276 742 l 276 0 l 113 0 l 113 750 q 167 899 113 844 q 328 954 221 954 q 472 910 421 954 q 556 781 524 867 l 829 182 q 889 143 849 143 q 930 158 915 143 q 944 196 944 172 l 944 938 l 1110 938 l 1110 189 q 1055 38 1110 93 q 894 -17 1000 -17 q 749 27 801 -17 q 665 157 697 71 l 392 756 q 333 796 374 796 q 276 742 276 796 m 322 -367 l 447 -139 q 600 -68 483 -68 q 750 -139 713 -68 l 876 -367 l 719 -367 l 626 -193 q 599 -181 619 -181 q 571 -193 578 -181 l 479 -367 l 322 -367 z "},"ṋ":{"ha":982,"x_min":106,"x_max":881,"o":"m 208 733 l 511 733 q 788 650 694 733 q 881 413 881 567 l 881 0 l 732 0 l 732 413 q 511 592 732 592 l 271 592 q 253 571 253 592 l 253 0 l 106 0 l 106 619 q 129 708 106 683 q 208 733 153 733 m 206 -367 l 331 -139 q 483 -68 367 -68 q 633 -139 596 -68 l 760 -367 l 603 -367 l 510 -193 q 482 -181 503 -181 q 454 -193 461 -181 l 363 -367 l 206 -367 z "},"Ṛ":{"ha":992,"x_min":111,"x_max":940,"o":"m 111 938 l 619 938 q 845 858 769 938 q 921 657 921 778 q 872 482 921 561 q 722 375 822 403 l 940 0 l 758 0 l 544 363 l 300 363 q 276 339 276 363 l 276 0 l 113 0 l 113 371 q 147 485 113 450 q 260 519 182 519 l 625 519 q 723 557 690 519 q 756 650 756 594 q 722 739 756 704 q 625 774 689 774 l 111 774 l 111 938 m 417 -106 l 565 -106 l 565 -276 l 417 -276 l 417 -106 z "},"ṛ":{"ha":643,"x_min":104,"x_max":604,"o":"m 303 733 l 604 733 l 604 592 l 346 592 q 251 497 251 592 l 251 0 l 104 0 l 104 519 q 150 683 104 632 q 303 733 196 733 m 104 -106 l 253 -106 l 253 -276 l 104 -276 l 104 -106 z "},"Ṣ":{"ha":976,"x_min":71,"x_max":908,"o":"m 363 938 l 838 938 l 838 774 l 357 774 q 265 744 296 774 q 235 663 235 714 q 374 551 235 551 l 593 551 q 749 528 685 551 q 847 463 814 504 q 894 376 881 421 q 908 275 908 331 q 835 74 908 149 q 610 0 763 0 l 88 0 l 88 164 l 615 164 q 712 196 679 164 q 744 281 744 228 q 597 397 744 397 l 379 397 q 226 420 290 397 q 131 484 163 443 q 85 569 99 525 q 71 668 71 614 q 142 865 71 792 q 363 938 214 938 m 403 -106 l 551 -106 l 551 -276 l 403 -276 l 403 -106 z "},"ṣ":{"ha":814,"x_min":71,"x_max":746,"o":"m 310 733 l 717 733 l 717 592 l 311 592 q 215 508 215 592 q 238 449 215 468 q 319 429 261 429 l 492 429 q 690 374 633 429 q 746 222 746 318 q 688 59 746 118 q 506 0 629 0 l 79 0 l 79 143 l 506 143 q 579 162 557 143 q 601 224 601 181 q 577 286 601 267 q 497 306 553 306 l 324 306 q 71 519 71 306 q 310 733 71 733 m 324 -106 l 472 -106 l 472 -276 l 324 -276 l 324 -106 z "},"Ṭ":{"ha":793,"x_min":40,"x_max":753,"o":"m 40 938 l 753 938 l 753 774 l 479 774 l 479 0 l 314 0 l 314 774 l 40 774 l 40 938 m 322 -106 l 471 -106 l 471 -276 l 322 -276 l 322 -106 z "},"ṭ":{"ha":521,"x_min":32,"x_max":483,"o":"m 32 733 l 132 733 l 132 907 l 281 907 l 281 733 l 483 733 l 483 592 l 281 592 l 281 244 q 303 159 281 183 q 379 135 326 135 l 481 135 l 481 0 l 349 0 q 182 56 232 0 q 132 253 132 113 l 132 592 l 32 592 l 32 733 m 211 -106 l 360 -106 l 360 -276 l 211 -276 l 211 -106 z "},"Ẁ":{"ha":1453,"x_min":46,"x_max":1410,"o":"m 46 938 l 218 938 l 288 206 q 344 143 294 143 q 403 194 393 143 l 514 769 q 729 954 550 954 q 939 769 906 954 l 1043 194 q 1103 143 1051 143 q 1160 206 1153 143 l 1239 938 l 1410 938 l 1322 196 q 1103 -17 1299 -17 q 888 174 922 -17 l 785 746 q 728 796 776 796 q 671 746 682 796 l 561 174 q 340 -17 524 -17 q 188 39 238 -17 q 126 196 138 94 l 46 938 m 553 1283 l 717 1283 l 872 985 l 725 985 l 553 1283 z "},"ẁ":{"ha":1357,"x_min":42,"x_max":1315,"o":"m 42 733 l 201 733 l 267 161 q 319 114 272 114 q 374 154 363 114 l 478 599 q 679 747 511 747 q 875 599 842 747 l 974 154 q 1029 114 982 114 q 1079 161 1074 114 l 1156 733 l 1315 733 l 1233 153 q 1028 -17 1210 -17 q 831 135 864 -17 l 732 581 q 678 617 724 617 q 624 581 632 617 l 519 135 q 317 -17 485 -17 q 175 27 221 -17 q 118 153 129 71 l 42 733 m 503 1079 l 667 1079 l 822 781 l 675 781 l 503 1079 z "},"Ẃ":{"ha":1453,"x_min":46,"x_max":1410,"o":"m 46 938 l 218 938 l 288 206 q 344 143 294 143 q 403 194 393 143 l 514 769 q 729 954 550 954 q 939 769 906 954 l 1043 194 q 1103 143 1051 143 q 1160 206 1153 143 l 1239 938 l 1410 938 l 1322 196 q 1103 -17 1299 -17 q 888 174 922 -17 l 785 746 q 728 796 776 796 q 671 746 682 796 l 561 174 q 340 -17 524 -17 q 188 39 238 -17 q 126 196 138 94 l 46 938 m 740 1283 l 904 1283 l 731 985 l 585 985 l 740 1283 z "},"ẃ":{"ha":1357,"x_min":42,"x_max":1315,"o":"m 42 733 l 201 733 l 267 161 q 319 114 272 114 q 374 154 363 114 l 478 599 q 679 747 511 747 q 875 599 842 747 l 974 154 q 1029 114 982 114 q 1079 161 1074 114 l 1156 733 l 1315 733 l 1233 153 q 1028 -17 1210 -17 q 831 135 864 -17 l 732 581 q 678 617 724 617 q 624 581 632 617 l 519 135 q 317 -17 485 -17 q 175 27 221 -17 q 118 153 129 71 l 42 733 m 690 1079 l 854 1079 l 681 781 l 535 781 l 690 1079 z "},"Ẅ":{"ha":1453,"x_min":46,"x_max":1410,"o":"m 46 938 l 218 938 l 288 206 q 344 143 294 143 q 403 194 393 143 l 514 769 q 729 954 550 954 q 939 769 906 954 l 1043 194 q 1103 143 1051 143 q 1160 206 1153 143 l 1239 938 l 1410 938 l 1322 196 q 1103 -17 1299 -17 q 888 174 922 -17 l 785 746 q 728 796 776 796 q 671 746 682 796 l 561 174 q 340 -17 524 -17 q 188 39 238 -17 q 126 196 138 94 l 46 938 m 488 1214 l 636 1214 l 636 1043 l 488 1043 l 488 1214 m 821 1214 l 969 1214 l 969 1043 l 821 1043 l 821 1214 z "},"ẅ":{"ha":1357,"x_min":42,"x_max":1315,"o":"m 42 733 l 201 733 l 267 161 q 319 114 272 114 q 374 154 363 114 l 478 599 q 679 747 511 747 q 875 599 842 747 l 974 154 q 1029 114 982 114 q 1079 161 1074 114 l 1156 733 l 1315 733 l 1233 153 q 1028 -17 1210 -17 q 831 135 864 -17 l 732 581 q 678 617 724 617 q 624 581 632 617 l 519 135 q 317 -17 485 -17 q 175 27 221 -17 q 118 153 129 71 l 42 733 m 438 1010 l 586 1010 l 586 839 l 438 839 l 438 1010 m 771 1010 l 919 1010 l 919 839 l 771 839 l 771 1010 z "},"Ẓ":{"ha":1032,"x_min":79,"x_max":956,"o":"m 113 938 l 728 938 q 897 884 839 938 q 956 732 956 831 q 806 513 956 578 l 294 294 q 247 225 247 274 q 265 181 247 197 q 317 164 283 164 l 935 164 l 935 0 l 306 0 q 137 53 194 0 q 79 206 79 107 q 231 425 79 361 l 739 643 q 788 713 788 663 q 717 774 788 774 l 113 774 l 113 938 m 440 -106 l 589 -106 l 589 -276 l 440 -276 l 440 -106 z "},"ẓ":{"ha":867,"x_min":71,"x_max":797,"o":"m 97 733 l 608 733 q 749 688 701 733 q 797 565 797 643 q 672 389 797 435 l 251 236 q 213 186 213 221 q 268 142 213 142 l 782 142 l 782 0 l 260 0 q 119 45 167 0 q 71 168 71 90 q 196 346 71 301 l 618 497 q 657 549 657 511 q 600 592 657 592 l 97 592 l 97 733 m 360 -106 l 508 -106 l 508 -276 l 360 -276 l 360 -106 z "},"Ạ":{"ha":1089,"x_min":26,"x_max":1064,"o":"m 882 0 l 808 193 l 283 193 l 207 0 l 26 0 l 356 833 q 553 954 399 954 q 747 833 706 954 l 1064 0 l 882 0 m 504 754 l 344 349 l 750 349 l 597 754 q 551 786 585 786 q 504 754 518 786 m 475 -106 l 624 -106 l 624 -276 l 475 -276 l 475 -106 z "},"ạ":{"ha":933,"x_min":90,"x_max":831,"o":"m 135 733 l 575 733 q 768 668 706 733 q 831 492 831 603 l 831 147 q 800 33 831 65 q 679 0 769 0 l 336 0 q 90 224 90 0 q 149 381 90 328 q 338 435 207 435 l 686 435 l 686 490 q 658 564 686 536 q 574 592 631 592 l 135 592 l 135 733 m 646 143 q 686 181 686 143 l 686 318 l 340 318 q 235 232 235 318 q 338 143 235 143 l 646 143 m 396 -106 l 544 -106 l 544 -276 l 396 -276 l 396 -106 z "},"Ả":{"ha":1089,"x_min":26,"x_max":1064,"o":"m 882 0 l 808 193 l 283 193 l 207 0 l 26 0 l 356 833 q 553 954 399 954 q 747 833 706 954 l 1064 0 l 882 0 m 504 754 l 344 349 l 750 349 l 597 754 q 551 786 585 786 q 504 754 518 786 m 422 1463 l 656 1463 q 863 1278 863 1463 q 819 1143 863 1196 q 689 1090 775 1090 l 660 1090 q 606 1074 621 1090 q 592 1022 592 1058 l 592 985 l 489 985 l 489 1046 q 519 1160 489 1125 q 631 1194 550 1194 l 667 1194 q 724 1217 704 1194 q 743 1274 743 1239 q 654 1349 743 1349 l 422 1349 l 422 1463 z "}}}
